G04 #@! TF.GenerationSoftware,KiCad,Pcbnew,8.0.8*
G04 #@! TF.CreationDate,2025-10-05T09:32:28-04:00*
G04 #@! TF.ProjectId,project-hw-2-18650,70726f6a-6563-4742-9d68-772d322d3138,rev?*
G04 #@! TF.SameCoordinates,Original*
G04 #@! TF.FileFunction,Legend,Bot*
G04 #@! TF.FilePolarity,Positive*
%FSLAX46Y46*%
G04 Gerber Fmt 4.6, Leading zero omitted, Abs format (unit mm)*
G04 Created by KiCad (PCBNEW 8.0.8) date 2025-10-05 09:32:28*
%MOMM*%
%LPD*%
G01*
G04 APERTURE LIST*
%ADD10C,0.100000*%
%ADD11C,2.500000*%
G04 APERTURE END LIST*
D10*
G36*
X103197906Y-56160000D02*
G01*
X103454361Y-56160000D01*
X103971667Y-54690635D01*
X103707397Y-54690635D01*
X103313677Y-55882540D01*
X102896999Y-54690635D01*
X102632728Y-54690635D01*
X103197906Y-56160000D01*
G37*
G36*
X101883879Y-54721898D02*
G01*
X102325471Y-54721898D01*
X102325471Y-54534319D01*
X102224949Y-54520386D01*
X102125386Y-54501786D01*
X102025403Y-54474163D01*
X101951290Y-54438576D01*
X101884035Y-54363005D01*
X101837458Y-54269544D01*
X101803424Y-54172656D01*
X101799371Y-54159162D01*
X101636217Y-54159162D01*
X101636217Y-56160000D01*
X101883879Y-56160000D01*
X101883879Y-54721898D01*
G37*
G36*
X100539567Y-55878632D02*
G01*
X100539567Y-56160000D01*
X100832170Y-56160000D01*
X100832170Y-55878632D01*
X100539567Y-55878632D01*
G37*
G36*
X100217166Y-54846950D02*
G01*
X100208059Y-54724035D01*
X100188063Y-54613210D01*
X100157180Y-54514474D01*
X100099065Y-54401634D01*
X100021595Y-54310287D01*
X99924768Y-54240434D01*
X99808584Y-54192074D01*
X99708744Y-54169909D01*
X99598016Y-54159834D01*
X99558688Y-54159162D01*
X99455854Y-54165001D01*
X99345431Y-54186573D01*
X99245293Y-54224039D01*
X99155441Y-54277400D01*
X99097557Y-54325247D01*
X99028464Y-54402347D01*
X98976342Y-54488751D01*
X98941190Y-54584457D01*
X98923007Y-54689467D01*
X98920237Y-54753649D01*
X98930541Y-54868460D01*
X98961453Y-54976282D01*
X99012973Y-55077116D01*
X99085101Y-55170961D01*
X99157641Y-55241005D01*
X99243370Y-55306577D01*
X99342288Y-55367676D01*
X99623656Y-55522526D01*
X99708531Y-55572260D01*
X99796420Y-55633483D01*
X99869737Y-55699616D01*
X99885484Y-55717431D01*
X99939630Y-55800072D01*
X99974265Y-55894000D01*
X99983670Y-55941158D01*
X98933914Y-55941158D01*
X98933914Y-56160000D01*
X100262107Y-56160000D01*
X100254367Y-56062405D01*
X100238751Y-55954831D01*
X100216231Y-55857665D01*
X100181232Y-55757457D01*
X100129727Y-55660279D01*
X100059782Y-55572443D01*
X99978395Y-55495737D01*
X99893638Y-55430100D01*
X99812435Y-55375482D01*
X99721619Y-55320935D01*
X99702302Y-55310034D01*
X99443405Y-55161046D01*
X99351602Y-55098856D01*
X99278793Y-55030621D01*
X99217855Y-54943372D01*
X99182769Y-54847896D01*
X99173272Y-54759511D01*
X99186606Y-54653471D01*
X99226607Y-54560362D01*
X99286113Y-54486936D01*
X99369992Y-54424917D01*
X99467148Y-54388642D01*
X99566992Y-54378004D01*
X99675480Y-54389453D01*
X99767080Y-54423799D01*
X99854710Y-54495240D01*
X99909159Y-54579962D01*
X99946721Y-54687581D01*
X99964612Y-54790163D01*
X99969504Y-54846950D01*
X100217166Y-54846950D01*
G37*
G36*
X98284717Y-55878632D02*
G01*
X98284717Y-56160000D01*
X98577320Y-56160000D01*
X98577320Y-55878632D01*
X98284717Y-55878632D01*
G37*
G36*
X97408580Y-54163463D02*
G01*
X97505094Y-54181632D01*
X97595257Y-54218191D01*
X97678018Y-54271514D01*
X97705497Y-54293429D01*
X97775969Y-54365450D01*
X97832868Y-54446392D01*
X97836876Y-54453189D01*
X97881630Y-54547414D01*
X97914202Y-54643775D01*
X97939846Y-54744368D01*
X97944933Y-54768411D01*
X97962000Y-54869161D01*
X97973815Y-54977238D01*
X97979846Y-55077817D01*
X97981856Y-55184005D01*
X97981694Y-55215520D01*
X97977801Y-55336836D01*
X97968718Y-55450565D01*
X97954445Y-55556708D01*
X97934982Y-55655264D01*
X97903355Y-55767789D01*
X97863617Y-55868461D01*
X97815771Y-55957278D01*
X97794407Y-55989398D01*
X97723080Y-56073324D01*
X97640900Y-56138600D01*
X97547867Y-56185225D01*
X97443980Y-56213201D01*
X97329239Y-56222526D01*
X97290078Y-56221501D01*
X97179671Y-56206131D01*
X97079876Y-56172317D01*
X96990695Y-56120058D01*
X96912127Y-56049356D01*
X96844173Y-55960209D01*
X96833864Y-55943555D01*
X96787232Y-55853431D01*
X96748780Y-55751882D01*
X96718510Y-55638907D01*
X96700184Y-55540302D01*
X96687094Y-55434385D01*
X96679240Y-55321155D01*
X96676622Y-55200614D01*
X96677076Y-55178143D01*
X96929658Y-55178143D01*
X96931199Y-55280328D01*
X96937463Y-55398357D01*
X96948544Y-55505604D01*
X96964444Y-55602071D01*
X96989883Y-55703599D01*
X97028332Y-55802428D01*
X97069032Y-55870824D01*
X97144638Y-55946884D01*
X97237709Y-55991106D01*
X97335101Y-56003684D01*
X97448526Y-55983732D01*
X97542726Y-55923876D01*
X97604245Y-55847260D01*
X97653460Y-55745105D01*
X97682297Y-55651730D01*
X97704213Y-55543989D01*
X97719208Y-55421882D01*
X97727282Y-55285410D01*
X97728820Y-55186448D01*
X97728430Y-55136709D01*
X97722577Y-54996968D01*
X97709700Y-54871439D01*
X97689799Y-54760120D01*
X97652338Y-54633800D01*
X97602390Y-54532745D01*
X97539956Y-54456953D01*
X97444353Y-54397741D01*
X97329239Y-54378004D01*
X97280852Y-54381129D01*
X97173543Y-54416292D01*
X97085744Y-54490523D01*
X97029553Y-54578039D01*
X96985849Y-54690558D01*
X96961265Y-54791357D01*
X96943705Y-54906221D01*
X96933170Y-55035150D01*
X96929658Y-55178143D01*
X96677076Y-55178143D01*
X96679171Y-55074500D01*
X96686819Y-54956523D01*
X96699566Y-54846683D01*
X96717411Y-54744979D01*
X96753738Y-54607678D01*
X96801537Y-54488684D01*
X96860808Y-54387997D01*
X96931550Y-54305616D01*
X97013765Y-54241543D01*
X97107451Y-54195776D01*
X97212609Y-54168315D01*
X97329239Y-54159162D01*
X97408580Y-54163463D01*
G37*
G36*
X95740195Y-55284633D02*
G01*
X95740195Y-55472212D01*
X96418213Y-55472212D01*
X96418213Y-55284633D01*
X95740195Y-55284633D01*
G37*
G36*
X95536985Y-55432156D02*
G01*
X95536985Y-55691053D01*
X94695324Y-55691053D01*
X94695324Y-56160000D01*
X94448150Y-56160000D01*
X94448150Y-55691053D01*
X94152616Y-55691053D01*
X94152616Y-55472212D01*
X94448150Y-55472212D01*
X94695324Y-55472212D01*
X95320097Y-55472212D01*
X94695324Y-54587564D01*
X94695324Y-55472212D01*
X94448150Y-55472212D01*
X94448150Y-54159162D01*
X94630844Y-54159162D01*
X95536985Y-55432156D01*
G37*
G36*
X93252826Y-55284633D02*
G01*
X93252826Y-55472212D01*
X93930844Y-55472212D01*
X93930844Y-55284633D01*
X93252826Y-55284633D01*
G37*
G36*
X92501818Y-54664738D02*
G01*
X92612314Y-54690283D01*
X92712432Y-54736866D01*
X92802171Y-54804486D01*
X92870830Y-54879190D01*
X92911359Y-54936160D01*
X92962020Y-55029628D01*
X93000523Y-55132714D01*
X93026867Y-55245417D01*
X93039532Y-55346682D01*
X93043754Y-55454626D01*
X93042221Y-55518628D01*
X93032855Y-55619918D01*
X93010375Y-55732586D01*
X92975633Y-55835569D01*
X92928630Y-55928866D01*
X92869364Y-56012477D01*
X92824447Y-56061707D01*
X92739486Y-56132065D01*
X92646438Y-56182321D01*
X92545301Y-56212475D01*
X92436078Y-56222526D01*
X92385554Y-56220327D01*
X92283862Y-56200483D01*
X92192812Y-56160000D01*
X92121080Y-56107998D01*
X92050964Y-56037294D01*
X91988625Y-55956789D01*
X91988625Y-56035924D01*
X91988966Y-56070834D01*
X91994090Y-56168762D01*
X92007837Y-56270118D01*
X92033796Y-56368953D01*
X92076064Y-56458464D01*
X92106885Y-56498571D01*
X92190424Y-56558392D01*
X92290570Y-56588982D01*
X92399441Y-56597683D01*
X92474592Y-56593775D01*
X92571003Y-56573258D01*
X92658738Y-56527096D01*
X92726378Y-56445031D01*
X92757013Y-56347578D01*
X92995882Y-56347578D01*
X92986473Y-56409521D01*
X92952886Y-56510080D01*
X92897893Y-56596573D01*
X92821493Y-56669002D01*
X92801730Y-56683080D01*
X92714551Y-56730310D01*
X92614365Y-56763008D01*
X92516034Y-56779698D01*
X92407745Y-56785261D01*
X92382380Y-56785028D01*
X92275180Y-56778219D01*
X92169393Y-56759596D01*
X92069225Y-56725666D01*
X92006454Y-56692205D01*
X91927869Y-56627358D01*
X91867969Y-56544926D01*
X91833373Y-56475082D01*
X91797584Y-56376668D01*
X91775157Y-56281144D01*
X91767839Y-56235017D01*
X91756924Y-56132530D01*
X91751343Y-56028627D01*
X91749755Y-55926992D01*
X91749755Y-55449253D01*
X91988625Y-55449253D01*
X91993744Y-55557381D01*
X92012131Y-55667848D01*
X92043890Y-55764331D01*
X92095603Y-55856161D01*
X92116353Y-55882525D01*
X92195503Y-55951677D01*
X92290013Y-55992015D01*
X92388206Y-56003684D01*
X92434803Y-56001333D01*
X92530325Y-55978853D01*
X92621325Y-55925960D01*
X92689602Y-55853230D01*
X92696334Y-55843718D01*
X92747304Y-55748321D01*
X92778079Y-55648731D01*
X92793787Y-55550169D01*
X92799023Y-55440949D01*
X92798916Y-55424842D01*
X92792184Y-55318003D01*
X92774980Y-55221495D01*
X92742496Y-55123851D01*
X92689602Y-55030132D01*
X92668303Y-55002982D01*
X92587321Y-54931770D01*
X92490978Y-54890230D01*
X92391137Y-54878213D01*
X92355989Y-54879535D01*
X92249743Y-54903044D01*
X92160289Y-54955938D01*
X92094138Y-55028667D01*
X92087646Y-55038187D01*
X92038496Y-55134388D01*
X92008821Y-55235794D01*
X91993674Y-55336797D01*
X91988625Y-55449253D01*
X91749755Y-55449253D01*
X91749755Y-54690635D01*
X91994487Y-54690635D01*
X91966154Y-54916803D01*
X92035122Y-54829317D01*
X92111235Y-54759931D01*
X92209062Y-54701858D01*
X92316612Y-54668422D01*
X92416538Y-54659371D01*
X92501818Y-54664738D01*
G37*
G36*
X90843009Y-54164099D02*
G01*
X90939846Y-54181632D01*
X90950944Y-54184634D01*
X91043023Y-54222522D01*
X91128401Y-54275910D01*
X91170666Y-54309216D01*
X91242089Y-54382232D01*
X91299860Y-54462512D01*
X91317438Y-54492554D01*
X91361920Y-54589022D01*
X91394107Y-54683063D01*
X91419539Y-54778073D01*
X91428094Y-54816184D01*
X91446794Y-54923269D01*
X91458248Y-55023480D01*
X91465120Y-55129769D01*
X91467411Y-55242135D01*
X91466757Y-55302452D01*
X91461524Y-55417341D01*
X91451060Y-55524572D01*
X91425553Y-55671056D01*
X91388274Y-55800307D01*
X91339223Y-55912324D01*
X91278399Y-56007108D01*
X91205804Y-56084658D01*
X91121435Y-56144975D01*
X91025295Y-56188059D01*
X90917382Y-56213909D01*
X90797697Y-56222526D01*
X90711298Y-56217863D01*
X90614074Y-56199957D01*
X90509545Y-56162093D01*
X90414600Y-56105950D01*
X90329239Y-56031528D01*
X90257482Y-55943011D01*
X90203349Y-55844583D01*
X90170977Y-55752328D01*
X90151554Y-55652791D01*
X90146294Y-55566001D01*
X90398604Y-55566001D01*
X90399596Y-55601133D01*
X90414472Y-55699472D01*
X90451938Y-55796320D01*
X90511444Y-55880097D01*
X90518524Y-55887701D01*
X90595670Y-55950460D01*
X90693865Y-55991615D01*
X90795254Y-56003684D01*
X90816822Y-56003180D01*
X90917734Y-55985549D01*
X91007102Y-55942730D01*
X91084926Y-55874724D01*
X91105528Y-55849890D01*
X91159567Y-55758986D01*
X91191090Y-55655583D01*
X91200209Y-55551835D01*
X91199759Y-55528660D01*
X91183997Y-55420974D01*
X91145720Y-55326931D01*
X91084926Y-55246531D01*
X91062718Y-55225405D01*
X90980134Y-55169993D01*
X90884383Y-55137669D01*
X90786950Y-55128318D01*
X90681735Y-55139862D01*
X90583188Y-55179228D01*
X90502651Y-55246531D01*
X90484057Y-55269343D01*
X90435285Y-55356049D01*
X90406834Y-55459166D01*
X90398604Y-55566001D01*
X90146294Y-55566001D01*
X90145080Y-55545973D01*
X90147766Y-55477585D01*
X90165398Y-55365546D01*
X90199485Y-55263231D01*
X90250028Y-55170640D01*
X90317027Y-55087773D01*
X90361387Y-55045985D01*
X90446218Y-54986262D01*
X90540211Y-54943603D01*
X90643368Y-54918008D01*
X90755687Y-54909476D01*
X90861858Y-54917273D01*
X90958721Y-54940663D01*
X91059964Y-54987660D01*
X91148538Y-55055881D01*
X91214375Y-55131249D01*
X91213575Y-55086421D01*
X91207787Y-54980144D01*
X91196583Y-54882144D01*
X91175993Y-54775469D01*
X91142116Y-54666078D01*
X91097627Y-54572909D01*
X91043040Y-54496965D01*
X90968920Y-54433011D01*
X90870573Y-54390185D01*
X90769853Y-54378004D01*
X90738147Y-54379286D01*
X90637515Y-54403970D01*
X90552965Y-54460069D01*
X90512787Y-54505071D01*
X90462605Y-54596171D01*
X90434752Y-54690635D01*
X90187578Y-54690635D01*
X90189979Y-54675110D01*
X90213010Y-54572421D01*
X90252669Y-54467885D01*
X90306555Y-54377027D01*
X90374668Y-54299846D01*
X90454719Y-54238297D01*
X90544417Y-54194333D01*
X90643763Y-54167955D01*
X90752756Y-54159162D01*
X90843009Y-54164099D01*
G37*
G36*
X89273621Y-54378004D02*
G01*
X89372021Y-54384934D01*
X89471578Y-54413089D01*
X89556666Y-54475462D01*
X89567201Y-54488890D01*
X89616844Y-54582427D01*
X89644004Y-54686394D01*
X89653175Y-54784424D01*
X89900837Y-54784424D01*
X89892943Y-54672683D01*
X89874573Y-54571933D01*
X89833785Y-54454696D01*
X89774373Y-54356999D01*
X89696337Y-54278841D01*
X89599678Y-54220223D01*
X89484395Y-54181144D01*
X89385712Y-54164658D01*
X89276552Y-54159162D01*
X89174251Y-54164348D01*
X89065795Y-54183509D01*
X88969073Y-54216788D01*
X88872903Y-54272109D01*
X88830565Y-54306685D01*
X88759612Y-54387346D01*
X88708932Y-54481807D01*
X88681216Y-54575780D01*
X88669021Y-54680319D01*
X88668387Y-54712128D01*
X88678193Y-54820612D01*
X88707611Y-54915254D01*
X88766720Y-55008176D01*
X88852522Y-55082257D01*
X88947313Y-55130760D01*
X88853959Y-55169520D01*
X88769084Y-55221651D01*
X88698643Y-55290014D01*
X88688415Y-55303684D01*
X88640193Y-55398183D01*
X88617009Y-55494249D01*
X88609358Y-55594168D01*
X88609281Y-55606057D01*
X88615772Y-55707734D01*
X88639755Y-55816200D01*
X88681409Y-55913726D01*
X88740734Y-56000313D01*
X88793928Y-56055464D01*
X88880365Y-56120559D01*
X88978536Y-56169666D01*
X89072022Y-56199033D01*
X89174129Y-56216652D01*
X89284856Y-56222526D01*
X89394897Y-56217030D01*
X89494943Y-56200544D01*
X89612791Y-56161465D01*
X89712869Y-56102847D01*
X89795179Y-56024689D01*
X89859720Y-55926992D01*
X89906493Y-55809755D01*
X89929911Y-55709005D01*
X89943335Y-55597264D01*
X89695673Y-55597264D01*
X89680827Y-55705267D01*
X89648197Y-55805330D01*
X89592690Y-55891157D01*
X89580390Y-55904033D01*
X89498867Y-55960768D01*
X89403917Y-55991909D01*
X89301495Y-56003295D01*
X89276552Y-56003684D01*
X89173916Y-55995454D01*
X89075646Y-55967003D01*
X88986724Y-55912236D01*
X88972714Y-55899637D01*
X88910139Y-55818129D01*
X88873538Y-55717342D01*
X88862805Y-55608988D01*
X88872906Y-55505695D01*
X88911695Y-55404853D01*
X88979575Y-55329222D01*
X89076547Y-55278801D01*
X89179580Y-55256041D01*
X89276552Y-55250439D01*
X89380600Y-55253370D01*
X89411374Y-55253370D01*
X89411374Y-55034528D01*
X89301953Y-55029276D01*
X89195219Y-55016690D01*
X89098499Y-54994137D01*
X89033286Y-54966629D01*
X88961176Y-54896069D01*
X88927241Y-54795158D01*
X88921912Y-54720432D01*
X88933052Y-54619472D01*
X88970616Y-54527240D01*
X89016189Y-54470327D01*
X89096583Y-54414068D01*
X89196349Y-54383774D01*
X89273621Y-54378004D01*
G37*
G36*
X87783457Y-54163463D02*
G01*
X87879972Y-54181632D01*
X87970134Y-54218191D01*
X88052896Y-54271514D01*
X88080375Y-54293429D01*
X88150847Y-54365450D01*
X88207745Y-54446392D01*
X88211754Y-54453189D01*
X88256508Y-54547414D01*
X88289080Y-54643775D01*
X88314724Y-54744368D01*
X88319811Y-54768411D01*
X88336877Y-54869161D01*
X88348693Y-54977238D01*
X88354723Y-55077817D01*
X88356734Y-55184005D01*
X88356571Y-55215520D01*
X88352679Y-55336836D01*
X88343596Y-55450565D01*
X88329323Y-55556708D01*
X88309860Y-55655264D01*
X88278232Y-55767789D01*
X88238495Y-55868461D01*
X88190648Y-55957278D01*
X88169285Y-55989398D01*
X88097958Y-56073324D01*
X88015778Y-56138600D01*
X87922745Y-56185225D01*
X87818857Y-56213201D01*
X87704117Y-56222526D01*
X87664956Y-56221501D01*
X87554549Y-56206131D01*
X87454754Y-56172317D01*
X87365573Y-56120058D01*
X87287005Y-56049356D01*
X87219050Y-55960209D01*
X87208742Y-55943555D01*
X87162109Y-55853431D01*
X87123658Y-55751882D01*
X87093387Y-55638907D01*
X87075062Y-55540302D01*
X87061972Y-55434385D01*
X87054118Y-55321155D01*
X87051500Y-55200614D01*
X87051954Y-55178143D01*
X87304535Y-55178143D01*
X87306077Y-55280328D01*
X87312341Y-55398357D01*
X87323422Y-55505604D01*
X87339322Y-55602071D01*
X87364761Y-55703599D01*
X87403210Y-55802428D01*
X87443910Y-55870824D01*
X87519516Y-55946884D01*
X87612587Y-55991106D01*
X87709979Y-56003684D01*
X87823404Y-55983732D01*
X87917604Y-55923876D01*
X87979123Y-55847260D01*
X88028338Y-55745105D01*
X88057175Y-55651730D01*
X88079091Y-55543989D01*
X88094086Y-55421882D01*
X88102160Y-55285410D01*
X88103698Y-55186448D01*
X88103308Y-55136709D01*
X88097455Y-54996968D01*
X88084577Y-54871439D01*
X88064676Y-54760120D01*
X88027216Y-54633800D01*
X87977268Y-54532745D01*
X87914833Y-54456953D01*
X87819230Y-54397741D01*
X87704117Y-54378004D01*
X87655730Y-54381129D01*
X87548421Y-54416292D01*
X87460622Y-54490523D01*
X87404431Y-54578039D01*
X87360727Y-54690558D01*
X87336143Y-54791357D01*
X87318583Y-54906221D01*
X87308047Y-55035150D01*
X87304535Y-55178143D01*
X87051954Y-55178143D01*
X87054049Y-55074500D01*
X87061697Y-54956523D01*
X87074443Y-54846683D01*
X87092288Y-54744979D01*
X87128616Y-54607678D01*
X87176415Y-54488684D01*
X87235686Y-54387997D01*
X87306428Y-54305616D01*
X87388643Y-54241543D01*
X87482329Y-54195776D01*
X87587487Y-54168315D01*
X87704117Y-54159162D01*
X87783457Y-54163463D01*
G37*
G36*
X85752128Y-54886517D02*
G01*
X85813442Y-54809323D01*
X85898737Y-54739449D01*
X85998851Y-54691314D01*
X86096459Y-54667357D01*
X86204954Y-54659371D01*
X86308647Y-54666756D01*
X86404302Y-54688910D01*
X86505742Y-54733422D01*
X86596243Y-54798037D01*
X86665108Y-54869420D01*
X86705637Y-54924085D01*
X86756298Y-55014153D01*
X86794801Y-55113907D01*
X86821144Y-55223347D01*
X86833810Y-55321946D01*
X86838032Y-55427271D01*
X86835353Y-55517267D01*
X86824469Y-55622871D01*
X86805213Y-55720818D01*
X86771056Y-55828249D01*
X86724842Y-55924654D01*
X86666573Y-56010034D01*
X86597662Y-56082248D01*
X86506066Y-56147614D01*
X86402409Y-56192644D01*
X86303960Y-56215055D01*
X86196650Y-56222526D01*
X86132149Y-56219651D01*
X86030712Y-56201344D01*
X85933845Y-56162442D01*
X85859122Y-56112014D01*
X85788093Y-56043347D01*
X85726727Y-55965094D01*
X85726727Y-56160000D01*
X85518632Y-56160000D01*
X85518632Y-55446322D01*
X85752128Y-55446322D01*
X85757527Y-55552019D01*
X85776922Y-55661081D01*
X85810421Y-55757626D01*
X85864968Y-55851277D01*
X85886678Y-55878513D01*
X85968347Y-55949954D01*
X86064327Y-55991628D01*
X86162944Y-56003684D01*
X86221699Y-55999927D01*
X86318140Y-55974232D01*
X86402602Y-55924193D01*
X86475087Y-55849811D01*
X86489402Y-55830182D01*
X86537426Y-55743766D01*
X86570673Y-55644710D01*
X86587644Y-55547668D01*
X86593300Y-55440949D01*
X86593185Y-55425289D01*
X86585912Y-55320964D01*
X86563747Y-55213070D01*
X86526805Y-55117266D01*
X86475087Y-55033551D01*
X86444396Y-54997144D01*
X86367026Y-54932976D01*
X86267554Y-54890501D01*
X86165875Y-54878213D01*
X86131191Y-54879565D01*
X86025251Y-54903608D01*
X85934194Y-54957704D01*
X85864968Y-55032086D01*
X85851304Y-55051736D01*
X85805463Y-55138656D01*
X85773726Y-55238887D01*
X85757527Y-55337509D01*
X85752128Y-55446322D01*
X85518632Y-55446322D01*
X85518632Y-54096636D01*
X85752128Y-54096636D01*
X85752128Y-54886517D01*
G37*
G36*
X85188415Y-56160000D02*
G01*
X84977390Y-56160000D01*
X84977390Y-55970467D01*
X84956102Y-56000990D01*
X84885921Y-56080743D01*
X84806259Y-56142773D01*
X84717118Y-56187080D01*
X84618498Y-56213664D01*
X84510397Y-56222526D01*
X84404827Y-56214849D01*
X84307569Y-56191820D01*
X84204606Y-56145548D01*
X84112957Y-56078379D01*
X84043405Y-56004173D01*
X83993166Y-55932443D01*
X83944119Y-55837142D01*
X83907334Y-55731778D01*
X83886046Y-55636287D01*
X83873273Y-55533808D01*
X83869985Y-55449253D01*
X84113747Y-55449253D01*
X84113864Y-55464580D01*
X84121227Y-55566795D01*
X84143667Y-55672735D01*
X84181066Y-55767074D01*
X84233426Y-55849811D01*
X84264460Y-55885875D01*
X84342435Y-55949438D01*
X84442308Y-55991512D01*
X84544103Y-56003684D01*
X84578268Y-56002332D01*
X84682910Y-55978289D01*
X84773338Y-55924193D01*
X84842568Y-55849811D01*
X84856173Y-55830182D01*
X84901816Y-55743766D01*
X84933414Y-55644710D01*
X84949543Y-55547668D01*
X84954919Y-55440949D01*
X84949543Y-55334229D01*
X84930233Y-55224114D01*
X84896878Y-55126638D01*
X84842568Y-55032086D01*
X84813220Y-54996022D01*
X84738873Y-54932459D01*
X84642759Y-54890385D01*
X84544103Y-54878213D01*
X84484540Y-54882005D01*
X84387184Y-54907946D01*
X84302503Y-54958461D01*
X84230495Y-55033551D01*
X84216358Y-55053379D01*
X84168929Y-55140894D01*
X84136093Y-55241538D01*
X84119333Y-55340370D01*
X84113747Y-55449253D01*
X83869985Y-55449253D01*
X83869016Y-55424340D01*
X83870501Y-55359416D01*
X83879579Y-55256973D01*
X83901366Y-55143549D01*
X83935037Y-55040497D01*
X83980593Y-54947818D01*
X84038032Y-54865512D01*
X84105591Y-54795457D01*
X84195438Y-54732044D01*
X84297158Y-54688360D01*
X84393798Y-54666619D01*
X84499162Y-54659371D01*
X84517501Y-54659607D01*
X84621983Y-54670895D01*
X84716952Y-54699117D01*
X84815724Y-54753443D01*
X84890078Y-54818353D01*
X84954919Y-54900195D01*
X84954919Y-54096636D01*
X85188415Y-54096636D01*
X85188415Y-56160000D01*
G37*
G36*
X83063503Y-54721898D02*
G01*
X83505094Y-54721898D01*
X83505094Y-54534319D01*
X83404573Y-54520386D01*
X83305009Y-54501786D01*
X83205026Y-54474163D01*
X83130914Y-54438576D01*
X83063659Y-54363005D01*
X83017081Y-54269544D01*
X82983047Y-54172656D01*
X82978995Y-54159162D01*
X82815840Y-54159162D01*
X82815840Y-56160000D01*
X83063503Y-56160000D01*
X83063503Y-54721898D01*
G37*
G36*
X81563788Y-54163837D02*
G01*
X81661012Y-54181789D01*
X81765541Y-54219750D01*
X81860486Y-54276036D01*
X81945847Y-54350648D01*
X82017605Y-54439189D01*
X82071737Y-54537687D01*
X82104109Y-54630039D01*
X82123532Y-54729708D01*
X82130006Y-54836692D01*
X82127327Y-54904965D01*
X82109746Y-55016840D01*
X82075756Y-55119038D01*
X82025357Y-55211559D01*
X81958548Y-55294403D01*
X81902417Y-55345627D01*
X81815780Y-55402755D01*
X81719747Y-55442866D01*
X81614316Y-55465961D01*
X81516468Y-55472212D01*
X81418140Y-55464415D01*
X81310933Y-55435611D01*
X81211814Y-55385582D01*
X81133291Y-55325807D01*
X81060711Y-55250439D01*
X81061511Y-55295269D01*
X81067300Y-55401567D01*
X81078503Y-55499613D01*
X81099094Y-55606373D01*
X81132970Y-55715908D01*
X81177459Y-55809267D01*
X81232046Y-55885021D01*
X81306166Y-55948814D01*
X81404514Y-55991533D01*
X81505233Y-56003684D01*
X81536939Y-56002539D01*
X81637571Y-55980500D01*
X81722121Y-55930411D01*
X81748062Y-55905882D01*
X81805978Y-55821466D01*
X81840334Y-55722316D01*
X82087997Y-55722316D01*
X82085596Y-55736931D01*
X82062565Y-55833599D01*
X82022906Y-55931999D01*
X81969020Y-56017514D01*
X81900907Y-56090146D01*
X81820826Y-56148062D01*
X81731036Y-56189431D01*
X81631537Y-56214252D01*
X81522330Y-56222526D01*
X81431755Y-56217588D01*
X81333775Y-56200055D01*
X81322501Y-56197056D01*
X81229567Y-56159320D01*
X81144242Y-56106266D01*
X81101787Y-56072793D01*
X81030135Y-55999715D01*
X80972295Y-55919665D01*
X80954718Y-55889630D01*
X80910235Y-55793262D01*
X80878048Y-55699388D01*
X80852616Y-55604591D01*
X80844061Y-55566393D01*
X80825361Y-55459117D01*
X80813908Y-55358789D01*
X80807036Y-55252431D01*
X80804745Y-55140041D01*
X80805402Y-55079694D01*
X80810657Y-54964748D01*
X80821167Y-54857464D01*
X80825737Y-54831318D01*
X81074877Y-54831318D01*
X81075333Y-54854085D01*
X81091295Y-54960302D01*
X81130059Y-55053829D01*
X81191625Y-55134668D01*
X81206467Y-55149042D01*
X81288117Y-55207002D01*
X81382169Y-55241778D01*
X81488625Y-55253370D01*
X81593840Y-55241921D01*
X81692386Y-55202880D01*
X81772923Y-55136133D01*
X81791518Y-55113326D01*
X81840290Y-55026696D01*
X81868741Y-54923751D01*
X81876971Y-54817152D01*
X81875983Y-54782099D01*
X81861171Y-54683842D01*
X81823867Y-54586812D01*
X81764619Y-54502568D01*
X81757509Y-54494904D01*
X81680115Y-54431649D01*
X81581758Y-54390168D01*
X81480321Y-54378004D01*
X81458694Y-54378507D01*
X81357543Y-54396139D01*
X81268031Y-54438958D01*
X81190160Y-54506964D01*
X81163141Y-54540242D01*
X81111354Y-54632520D01*
X81083996Y-54726664D01*
X81074877Y-54831318D01*
X80825737Y-54831318D01*
X80846785Y-54710907D01*
X80884227Y-54581592D01*
X80933493Y-54469518D01*
X80994583Y-54374687D01*
X81067497Y-54297098D01*
X81152234Y-54236751D01*
X81248795Y-54193646D01*
X81357181Y-54167783D01*
X81477390Y-54159162D01*
X81563788Y-54163837D01*
G37*
%LPC*%
D11*
X112110000Y-47550000D03*
X39890000Y-47550000D03*
X112110000Y-28450000D03*
X39890000Y-28450000D03*
%LPD*%
M02*
