%TF.GenerationSoftware,KiCad,Pcbnew,8.0.8*%
%TF.CreationDate,2025-10-05T08:52:24-04:00*%
%TF.ProjectId,project-hw-2-18650,70726f6a-6563-4742-9d68-772d322d3138,rev?*%
%TF.SameCoordinates,Original*%
%TF.FileFunction,Drillmap*%
%TF.FilePolarity,Positive*%
%FSLAX45Y45*%
G04 Gerber Fmt 4.5, Leading zero omitted, Abs format (unit mm)*
G04 Created by KiCad (PCBNEW 8.0.8) date 2025-10-05 08:52:24*
%MOMM*%
%LPD*%
G01*
G04 APERTURE LIST*
%ADD10C,0.050000*%
%ADD11C,0.200000*%
%ADD12C,0.100000*%
%ADD13C,0.132000*%
G04 APERTURE END LIST*
D10*
X11200000Y-1600000D02*
G75*
G02*
X11600000Y-2000000I0J-400000D01*
G01*
X1800000Y-2000000D02*
G75*
G02*
X2200000Y-1600000I400000J0D01*
G01*
X11600000Y-5600000D02*
G75*
G02*
X11200000Y-6000000I-400000J0D01*
G01*
X2200000Y-6000000D02*
G75*
G02*
X1800000Y-5600000I0J400000D01*
G01*
X11600000Y-2000000D02*
X11600000Y-5600000D01*
X2200000Y-1600000D02*
X11200000Y-1600000D01*
X1800000Y-5600000D02*
X1800000Y-2000000D01*
X11200000Y-6000000D02*
X2200000Y-6000000D01*
D11*
D12*
X2110000Y-4310000D02*
X2140000Y-4340000D01*
X2140000Y-4310000D02*
X2110000Y-4340000D01*
X2110000Y-4410000D02*
X2140000Y-4440000D01*
X2140000Y-4410000D02*
X2110000Y-4440000D01*
X2110000Y-4510000D02*
X2140000Y-4540000D01*
X2140000Y-4510000D02*
X2110000Y-4540000D01*
X2110000Y-4660000D02*
X2140000Y-4690000D01*
X2140000Y-4660000D02*
X2110000Y-4690000D01*
X2110000Y-4760000D02*
X2140000Y-4790000D01*
X2140000Y-4760000D02*
X2110000Y-4790000D01*
X2110000Y-4860000D02*
X2140000Y-4890000D01*
X2140000Y-4860000D02*
X2110000Y-4890000D01*
X2235000Y-4310000D02*
X2265000Y-4340000D01*
X2265000Y-4310000D02*
X2235000Y-4340000D01*
X2235000Y-4410000D02*
X2265000Y-4440000D01*
X2265000Y-4410000D02*
X2235000Y-4440000D01*
X2235000Y-4510000D02*
X2265000Y-4540000D01*
X2265000Y-4510000D02*
X2235000Y-4540000D01*
X2235000Y-4660000D02*
X2265000Y-4690000D01*
X2265000Y-4660000D02*
X2235000Y-4690000D01*
X2235000Y-4760000D02*
X2265000Y-4790000D01*
X2265000Y-4760000D02*
X2235000Y-4790000D01*
X2235000Y-4860000D02*
X2265000Y-4890000D01*
X2265000Y-4860000D02*
X2235000Y-4890000D01*
X2385000Y-4135000D02*
X2415000Y-4165000D01*
X2415000Y-4135000D02*
X2385000Y-4165000D01*
X2385000Y-4210000D02*
X2415000Y-4240000D01*
X2415000Y-4210000D02*
X2385000Y-4240000D01*
X2460000Y-3710000D02*
X2490000Y-3740000D01*
X2490000Y-3710000D02*
X2460000Y-3740000D01*
X2535000Y-4035000D02*
X2565000Y-4065000D01*
X2565000Y-4035000D02*
X2535000Y-4065000D01*
X2585000Y-4985000D02*
X2615000Y-5015000D01*
X2615000Y-4985000D02*
X2585000Y-5015000D01*
X2610000Y-3710000D02*
X2640000Y-3740000D01*
X2640000Y-3710000D02*
X2610000Y-3740000D01*
X2610000Y-4035000D02*
X2640000Y-4065000D01*
X2640000Y-4035000D02*
X2610000Y-4065000D01*
X2652500Y-3452500D02*
X2682500Y-3482500D01*
X2682500Y-3452500D02*
X2652500Y-3482500D01*
X2660000Y-5510000D02*
X2690000Y-5540000D01*
X2690000Y-5510000D02*
X2660000Y-5540000D01*
X2660000Y-5585000D02*
X2690000Y-5615000D01*
X2690000Y-5585000D02*
X2660000Y-5615000D01*
X2660000Y-5660000D02*
X2690000Y-5690000D01*
X2690000Y-5660000D02*
X2660000Y-5690000D01*
X2685000Y-3710000D02*
X2715000Y-3740000D01*
X2715000Y-3710000D02*
X2685000Y-3740000D01*
X2775000Y-2395000D02*
X2805000Y-2425000D01*
X2805000Y-2395000D02*
X2775000Y-2425000D01*
X2775000Y-2775000D02*
X2805000Y-2805000D01*
X2805000Y-2775000D02*
X2775000Y-2805000D01*
X2785000Y-3185000D02*
X2815000Y-3215000D01*
X2815000Y-3185000D02*
X2785000Y-3215000D01*
X2810000Y-5510000D02*
X2840000Y-5540000D01*
X2840000Y-5510000D02*
X2810000Y-5540000D01*
X2810000Y-5585000D02*
X2840000Y-5615000D01*
X2840000Y-5585000D02*
X2810000Y-5615000D01*
X2810000Y-5660000D02*
X2840000Y-5690000D01*
X2840000Y-5660000D02*
X2810000Y-5690000D01*
X2845000Y-2395000D02*
X2875000Y-2425000D01*
X2875000Y-2395000D02*
X2845000Y-2425000D01*
X2845000Y-2775000D02*
X2875000Y-2805000D01*
X2875000Y-2775000D02*
X2845000Y-2805000D01*
X2885000Y-1785000D02*
X2915000Y-1815000D01*
X2915000Y-1785000D02*
X2885000Y-1815000D01*
X2925000Y-2395000D02*
X2955000Y-2425000D01*
X2955000Y-2395000D02*
X2925000Y-2425000D01*
X2925000Y-2775000D02*
X2955000Y-2805000D01*
X2955000Y-2775000D02*
X2925000Y-2805000D01*
X2960000Y-5510000D02*
X2990000Y-5540000D01*
X2990000Y-5510000D02*
X2960000Y-5540000D01*
X2960000Y-5585000D02*
X2990000Y-5615000D01*
X2990000Y-5585000D02*
X2960000Y-5615000D01*
X2960000Y-5660000D02*
X2990000Y-5690000D01*
X2990000Y-5660000D02*
X2960000Y-5690000D01*
X2985000Y-3185000D02*
X3015000Y-3215000D01*
X3015000Y-3185000D02*
X2985000Y-3215000D01*
X2995000Y-2395000D02*
X3025000Y-2425000D01*
X3025000Y-2395000D02*
X2995000Y-2425000D01*
X2995000Y-2775000D02*
X3025000Y-2805000D01*
X3025000Y-2775000D02*
X2995000Y-2805000D01*
X3110000Y-3410000D02*
X3140000Y-3440000D01*
X3140000Y-3410000D02*
X3110000Y-3440000D01*
X3110000Y-3485000D02*
X3140000Y-3515000D01*
X3140000Y-3485000D02*
X3110000Y-3515000D01*
X3385000Y-2660000D02*
X3415000Y-2690000D01*
X3415000Y-2660000D02*
X3385000Y-2690000D01*
X3385000Y-3385000D02*
X3415000Y-3415000D01*
X3415000Y-3385000D02*
X3385000Y-3415000D01*
D13*
X4055000Y-2845000D02*
G75*
G02*
X3923000Y-2845000I-66000J0D01*
G01*
X3923000Y-2845000D02*
G75*
G02*
X4055000Y-2845000I66000J0D01*
G01*
X4055000Y-4755000D02*
G75*
G02*
X3923000Y-4755000I-66000J0D01*
G01*
X3923000Y-4755000D02*
G75*
G02*
X4055000Y-4755000I66000J0D01*
G01*
X11277000Y-2845000D02*
G75*
G02*
X11145000Y-2845000I-66000J0D01*
G01*
X11145000Y-2845000D02*
G75*
G02*
X11277000Y-2845000I66000J0D01*
G01*
X11277000Y-4755000D02*
G75*
G02*
X11145000Y-4755000I-66000J0D01*
G01*
X11145000Y-4755000D02*
G75*
G02*
X11277000Y-4755000I66000J0D01*
G01*
D11*
X2058277Y-6313984D02*
X2058277Y-6113984D01*
X2058277Y-6113984D02*
X2105896Y-6113984D01*
X2105896Y-6113984D02*
X2134467Y-6123508D01*
X2134467Y-6123508D02*
X2153515Y-6142555D01*
X2153515Y-6142555D02*
X2163039Y-6161603D01*
X2163039Y-6161603D02*
X2172563Y-6199698D01*
X2172563Y-6199698D02*
X2172563Y-6228269D01*
X2172563Y-6228269D02*
X2163039Y-6266365D01*
X2163039Y-6266365D02*
X2153515Y-6285412D01*
X2153515Y-6285412D02*
X2134467Y-6304460D01*
X2134467Y-6304460D02*
X2105896Y-6313984D01*
X2105896Y-6313984D02*
X2058277Y-6313984D01*
X2258277Y-6313984D02*
X2258277Y-6180650D01*
X2258277Y-6218746D02*
X2267801Y-6199698D01*
X2267801Y-6199698D02*
X2277324Y-6190174D01*
X2277324Y-6190174D02*
X2296372Y-6180650D01*
X2296372Y-6180650D02*
X2315420Y-6180650D01*
X2382086Y-6313984D02*
X2382086Y-6180650D01*
X2382086Y-6113984D02*
X2372563Y-6123508D01*
X2372563Y-6123508D02*
X2382086Y-6133031D01*
X2382086Y-6133031D02*
X2391610Y-6123508D01*
X2391610Y-6123508D02*
X2382086Y-6113984D01*
X2382086Y-6113984D02*
X2382086Y-6133031D01*
X2505896Y-6313984D02*
X2486848Y-6304460D01*
X2486848Y-6304460D02*
X2477324Y-6285412D01*
X2477324Y-6285412D02*
X2477324Y-6113984D01*
X2610658Y-6313984D02*
X2591610Y-6304460D01*
X2591610Y-6304460D02*
X2582086Y-6285412D01*
X2582086Y-6285412D02*
X2582086Y-6113984D01*
X2839229Y-6313984D02*
X2839229Y-6113984D01*
X2839229Y-6113984D02*
X2905896Y-6256841D01*
X2905896Y-6256841D02*
X2972562Y-6113984D01*
X2972562Y-6113984D02*
X2972562Y-6313984D01*
X3153515Y-6313984D02*
X3153515Y-6209222D01*
X3153515Y-6209222D02*
X3143991Y-6190174D01*
X3143991Y-6190174D02*
X3124943Y-6180650D01*
X3124943Y-6180650D02*
X3086848Y-6180650D01*
X3086848Y-6180650D02*
X3067801Y-6190174D01*
X3153515Y-6304460D02*
X3134467Y-6313984D01*
X3134467Y-6313984D02*
X3086848Y-6313984D01*
X3086848Y-6313984D02*
X3067801Y-6304460D01*
X3067801Y-6304460D02*
X3058277Y-6285412D01*
X3058277Y-6285412D02*
X3058277Y-6266365D01*
X3058277Y-6266365D02*
X3067801Y-6247317D01*
X3067801Y-6247317D02*
X3086848Y-6237793D01*
X3086848Y-6237793D02*
X3134467Y-6237793D01*
X3134467Y-6237793D02*
X3153515Y-6228269D01*
X3248753Y-6180650D02*
X3248753Y-6380650D01*
X3248753Y-6190174D02*
X3267801Y-6180650D01*
X3267801Y-6180650D02*
X3305896Y-6180650D01*
X3305896Y-6180650D02*
X3324943Y-6190174D01*
X3324943Y-6190174D02*
X3334467Y-6199698D01*
X3334467Y-6199698D02*
X3343991Y-6218746D01*
X3343991Y-6218746D02*
X3343991Y-6275888D01*
X3343991Y-6275888D02*
X3334467Y-6294936D01*
X3334467Y-6294936D02*
X3324943Y-6304460D01*
X3324943Y-6304460D02*
X3305896Y-6313984D01*
X3305896Y-6313984D02*
X3267801Y-6313984D01*
X3267801Y-6313984D02*
X3248753Y-6304460D01*
X3429705Y-6294936D02*
X3439229Y-6304460D01*
X3439229Y-6304460D02*
X3429705Y-6313984D01*
X3429705Y-6313984D02*
X3420182Y-6304460D01*
X3420182Y-6304460D02*
X3429705Y-6294936D01*
X3429705Y-6294936D02*
X3429705Y-6313984D01*
X3429705Y-6190174D02*
X3439229Y-6199698D01*
X3439229Y-6199698D02*
X3429705Y-6209222D01*
X3429705Y-6209222D02*
X3420182Y-6199698D01*
X3420182Y-6199698D02*
X3429705Y-6190174D01*
X3429705Y-6190174D02*
X3429705Y-6209222D01*
D12*
X1767500Y-6627500D02*
X1797500Y-6657500D01*
X1797500Y-6627500D02*
X1767500Y-6657500D01*
D11*
X2096372Y-6533984D02*
X2115420Y-6533984D01*
X2115420Y-6533984D02*
X2134467Y-6543508D01*
X2134467Y-6543508D02*
X2143991Y-6553031D01*
X2143991Y-6553031D02*
X2153515Y-6572079D01*
X2153515Y-6572079D02*
X2163039Y-6610174D01*
X2163039Y-6610174D02*
X2163039Y-6657793D01*
X2163039Y-6657793D02*
X2153515Y-6695888D01*
X2153515Y-6695888D02*
X2143991Y-6714936D01*
X2143991Y-6714936D02*
X2134467Y-6724460D01*
X2134467Y-6724460D02*
X2115420Y-6733984D01*
X2115420Y-6733984D02*
X2096372Y-6733984D01*
X2096372Y-6733984D02*
X2077324Y-6724460D01*
X2077324Y-6724460D02*
X2067801Y-6714936D01*
X2067801Y-6714936D02*
X2058277Y-6695888D01*
X2058277Y-6695888D02*
X2048753Y-6657793D01*
X2048753Y-6657793D02*
X2048753Y-6610174D01*
X2048753Y-6610174D02*
X2058277Y-6572079D01*
X2058277Y-6572079D02*
X2067801Y-6553031D01*
X2067801Y-6553031D02*
X2077324Y-6543508D01*
X2077324Y-6543508D02*
X2096372Y-6533984D01*
X2248753Y-6714936D02*
X2258277Y-6724460D01*
X2258277Y-6724460D02*
X2248753Y-6733984D01*
X2248753Y-6733984D02*
X2239229Y-6724460D01*
X2239229Y-6724460D02*
X2248753Y-6714936D01*
X2248753Y-6714936D02*
X2248753Y-6733984D01*
X2324944Y-6533984D02*
X2448753Y-6533984D01*
X2448753Y-6533984D02*
X2382086Y-6610174D01*
X2382086Y-6610174D02*
X2410658Y-6610174D01*
X2410658Y-6610174D02*
X2429705Y-6619698D01*
X2429705Y-6619698D02*
X2439229Y-6629222D01*
X2439229Y-6629222D02*
X2448753Y-6648269D01*
X2448753Y-6648269D02*
X2448753Y-6695888D01*
X2448753Y-6695888D02*
X2439229Y-6714936D01*
X2439229Y-6714936D02*
X2429705Y-6724460D01*
X2429705Y-6724460D02*
X2410658Y-6733984D01*
X2410658Y-6733984D02*
X2353515Y-6733984D01*
X2353515Y-6733984D02*
X2334467Y-6724460D01*
X2334467Y-6724460D02*
X2324944Y-6714936D01*
X2572563Y-6533984D02*
X2591610Y-6533984D01*
X2591610Y-6533984D02*
X2610658Y-6543508D01*
X2610658Y-6543508D02*
X2620182Y-6553031D01*
X2620182Y-6553031D02*
X2629705Y-6572079D01*
X2629705Y-6572079D02*
X2639229Y-6610174D01*
X2639229Y-6610174D02*
X2639229Y-6657793D01*
X2639229Y-6657793D02*
X2629705Y-6695888D01*
X2629705Y-6695888D02*
X2620182Y-6714936D01*
X2620182Y-6714936D02*
X2610658Y-6724460D01*
X2610658Y-6724460D02*
X2591610Y-6733984D01*
X2591610Y-6733984D02*
X2572563Y-6733984D01*
X2572563Y-6733984D02*
X2553515Y-6724460D01*
X2553515Y-6724460D02*
X2543991Y-6714936D01*
X2543991Y-6714936D02*
X2534467Y-6695888D01*
X2534467Y-6695888D02*
X2524944Y-6657793D01*
X2524944Y-6657793D02*
X2524944Y-6610174D01*
X2524944Y-6610174D02*
X2534467Y-6572079D01*
X2534467Y-6572079D02*
X2543991Y-6553031D01*
X2543991Y-6553031D02*
X2553515Y-6543508D01*
X2553515Y-6543508D02*
X2572563Y-6533984D01*
X2763039Y-6533984D02*
X2782086Y-6533984D01*
X2782086Y-6533984D02*
X2801134Y-6543508D01*
X2801134Y-6543508D02*
X2810658Y-6553031D01*
X2810658Y-6553031D02*
X2820182Y-6572079D01*
X2820182Y-6572079D02*
X2829705Y-6610174D01*
X2829705Y-6610174D02*
X2829705Y-6657793D01*
X2829705Y-6657793D02*
X2820182Y-6695888D01*
X2820182Y-6695888D02*
X2810658Y-6714936D01*
X2810658Y-6714936D02*
X2801134Y-6724460D01*
X2801134Y-6724460D02*
X2782086Y-6733984D01*
X2782086Y-6733984D02*
X2763039Y-6733984D01*
X2763039Y-6733984D02*
X2743991Y-6724460D01*
X2743991Y-6724460D02*
X2734467Y-6714936D01*
X2734467Y-6714936D02*
X2724944Y-6695888D01*
X2724944Y-6695888D02*
X2715420Y-6657793D01*
X2715420Y-6657793D02*
X2715420Y-6610174D01*
X2715420Y-6610174D02*
X2724944Y-6572079D01*
X2724944Y-6572079D02*
X2734467Y-6553031D01*
X2734467Y-6553031D02*
X2743991Y-6543508D01*
X2743991Y-6543508D02*
X2763039Y-6533984D01*
X2915420Y-6733984D02*
X2915420Y-6600650D01*
X2915420Y-6619698D02*
X2924943Y-6610174D01*
X2924943Y-6610174D02*
X2943991Y-6600650D01*
X2943991Y-6600650D02*
X2972563Y-6600650D01*
X2972563Y-6600650D02*
X2991610Y-6610174D01*
X2991610Y-6610174D02*
X3001134Y-6629222D01*
X3001134Y-6629222D02*
X3001134Y-6733984D01*
X3001134Y-6629222D02*
X3010658Y-6610174D01*
X3010658Y-6610174D02*
X3029705Y-6600650D01*
X3029705Y-6600650D02*
X3058277Y-6600650D01*
X3058277Y-6600650D02*
X3077324Y-6610174D01*
X3077324Y-6610174D02*
X3086848Y-6629222D01*
X3086848Y-6629222D02*
X3086848Y-6733984D01*
X3182086Y-6733984D02*
X3182086Y-6600650D01*
X3182086Y-6619698D02*
X3191610Y-6610174D01*
X3191610Y-6610174D02*
X3210658Y-6600650D01*
X3210658Y-6600650D02*
X3239229Y-6600650D01*
X3239229Y-6600650D02*
X3258277Y-6610174D01*
X3258277Y-6610174D02*
X3267801Y-6629222D01*
X3267801Y-6629222D02*
X3267801Y-6733984D01*
X3267801Y-6629222D02*
X3277324Y-6610174D01*
X3277324Y-6610174D02*
X3296372Y-6600650D01*
X3296372Y-6600650D02*
X3324943Y-6600650D01*
X3324943Y-6600650D02*
X3343991Y-6610174D01*
X3343991Y-6610174D02*
X3353515Y-6629222D01*
X3353515Y-6629222D02*
X3353515Y-6733984D01*
X3743991Y-6524460D02*
X3572563Y-6781603D01*
X4001134Y-6533984D02*
X4020182Y-6533984D01*
X4020182Y-6533984D02*
X4039229Y-6543508D01*
X4039229Y-6543508D02*
X4048753Y-6553031D01*
X4048753Y-6553031D02*
X4058277Y-6572079D01*
X4058277Y-6572079D02*
X4067801Y-6610174D01*
X4067801Y-6610174D02*
X4067801Y-6657793D01*
X4067801Y-6657793D02*
X4058277Y-6695888D01*
X4058277Y-6695888D02*
X4048753Y-6714936D01*
X4048753Y-6714936D02*
X4039229Y-6724460D01*
X4039229Y-6724460D02*
X4020182Y-6733984D01*
X4020182Y-6733984D02*
X4001134Y-6733984D01*
X4001134Y-6733984D02*
X3982086Y-6724460D01*
X3982086Y-6724460D02*
X3972563Y-6714936D01*
X3972563Y-6714936D02*
X3963039Y-6695888D01*
X3963039Y-6695888D02*
X3953515Y-6657793D01*
X3953515Y-6657793D02*
X3953515Y-6610174D01*
X3953515Y-6610174D02*
X3963039Y-6572079D01*
X3963039Y-6572079D02*
X3972563Y-6553031D01*
X3972563Y-6553031D02*
X3982086Y-6543508D01*
X3982086Y-6543508D02*
X4001134Y-6533984D01*
X4153515Y-6714936D02*
X4163039Y-6724460D01*
X4163039Y-6724460D02*
X4153515Y-6733984D01*
X4153515Y-6733984D02*
X4143991Y-6724460D01*
X4143991Y-6724460D02*
X4153515Y-6714936D01*
X4153515Y-6714936D02*
X4153515Y-6733984D01*
X4286848Y-6533984D02*
X4305896Y-6533984D01*
X4305896Y-6533984D02*
X4324944Y-6543508D01*
X4324944Y-6543508D02*
X4334468Y-6553031D01*
X4334468Y-6553031D02*
X4343991Y-6572079D01*
X4343991Y-6572079D02*
X4353515Y-6610174D01*
X4353515Y-6610174D02*
X4353515Y-6657793D01*
X4353515Y-6657793D02*
X4343991Y-6695888D01*
X4343991Y-6695888D02*
X4334468Y-6714936D01*
X4334468Y-6714936D02*
X4324944Y-6724460D01*
X4324944Y-6724460D02*
X4305896Y-6733984D01*
X4305896Y-6733984D02*
X4286848Y-6733984D01*
X4286848Y-6733984D02*
X4267801Y-6724460D01*
X4267801Y-6724460D02*
X4258277Y-6714936D01*
X4258277Y-6714936D02*
X4248753Y-6695888D01*
X4248753Y-6695888D02*
X4239229Y-6657793D01*
X4239229Y-6657793D02*
X4239229Y-6610174D01*
X4239229Y-6610174D02*
X4248753Y-6572079D01*
X4248753Y-6572079D02*
X4258277Y-6553031D01*
X4258277Y-6553031D02*
X4267801Y-6543508D01*
X4267801Y-6543508D02*
X4286848Y-6533984D01*
X4543991Y-6733984D02*
X4429706Y-6733984D01*
X4486848Y-6733984D02*
X4486848Y-6533984D01*
X4486848Y-6533984D02*
X4467801Y-6562555D01*
X4467801Y-6562555D02*
X4448753Y-6581603D01*
X4448753Y-6581603D02*
X4429706Y-6591127D01*
X4734468Y-6733984D02*
X4620182Y-6733984D01*
X4677325Y-6733984D02*
X4677325Y-6533984D01*
X4677325Y-6533984D02*
X4658277Y-6562555D01*
X4658277Y-6562555D02*
X4639229Y-6581603D01*
X4639229Y-6581603D02*
X4620182Y-6591127D01*
X4848753Y-6619698D02*
X4829706Y-6610174D01*
X4829706Y-6610174D02*
X4820182Y-6600650D01*
X4820182Y-6600650D02*
X4810658Y-6581603D01*
X4810658Y-6581603D02*
X4810658Y-6572079D01*
X4810658Y-6572079D02*
X4820182Y-6553031D01*
X4820182Y-6553031D02*
X4829706Y-6543508D01*
X4829706Y-6543508D02*
X4848753Y-6533984D01*
X4848753Y-6533984D02*
X4886849Y-6533984D01*
X4886849Y-6533984D02*
X4905896Y-6543508D01*
X4905896Y-6543508D02*
X4915420Y-6553031D01*
X4915420Y-6553031D02*
X4924944Y-6572079D01*
X4924944Y-6572079D02*
X4924944Y-6581603D01*
X4924944Y-6581603D02*
X4915420Y-6600650D01*
X4915420Y-6600650D02*
X4905896Y-6610174D01*
X4905896Y-6610174D02*
X4886849Y-6619698D01*
X4886849Y-6619698D02*
X4848753Y-6619698D01*
X4848753Y-6619698D02*
X4829706Y-6629222D01*
X4829706Y-6629222D02*
X4820182Y-6638746D01*
X4820182Y-6638746D02*
X4810658Y-6657793D01*
X4810658Y-6657793D02*
X4810658Y-6695888D01*
X4810658Y-6695888D02*
X4820182Y-6714936D01*
X4820182Y-6714936D02*
X4829706Y-6724460D01*
X4829706Y-6724460D02*
X4848753Y-6733984D01*
X4848753Y-6733984D02*
X4886849Y-6733984D01*
X4886849Y-6733984D02*
X4905896Y-6724460D01*
X4905896Y-6724460D02*
X4915420Y-6714936D01*
X4915420Y-6714936D02*
X4924944Y-6695888D01*
X4924944Y-6695888D02*
X4924944Y-6657793D01*
X4924944Y-6657793D02*
X4915420Y-6638746D01*
X4915420Y-6638746D02*
X4905896Y-6629222D01*
X4905896Y-6629222D02*
X4886849Y-6619698D01*
X5001134Y-6533984D02*
X5001134Y-6572079D01*
X5077325Y-6533984D02*
X5077325Y-6572079D01*
X5372563Y-6810174D02*
X5363039Y-6800650D01*
X5363039Y-6800650D02*
X5343991Y-6772079D01*
X5343991Y-6772079D02*
X5334468Y-6753031D01*
X5334468Y-6753031D02*
X5324944Y-6724460D01*
X5324944Y-6724460D02*
X5315420Y-6676841D01*
X5315420Y-6676841D02*
X5315420Y-6638746D01*
X5315420Y-6638746D02*
X5324944Y-6591127D01*
X5324944Y-6591127D02*
X5334468Y-6562555D01*
X5334468Y-6562555D02*
X5343991Y-6543508D01*
X5343991Y-6543508D02*
X5363039Y-6514936D01*
X5363039Y-6514936D02*
X5372563Y-6505412D01*
X5534468Y-6600650D02*
X5534468Y-6733984D01*
X5486849Y-6524460D02*
X5439230Y-6667317D01*
X5439230Y-6667317D02*
X5563039Y-6667317D01*
X5734468Y-6533984D02*
X5639229Y-6533984D01*
X5639229Y-6533984D02*
X5629706Y-6629222D01*
X5629706Y-6629222D02*
X5639229Y-6619698D01*
X5639229Y-6619698D02*
X5658277Y-6610174D01*
X5658277Y-6610174D02*
X5705896Y-6610174D01*
X5705896Y-6610174D02*
X5724944Y-6619698D01*
X5724944Y-6619698D02*
X5734468Y-6629222D01*
X5734468Y-6629222D02*
X5743991Y-6648269D01*
X5743991Y-6648269D02*
X5743991Y-6695888D01*
X5743991Y-6695888D02*
X5734468Y-6714936D01*
X5734468Y-6714936D02*
X5724944Y-6724460D01*
X5724944Y-6724460D02*
X5705896Y-6733984D01*
X5705896Y-6733984D02*
X5658277Y-6733984D01*
X5658277Y-6733984D02*
X5639229Y-6724460D01*
X5639229Y-6724460D02*
X5629706Y-6714936D01*
X5982087Y-6733984D02*
X5982087Y-6533984D01*
X6067801Y-6733984D02*
X6067801Y-6629222D01*
X6067801Y-6629222D02*
X6058277Y-6610174D01*
X6058277Y-6610174D02*
X6039230Y-6600650D01*
X6039230Y-6600650D02*
X6010658Y-6600650D01*
X6010658Y-6600650D02*
X5991610Y-6610174D01*
X5991610Y-6610174D02*
X5982087Y-6619698D01*
X6191610Y-6733984D02*
X6172563Y-6724460D01*
X6172563Y-6724460D02*
X6163039Y-6714936D01*
X6163039Y-6714936D02*
X6153515Y-6695888D01*
X6153515Y-6695888D02*
X6153515Y-6638746D01*
X6153515Y-6638746D02*
X6163039Y-6619698D01*
X6163039Y-6619698D02*
X6172563Y-6610174D01*
X6172563Y-6610174D02*
X6191610Y-6600650D01*
X6191610Y-6600650D02*
X6220182Y-6600650D01*
X6220182Y-6600650D02*
X6239230Y-6610174D01*
X6239230Y-6610174D02*
X6248753Y-6619698D01*
X6248753Y-6619698D02*
X6258277Y-6638746D01*
X6258277Y-6638746D02*
X6258277Y-6695888D01*
X6258277Y-6695888D02*
X6248753Y-6714936D01*
X6248753Y-6714936D02*
X6239230Y-6724460D01*
X6239230Y-6724460D02*
X6220182Y-6733984D01*
X6220182Y-6733984D02*
X6191610Y-6733984D01*
X6372563Y-6733984D02*
X6353515Y-6724460D01*
X6353515Y-6724460D02*
X6343991Y-6705412D01*
X6343991Y-6705412D02*
X6343991Y-6533984D01*
X6524944Y-6724460D02*
X6505896Y-6733984D01*
X6505896Y-6733984D02*
X6467801Y-6733984D01*
X6467801Y-6733984D02*
X6448753Y-6724460D01*
X6448753Y-6724460D02*
X6439230Y-6705412D01*
X6439230Y-6705412D02*
X6439230Y-6629222D01*
X6439230Y-6629222D02*
X6448753Y-6610174D01*
X6448753Y-6610174D02*
X6467801Y-6600650D01*
X6467801Y-6600650D02*
X6505896Y-6600650D01*
X6505896Y-6600650D02*
X6524944Y-6610174D01*
X6524944Y-6610174D02*
X6534468Y-6629222D01*
X6534468Y-6629222D02*
X6534468Y-6648269D01*
X6534468Y-6648269D02*
X6439230Y-6667317D01*
X6610658Y-6724460D02*
X6629706Y-6733984D01*
X6629706Y-6733984D02*
X6667801Y-6733984D01*
X6667801Y-6733984D02*
X6686849Y-6724460D01*
X6686849Y-6724460D02*
X6696372Y-6705412D01*
X6696372Y-6705412D02*
X6696372Y-6695888D01*
X6696372Y-6695888D02*
X6686849Y-6676841D01*
X6686849Y-6676841D02*
X6667801Y-6667317D01*
X6667801Y-6667317D02*
X6639230Y-6667317D01*
X6639230Y-6667317D02*
X6620182Y-6657793D01*
X6620182Y-6657793D02*
X6610658Y-6638746D01*
X6610658Y-6638746D02*
X6610658Y-6629222D01*
X6610658Y-6629222D02*
X6620182Y-6610174D01*
X6620182Y-6610174D02*
X6639230Y-6600650D01*
X6639230Y-6600650D02*
X6667801Y-6600650D01*
X6667801Y-6600650D02*
X6686849Y-6610174D01*
X6763039Y-6810174D02*
X6772563Y-6800650D01*
X6772563Y-6800650D02*
X6791611Y-6772079D01*
X6791611Y-6772079D02*
X6801134Y-6753031D01*
X6801134Y-6753031D02*
X6810658Y-6724460D01*
X6810658Y-6724460D02*
X6820182Y-6676841D01*
X6820182Y-6676841D02*
X6820182Y-6638746D01*
X6820182Y-6638746D02*
X6810658Y-6591127D01*
X6810658Y-6591127D02*
X6801134Y-6562555D01*
X6801134Y-6562555D02*
X6791611Y-6543508D01*
X6791611Y-6543508D02*
X6772563Y-6514936D01*
X6772563Y-6514936D02*
X6763039Y-6505412D01*
D13*
X1797500Y-6906500D02*
G75*
G02*
X1665500Y-6906500I-66000J0D01*
G01*
X1665500Y-6906500D02*
G75*
G02*
X1797500Y-6906500I66000J0D01*
G01*
D11*
X2163039Y-6997984D02*
X2048753Y-6997984D01*
X2105896Y-6997984D02*
X2105896Y-6797984D01*
X2105896Y-6797984D02*
X2086848Y-6826555D01*
X2086848Y-6826555D02*
X2067801Y-6845603D01*
X2067801Y-6845603D02*
X2048753Y-6855127D01*
X2248753Y-6978936D02*
X2258277Y-6988460D01*
X2258277Y-6988460D02*
X2248753Y-6997984D01*
X2248753Y-6997984D02*
X2239229Y-6988460D01*
X2239229Y-6988460D02*
X2248753Y-6978936D01*
X2248753Y-6978936D02*
X2248753Y-6997984D01*
X2324944Y-6797984D02*
X2448753Y-6797984D01*
X2448753Y-6797984D02*
X2382086Y-6874174D01*
X2382086Y-6874174D02*
X2410658Y-6874174D01*
X2410658Y-6874174D02*
X2429705Y-6883698D01*
X2429705Y-6883698D02*
X2439229Y-6893222D01*
X2439229Y-6893222D02*
X2448753Y-6912269D01*
X2448753Y-6912269D02*
X2448753Y-6959888D01*
X2448753Y-6959888D02*
X2439229Y-6978936D01*
X2439229Y-6978936D02*
X2429705Y-6988460D01*
X2429705Y-6988460D02*
X2410658Y-6997984D01*
X2410658Y-6997984D02*
X2353515Y-6997984D01*
X2353515Y-6997984D02*
X2334467Y-6988460D01*
X2334467Y-6988460D02*
X2324944Y-6978936D01*
X2524944Y-6817031D02*
X2534467Y-6807508D01*
X2534467Y-6807508D02*
X2553515Y-6797984D01*
X2553515Y-6797984D02*
X2601134Y-6797984D01*
X2601134Y-6797984D02*
X2620182Y-6807508D01*
X2620182Y-6807508D02*
X2629705Y-6817031D01*
X2629705Y-6817031D02*
X2639229Y-6836079D01*
X2639229Y-6836079D02*
X2639229Y-6855127D01*
X2639229Y-6855127D02*
X2629705Y-6883698D01*
X2629705Y-6883698D02*
X2515420Y-6997984D01*
X2515420Y-6997984D02*
X2639229Y-6997984D01*
X2763039Y-6797984D02*
X2782086Y-6797984D01*
X2782086Y-6797984D02*
X2801134Y-6807508D01*
X2801134Y-6807508D02*
X2810658Y-6817031D01*
X2810658Y-6817031D02*
X2820182Y-6836079D01*
X2820182Y-6836079D02*
X2829705Y-6874174D01*
X2829705Y-6874174D02*
X2829705Y-6921793D01*
X2829705Y-6921793D02*
X2820182Y-6959888D01*
X2820182Y-6959888D02*
X2810658Y-6978936D01*
X2810658Y-6978936D02*
X2801134Y-6988460D01*
X2801134Y-6988460D02*
X2782086Y-6997984D01*
X2782086Y-6997984D02*
X2763039Y-6997984D01*
X2763039Y-6997984D02*
X2743991Y-6988460D01*
X2743991Y-6988460D02*
X2734467Y-6978936D01*
X2734467Y-6978936D02*
X2724944Y-6959888D01*
X2724944Y-6959888D02*
X2715420Y-6921793D01*
X2715420Y-6921793D02*
X2715420Y-6874174D01*
X2715420Y-6874174D02*
X2724944Y-6836079D01*
X2724944Y-6836079D02*
X2734467Y-6817031D01*
X2734467Y-6817031D02*
X2743991Y-6807508D01*
X2743991Y-6807508D02*
X2763039Y-6797984D01*
X2915420Y-6997984D02*
X2915420Y-6864650D01*
X2915420Y-6883698D02*
X2924943Y-6874174D01*
X2924943Y-6874174D02*
X2943991Y-6864650D01*
X2943991Y-6864650D02*
X2972563Y-6864650D01*
X2972563Y-6864650D02*
X2991610Y-6874174D01*
X2991610Y-6874174D02*
X3001134Y-6893222D01*
X3001134Y-6893222D02*
X3001134Y-6997984D01*
X3001134Y-6893222D02*
X3010658Y-6874174D01*
X3010658Y-6874174D02*
X3029705Y-6864650D01*
X3029705Y-6864650D02*
X3058277Y-6864650D01*
X3058277Y-6864650D02*
X3077324Y-6874174D01*
X3077324Y-6874174D02*
X3086848Y-6893222D01*
X3086848Y-6893222D02*
X3086848Y-6997984D01*
X3182086Y-6997984D02*
X3182086Y-6864650D01*
X3182086Y-6883698D02*
X3191610Y-6874174D01*
X3191610Y-6874174D02*
X3210658Y-6864650D01*
X3210658Y-6864650D02*
X3239229Y-6864650D01*
X3239229Y-6864650D02*
X3258277Y-6874174D01*
X3258277Y-6874174D02*
X3267801Y-6893222D01*
X3267801Y-6893222D02*
X3267801Y-6997984D01*
X3267801Y-6893222D02*
X3277324Y-6874174D01*
X3277324Y-6874174D02*
X3296372Y-6864650D01*
X3296372Y-6864650D02*
X3324943Y-6864650D01*
X3324943Y-6864650D02*
X3343991Y-6874174D01*
X3343991Y-6874174D02*
X3353515Y-6893222D01*
X3353515Y-6893222D02*
X3353515Y-6997984D01*
X3743991Y-6788460D02*
X3572563Y-7045603D01*
X4001134Y-6797984D02*
X4020182Y-6797984D01*
X4020182Y-6797984D02*
X4039229Y-6807508D01*
X4039229Y-6807508D02*
X4048753Y-6817031D01*
X4048753Y-6817031D02*
X4058277Y-6836079D01*
X4058277Y-6836079D02*
X4067801Y-6874174D01*
X4067801Y-6874174D02*
X4067801Y-6921793D01*
X4067801Y-6921793D02*
X4058277Y-6959888D01*
X4058277Y-6959888D02*
X4048753Y-6978936D01*
X4048753Y-6978936D02*
X4039229Y-6988460D01*
X4039229Y-6988460D02*
X4020182Y-6997984D01*
X4020182Y-6997984D02*
X4001134Y-6997984D01*
X4001134Y-6997984D02*
X3982086Y-6988460D01*
X3982086Y-6988460D02*
X3972563Y-6978936D01*
X3972563Y-6978936D02*
X3963039Y-6959888D01*
X3963039Y-6959888D02*
X3953515Y-6921793D01*
X3953515Y-6921793D02*
X3953515Y-6874174D01*
X3953515Y-6874174D02*
X3963039Y-6836079D01*
X3963039Y-6836079D02*
X3972563Y-6817031D01*
X3972563Y-6817031D02*
X3982086Y-6807508D01*
X3982086Y-6807508D02*
X4001134Y-6797984D01*
X4153515Y-6978936D02*
X4163039Y-6988460D01*
X4163039Y-6988460D02*
X4153515Y-6997984D01*
X4153515Y-6997984D02*
X4143991Y-6988460D01*
X4143991Y-6988460D02*
X4153515Y-6978936D01*
X4153515Y-6978936D02*
X4153515Y-6997984D01*
X4286848Y-6797984D02*
X4305896Y-6797984D01*
X4305896Y-6797984D02*
X4324944Y-6807508D01*
X4324944Y-6807508D02*
X4334468Y-6817031D01*
X4334468Y-6817031D02*
X4343991Y-6836079D01*
X4343991Y-6836079D02*
X4353515Y-6874174D01*
X4353515Y-6874174D02*
X4353515Y-6921793D01*
X4353515Y-6921793D02*
X4343991Y-6959888D01*
X4343991Y-6959888D02*
X4334468Y-6978936D01*
X4334468Y-6978936D02*
X4324944Y-6988460D01*
X4324944Y-6988460D02*
X4305896Y-6997984D01*
X4305896Y-6997984D02*
X4286848Y-6997984D01*
X4286848Y-6997984D02*
X4267801Y-6988460D01*
X4267801Y-6988460D02*
X4258277Y-6978936D01*
X4258277Y-6978936D02*
X4248753Y-6959888D01*
X4248753Y-6959888D02*
X4239229Y-6921793D01*
X4239229Y-6921793D02*
X4239229Y-6874174D01*
X4239229Y-6874174D02*
X4248753Y-6836079D01*
X4248753Y-6836079D02*
X4258277Y-6817031D01*
X4258277Y-6817031D02*
X4267801Y-6807508D01*
X4267801Y-6807508D02*
X4286848Y-6797984D01*
X4534468Y-6797984D02*
X4439229Y-6797984D01*
X4439229Y-6797984D02*
X4429706Y-6893222D01*
X4429706Y-6893222D02*
X4439229Y-6883698D01*
X4439229Y-6883698D02*
X4458277Y-6874174D01*
X4458277Y-6874174D02*
X4505896Y-6874174D01*
X4505896Y-6874174D02*
X4524944Y-6883698D01*
X4524944Y-6883698D02*
X4534468Y-6893222D01*
X4534468Y-6893222D02*
X4543991Y-6912269D01*
X4543991Y-6912269D02*
X4543991Y-6959888D01*
X4543991Y-6959888D02*
X4534468Y-6978936D01*
X4534468Y-6978936D02*
X4524944Y-6988460D01*
X4524944Y-6988460D02*
X4505896Y-6997984D01*
X4505896Y-6997984D02*
X4458277Y-6997984D01*
X4458277Y-6997984D02*
X4439229Y-6988460D01*
X4439229Y-6988460D02*
X4429706Y-6978936D01*
X4620182Y-6817031D02*
X4629706Y-6807508D01*
X4629706Y-6807508D02*
X4648753Y-6797984D01*
X4648753Y-6797984D02*
X4696372Y-6797984D01*
X4696372Y-6797984D02*
X4715420Y-6807508D01*
X4715420Y-6807508D02*
X4724944Y-6817031D01*
X4724944Y-6817031D02*
X4734468Y-6836079D01*
X4734468Y-6836079D02*
X4734468Y-6855127D01*
X4734468Y-6855127D02*
X4724944Y-6883698D01*
X4724944Y-6883698D02*
X4610658Y-6997984D01*
X4610658Y-6997984D02*
X4734468Y-6997984D01*
X4858277Y-6797984D02*
X4877325Y-6797984D01*
X4877325Y-6797984D02*
X4896372Y-6807508D01*
X4896372Y-6807508D02*
X4905896Y-6817031D01*
X4905896Y-6817031D02*
X4915420Y-6836079D01*
X4915420Y-6836079D02*
X4924944Y-6874174D01*
X4924944Y-6874174D02*
X4924944Y-6921793D01*
X4924944Y-6921793D02*
X4915420Y-6959888D01*
X4915420Y-6959888D02*
X4905896Y-6978936D01*
X4905896Y-6978936D02*
X4896372Y-6988460D01*
X4896372Y-6988460D02*
X4877325Y-6997984D01*
X4877325Y-6997984D02*
X4858277Y-6997984D01*
X4858277Y-6997984D02*
X4839229Y-6988460D01*
X4839229Y-6988460D02*
X4829706Y-6978936D01*
X4829706Y-6978936D02*
X4820182Y-6959888D01*
X4820182Y-6959888D02*
X4810658Y-6921793D01*
X4810658Y-6921793D02*
X4810658Y-6874174D01*
X4810658Y-6874174D02*
X4820182Y-6836079D01*
X4820182Y-6836079D02*
X4829706Y-6817031D01*
X4829706Y-6817031D02*
X4839229Y-6807508D01*
X4839229Y-6807508D02*
X4858277Y-6797984D01*
X5001134Y-6797984D02*
X5001134Y-6836079D01*
X5077325Y-6797984D02*
X5077325Y-6836079D01*
X5372563Y-7074174D02*
X5363039Y-7064650D01*
X5363039Y-7064650D02*
X5343991Y-7036079D01*
X5343991Y-7036079D02*
X5334468Y-7017031D01*
X5334468Y-7017031D02*
X5324944Y-6988460D01*
X5324944Y-6988460D02*
X5315420Y-6940841D01*
X5315420Y-6940841D02*
X5315420Y-6902746D01*
X5315420Y-6902746D02*
X5324944Y-6855127D01*
X5324944Y-6855127D02*
X5334468Y-6826555D01*
X5334468Y-6826555D02*
X5343991Y-6807508D01*
X5343991Y-6807508D02*
X5363039Y-6778936D01*
X5363039Y-6778936D02*
X5372563Y-6769412D01*
X5534468Y-6864650D02*
X5534468Y-6997984D01*
X5486849Y-6788460D02*
X5439230Y-6931317D01*
X5439230Y-6931317D02*
X5563039Y-6931317D01*
X5791610Y-6997984D02*
X5791610Y-6797984D01*
X5877325Y-6997984D02*
X5877325Y-6893222D01*
X5877325Y-6893222D02*
X5867801Y-6874174D01*
X5867801Y-6874174D02*
X5848753Y-6864650D01*
X5848753Y-6864650D02*
X5820182Y-6864650D01*
X5820182Y-6864650D02*
X5801134Y-6874174D01*
X5801134Y-6874174D02*
X5791610Y-6883698D01*
X6001134Y-6997984D02*
X5982087Y-6988460D01*
X5982087Y-6988460D02*
X5972563Y-6978936D01*
X5972563Y-6978936D02*
X5963039Y-6959888D01*
X5963039Y-6959888D02*
X5963039Y-6902746D01*
X5963039Y-6902746D02*
X5972563Y-6883698D01*
X5972563Y-6883698D02*
X5982087Y-6874174D01*
X5982087Y-6874174D02*
X6001134Y-6864650D01*
X6001134Y-6864650D02*
X6029706Y-6864650D01*
X6029706Y-6864650D02*
X6048753Y-6874174D01*
X6048753Y-6874174D02*
X6058277Y-6883698D01*
X6058277Y-6883698D02*
X6067801Y-6902746D01*
X6067801Y-6902746D02*
X6067801Y-6959888D01*
X6067801Y-6959888D02*
X6058277Y-6978936D01*
X6058277Y-6978936D02*
X6048753Y-6988460D01*
X6048753Y-6988460D02*
X6029706Y-6997984D01*
X6029706Y-6997984D02*
X6001134Y-6997984D01*
X6182087Y-6997984D02*
X6163039Y-6988460D01*
X6163039Y-6988460D02*
X6153515Y-6969412D01*
X6153515Y-6969412D02*
X6153515Y-6797984D01*
X6334468Y-6988460D02*
X6315420Y-6997984D01*
X6315420Y-6997984D02*
X6277325Y-6997984D01*
X6277325Y-6997984D02*
X6258277Y-6988460D01*
X6258277Y-6988460D02*
X6248753Y-6969412D01*
X6248753Y-6969412D02*
X6248753Y-6893222D01*
X6248753Y-6893222D02*
X6258277Y-6874174D01*
X6258277Y-6874174D02*
X6277325Y-6864650D01*
X6277325Y-6864650D02*
X6315420Y-6864650D01*
X6315420Y-6864650D02*
X6334468Y-6874174D01*
X6334468Y-6874174D02*
X6343991Y-6893222D01*
X6343991Y-6893222D02*
X6343991Y-6912269D01*
X6343991Y-6912269D02*
X6248753Y-6931317D01*
X6420182Y-6988460D02*
X6439230Y-6997984D01*
X6439230Y-6997984D02*
X6477325Y-6997984D01*
X6477325Y-6997984D02*
X6496372Y-6988460D01*
X6496372Y-6988460D02*
X6505896Y-6969412D01*
X6505896Y-6969412D02*
X6505896Y-6959888D01*
X6505896Y-6959888D02*
X6496372Y-6940841D01*
X6496372Y-6940841D02*
X6477325Y-6931317D01*
X6477325Y-6931317D02*
X6448753Y-6931317D01*
X6448753Y-6931317D02*
X6429706Y-6921793D01*
X6429706Y-6921793D02*
X6420182Y-6902746D01*
X6420182Y-6902746D02*
X6420182Y-6893222D01*
X6420182Y-6893222D02*
X6429706Y-6874174D01*
X6429706Y-6874174D02*
X6448753Y-6864650D01*
X6448753Y-6864650D02*
X6477325Y-6864650D01*
X6477325Y-6864650D02*
X6496372Y-6874174D01*
X6572563Y-7074174D02*
X6582087Y-7064650D01*
X6582087Y-7064650D02*
X6601134Y-7036079D01*
X6601134Y-7036079D02*
X6610658Y-7017031D01*
X6610658Y-7017031D02*
X6620182Y-6988460D01*
X6620182Y-6988460D02*
X6629706Y-6940841D01*
X6629706Y-6940841D02*
X6629706Y-6902746D01*
X6629706Y-6902746D02*
X6620182Y-6855127D01*
X6620182Y-6855127D02*
X6610658Y-6826555D01*
X6610658Y-6826555D02*
X6601134Y-6807508D01*
X6601134Y-6807508D02*
X6582087Y-6778936D01*
X6582087Y-6778936D02*
X6572563Y-6769412D01*
M02*
