M48
; DRILL file {KiCad 8.0.8} date 2025-10-05T08:52:22-0400
; FORMAT={-:-/ absolute / metric / decimal}
; #@! TF.CreationDate,2025-10-05T08:52:22-04:00
; #@! TF.GenerationSoftware,Kicad,Pcbnew,8.0.8
; #@! TF.FileFunction,Plated,1,2,PTH
FMAT,2
METRIC
; #@! TA.AperFunction,Plated,PTH,ViaDrill
T1C0.300
; #@! TA.AperFunction,Plated,PTH,ComponentDrill
T2C1.320
%
G90
G05
T1
X21.25Y-43.25
X21.25Y-44.25
X21.25Y-45.25
X21.25Y-46.75
X21.25Y-47.75
X21.25Y-48.75
X22.5Y-43.25
X22.5Y-44.25
X22.5Y-45.25
X22.5Y-46.75
X22.5Y-47.75
X22.5Y-48.75
X24.0Y-41.5
X24.0Y-42.25
X24.75Y-37.25
X25.5Y-40.5
X26.0Y-50.0
X26.25Y-37.25
X26.25Y-40.5
X26.675Y-34.675
X26.75Y-55.25
X26.75Y-56.0
X26.75Y-56.75
X27.0Y-37.25
X27.9Y-24.1
X27.9Y-27.9
X28.0Y-32.0
X28.25Y-55.25
X28.25Y-56.0
X28.25Y-56.75
X28.6Y-24.1
X28.6Y-27.9
X29.0Y-18.0
X29.4Y-24.1
X29.4Y-27.9
X29.75Y-55.25
X29.75Y-56.0
X29.75Y-56.75
X30.0Y-32.0
X30.1Y-24.1
X30.1Y-27.9
X31.25Y-34.25
X31.25Y-35.0
X34.0Y-26.75
X34.0Y-34.0
T2
X39.89Y-28.45
X39.89Y-47.55
X112.11Y-28.45
X112.11Y-47.55
M30
