G04 #@! TF.GenerationSoftware,KiCad,Pcbnew,8.0.8*
G04 #@! TF.CreationDate,2025-10-01T20:38:25-04:00*
G04 #@! TF.ProjectId,project-hw-2-18650,70726f6a-6563-4742-9d68-772d322d3138,rev?*
G04 #@! TF.SameCoordinates,Original*
G04 #@! TF.FileFunction,Legend,Top*
G04 #@! TF.FilePolarity,Positive*
%FSLAX46Y46*%
G04 Gerber Fmt 4.6, Leading zero omitted, Abs format (unit mm)*
G04 Created by KiCad (PCBNEW 8.0.8) date 2025-10-01 20:38:25*
%MOMM*%
%LPD*%
G01*
G04 APERTURE LIST*
G04 Aperture macros list*
%AMRoundRect*
0 Rectangle with rounded corners*
0 $1 Rounding radius*
0 $2 $3 $4 $5 $6 $7 $8 $9 X,Y pos of 4 corners*
0 Add a 4 corners polygon primitive as box body*
4,1,4,$2,$3,$4,$5,$6,$7,$8,$9,$2,$3,0*
0 Add four circle primitives for the rounded corners*
1,1,$1+$1,$2,$3*
1,1,$1+$1,$4,$5*
1,1,$1+$1,$6,$7*
1,1,$1+$1,$8,$9*
0 Add four rect primitives between the rounded corners*
20,1,$1+$1,$2,$3,$4,$5,0*
20,1,$1+$1,$4,$5,$6,$7,0*
20,1,$1+$1,$6,$7,$8,$9,0*
20,1,$1+$1,$8,$9,$2,$3,0*%
G04 Aperture macros list end*
%ADD10C,0.100000*%
%ADD11C,0.125000*%
%ADD12C,0.150000*%
%ADD13C,0.120000*%
%ADD14C,0.127000*%
%ADD15C,0.200000*%
%ADD16C,1.500000*%
%ADD17RoundRect,0.150000X0.625000X0.150000X-0.625000X0.150000X-0.625000X-0.150000X0.625000X-0.150000X0*%
%ADD18RoundRect,0.200000X-0.275000X0.200000X-0.275000X-0.200000X0.275000X-0.200000X0.275000X0.200000X0*%
%ADD19R,1.050000X0.650000*%
%ADD20RoundRect,0.225000X-0.250000X0.225000X-0.250000X-0.225000X0.250000X-0.225000X0.250000X0.225000X0*%
%ADD21RoundRect,0.050000X-0.285000X-0.100000X0.285000X-0.100000X0.285000X0.100000X-0.285000X0.100000X0*%
%ADD22RoundRect,0.200000X0.200000X0.275000X-0.200000X0.275000X-0.200000X-0.275000X0.200000X-0.275000X0*%
%ADD23RoundRect,0.475000X-2.075000X0.475000X-2.075000X-0.475000X2.075000X-0.475000X2.075000X0.475000X0*%
%ADD24RoundRect,0.250000X-1.500000X-0.750000X1.500000X-0.750000X1.500000X0.750000X-1.500000X0.750000X0*%
%ADD25RoundRect,0.250000X-2.750000X-0.750000X2.750000X-0.750000X2.750000X0.750000X-2.750000X0.750000X0*%
%ADD26RoundRect,0.250000X0.325000X1.100000X-0.325000X1.100000X-0.325000X-1.100000X0.325000X-1.100000X0*%
%ADD27RoundRect,0.225000X0.225000X0.250000X-0.225000X0.250000X-0.225000X-0.250000X0.225000X-0.250000X0*%
%ADD28RoundRect,0.225000X0.250000X-0.225000X0.250000X0.225000X-0.250000X0.225000X-0.250000X-0.225000X0*%
%ADD29RoundRect,0.250000X-1.100000X0.325000X-1.100000X-0.325000X1.100000X-0.325000X1.100000X0.325000X0*%
G04 APERTURE END LIST*
D10*
G36*
X19284633Y-56942533D02*
G01*
X19472212Y-56942533D01*
X19472212Y-57620551D01*
X19284633Y-57620551D01*
X19284633Y-56942533D01*
G37*
G36*
X19159685Y-49747418D02*
G01*
X19347264Y-49747418D01*
X19347264Y-50329692D01*
X19941263Y-50329692D01*
X19941263Y-50527041D01*
X19347264Y-50527041D01*
X19347264Y-51109316D01*
X19159685Y-51109316D01*
X19159685Y-50527041D01*
X18596950Y-50527041D01*
X18596950Y-50329692D01*
X19159685Y-50329692D01*
X19159685Y-49747418D01*
G37*
X23250000Y-31750000D02*
X29000000Y-31750000D01*
X29000000Y-35250000D01*
X23250000Y-35250000D01*
X23250000Y-31750000D01*
X21500000Y-19750000D02*
X25000000Y-19750000D01*
X25000000Y-28250000D01*
X21500000Y-28250000D01*
X21500000Y-19750000D01*
G36*
X24030495Y-33080000D02*
G01*
X23889811Y-33080000D01*
X23521004Y-32048318D01*
X23661688Y-32048318D01*
X23962840Y-32921486D01*
X24247138Y-32048318D01*
X24386357Y-32048318D01*
X24030495Y-33080000D01*
G37*
G36*
X24574424Y-32861158D02*
G01*
X24586086Y-32909353D01*
X24611262Y-32954043D01*
X24620097Y-32963984D01*
X24664202Y-32989863D01*
X24714861Y-33000030D01*
X24754431Y-33001842D01*
X24804082Y-32998148D01*
X24853532Y-32984256D01*
X24878995Y-32970579D01*
X24914349Y-32934064D01*
X24926133Y-32887536D01*
X24913435Y-32839974D01*
X24899267Y-32823545D01*
X24855684Y-32798855D01*
X24812072Y-32785931D01*
X24702407Y-32759309D01*
X24648942Y-32745429D01*
X24597170Y-32727763D01*
X24550824Y-32705590D01*
X24520202Y-32683838D01*
X24488946Y-32644121D01*
X24472117Y-32593483D01*
X24468911Y-32553656D01*
X24475016Y-32499494D01*
X24493331Y-32451861D01*
X24523857Y-32410759D01*
X24546092Y-32390746D01*
X24587964Y-32364032D01*
X24636156Y-32344951D01*
X24690668Y-32333502D01*
X24743550Y-32329745D01*
X24751500Y-32329685D01*
X24804759Y-32332420D01*
X24858672Y-32342243D01*
X24905166Y-32359211D01*
X24948604Y-32386838D01*
X24982015Y-32422636D01*
X25004761Y-32466007D01*
X25016842Y-32516952D01*
X25018946Y-32548527D01*
X24895115Y-32548527D01*
X24884322Y-32500655D01*
X24851343Y-32463149D01*
X24803506Y-32444342D01*
X24747348Y-32439106D01*
X24697797Y-32443297D01*
X24650406Y-32458777D01*
X24633531Y-32468904D01*
X24600561Y-32506216D01*
X24591277Y-32548527D01*
X24606515Y-32594998D01*
X24623517Y-32611542D01*
X24669129Y-32635096D01*
X24718986Y-32650225D01*
X24727808Y-32652330D01*
X24840160Y-32679197D01*
X24891314Y-32693485D01*
X24939775Y-32712771D01*
X24982336Y-32738187D01*
X24999162Y-32752470D01*
X25029227Y-32792358D01*
X25045416Y-32841313D01*
X25048499Y-32878988D01*
X25043355Y-32929409D01*
X25025269Y-32979673D01*
X24994162Y-33023098D01*
X24966189Y-33048248D01*
X24921478Y-33075817D01*
X24869652Y-33095509D01*
X24818470Y-33106278D01*
X24761841Y-33111016D01*
X24744661Y-33111263D01*
X24693560Y-33109064D01*
X24633000Y-33099295D01*
X24581094Y-33081709D01*
X24537844Y-33056308D01*
X24495953Y-33013565D01*
X24472178Y-32970579D01*
X24457057Y-32919776D01*
X24450593Y-32861158D01*
X24574424Y-32861158D01*
G37*
G36*
X25530837Y-32333395D02*
G01*
X25583652Y-32344523D01*
X25630706Y-32363070D01*
X25684481Y-32399340D01*
X25718091Y-32435198D01*
X25745939Y-32478475D01*
X25768025Y-32529171D01*
X25784350Y-32587285D01*
X25794913Y-32652819D01*
X25799714Y-32725771D01*
X25800034Y-32751737D01*
X25257083Y-32751737D01*
X25261922Y-32805791D01*
X25273508Y-32854136D01*
X25294607Y-32901700D01*
X25316922Y-32933698D01*
X25356688Y-32969633D01*
X25404849Y-32992259D01*
X25455373Y-33001243D01*
X25473726Y-33001842D01*
X25524184Y-32996896D01*
X25574695Y-32978623D01*
X25616207Y-32946887D01*
X25648720Y-32901687D01*
X25666434Y-32861158D01*
X25784647Y-32861158D01*
X25771918Y-32910375D01*
X25750272Y-32960498D01*
X25721054Y-33004088D01*
X25684265Y-33041144D01*
X25679134Y-33045317D01*
X25634896Y-33074168D01*
X25585223Y-33094776D01*
X25537301Y-33106046D01*
X25485219Y-33111005D01*
X25469574Y-33111263D01*
X25413781Y-33107579D01*
X25362538Y-33096528D01*
X25315847Y-33078109D01*
X25273706Y-33052324D01*
X25236117Y-33019171D01*
X25224598Y-33006482D01*
X25194053Y-32964622D01*
X25169827Y-32917628D01*
X25151921Y-32865498D01*
X25140334Y-32808234D01*
X25135507Y-32756591D01*
X25134717Y-32723893D01*
X25136965Y-32669963D01*
X25138569Y-32657948D01*
X25259769Y-32657948D01*
X25674982Y-32657948D01*
X25670403Y-32607999D01*
X25654575Y-32558120D01*
X25627441Y-32514157D01*
X25617096Y-32502121D01*
X25578041Y-32468891D01*
X25532928Y-32447968D01*
X25481756Y-32439352D01*
X25470795Y-32439106D01*
X25418412Y-32444926D01*
X25372087Y-32462386D01*
X25331820Y-32491485D01*
X25324494Y-32498702D01*
X25293405Y-32539755D01*
X25272191Y-32588728D01*
X25261542Y-32639574D01*
X25259769Y-32657948D01*
X25138569Y-32657948D01*
X25143709Y-32619456D01*
X25157737Y-32563365D01*
X25178239Y-32512203D01*
X25205215Y-32465969D01*
X25226796Y-32437885D01*
X25263482Y-32401114D01*
X25304477Y-32371951D01*
X25349783Y-32350396D01*
X25399400Y-32336448D01*
X25453327Y-32330108D01*
X25472260Y-32329685D01*
X25530837Y-32333395D01*
G37*
G36*
X26040369Y-32048318D02*
G01*
X26040369Y-33080000D01*
X25922400Y-33080000D01*
X25922400Y-32048318D01*
X26040369Y-32048318D01*
G37*
D11*
G36*
X22326371Y-27943824D02*
G01*
X22273637Y-27942141D01*
X22221316Y-27937092D01*
X22186664Y-27931856D01*
X22138340Y-27921059D01*
X22088747Y-27905125D01*
X22042561Y-27886182D01*
X21997581Y-27863542D01*
X21952456Y-27835002D01*
X21911891Y-27802651D01*
X21875857Y-27764101D01*
X21847006Y-27721893D01*
X21824221Y-27678073D01*
X21819567Y-27667585D01*
X21801739Y-27617918D01*
X21789745Y-27564811D01*
X21783983Y-27514719D01*
X21782686Y-27475366D01*
X21785571Y-27414991D01*
X21794227Y-27359437D01*
X21808652Y-27308705D01*
X21828848Y-27262794D01*
X21864752Y-27209080D01*
X21910914Y-27163937D01*
X21952267Y-27135705D01*
X21999391Y-27112294D01*
X22052284Y-27093705D01*
X22110949Y-27079937D01*
X22110949Y-27213538D01*
X22059658Y-27227505D01*
X22010130Y-27249751D01*
X21969257Y-27278914D01*
X21946817Y-27302198D01*
X21920370Y-27343873D01*
X21902579Y-27394436D01*
X21894030Y-27446841D01*
X21892107Y-27490753D01*
X21896186Y-27544434D01*
X21908422Y-27593736D01*
X21928815Y-27638658D01*
X21957366Y-27679202D01*
X21994074Y-27715366D01*
X22008122Y-27726448D01*
X22054608Y-27755831D01*
X22107052Y-27779135D01*
X22155308Y-27793911D01*
X22207702Y-27804466D01*
X22264235Y-27810799D01*
X22324905Y-27812909D01*
X22384227Y-27810715D01*
X22439614Y-27804132D01*
X22491064Y-27793160D01*
X22538580Y-27777800D01*
X22590403Y-27753574D01*
X22636559Y-27723028D01*
X22675737Y-27687007D01*
X22706810Y-27646538D01*
X22729776Y-27601621D01*
X22744637Y-27552257D01*
X22751391Y-27498444D01*
X22751842Y-27479518D01*
X22748382Y-27426995D01*
X22735956Y-27373895D01*
X22714494Y-27328183D01*
X22683994Y-27289860D01*
X22679546Y-27285589D01*
X22638299Y-27254494D01*
X22594044Y-27231769D01*
X22542169Y-27213227D01*
X22491639Y-27200665D01*
X22454842Y-27193998D01*
X22454842Y-27058932D01*
X22504057Y-27066019D01*
X22571926Y-27081472D01*
X22632651Y-27102712D01*
X22686232Y-27129740D01*
X22732669Y-27162556D01*
X22771961Y-27201158D01*
X22804110Y-27245549D01*
X22829114Y-27295726D01*
X22846974Y-27351691D01*
X22857691Y-27413444D01*
X22861263Y-27480983D01*
X22859019Y-27532381D01*
X22852287Y-27581062D01*
X22839349Y-27632580D01*
X22825359Y-27670272D01*
X22803538Y-27714611D01*
X22775803Y-27757668D01*
X22741052Y-27797483D01*
X22734256Y-27803872D01*
X22694224Y-27836165D01*
X22649689Y-27864532D01*
X22605296Y-27886915D01*
X22559534Y-27905472D01*
X22510683Y-27921146D01*
X22463391Y-27931856D01*
X22412295Y-27939149D01*
X22360855Y-27943076D01*
X22326371Y-27943824D01*
G37*
G36*
X22830000Y-26336217D02*
G01*
X22830000Y-26441730D01*
X22720090Y-26441730D01*
X22759615Y-26471341D01*
X22795373Y-26505058D01*
X22826949Y-26546652D01*
X22829023Y-26550174D01*
X22848669Y-26595878D01*
X22858712Y-26644049D01*
X22861263Y-26687927D01*
X22857858Y-26738729D01*
X22845891Y-26789459D01*
X22822487Y-26837850D01*
X22806796Y-26858897D01*
X22769049Y-26892643D01*
X22724193Y-26913890D01*
X22672229Y-26922639D01*
X22660983Y-26922889D01*
X22095317Y-26922889D01*
X22095317Y-26806140D01*
X22609204Y-26806140D01*
X22657678Y-26799409D01*
X22702890Y-26774912D01*
X22713007Y-26765352D01*
X22739554Y-26724005D01*
X22750894Y-26675482D01*
X22751842Y-26654221D01*
X22745283Y-26600707D01*
X22725605Y-26554349D01*
X22692808Y-26515146D01*
X22684675Y-26508164D01*
X22643435Y-26481599D01*
X22595279Y-26463728D01*
X22546667Y-26455142D01*
X22506622Y-26453210D01*
X22095317Y-26453210D01*
X22095317Y-26336217D01*
X22830000Y-26336217D01*
G37*
G36*
X22189106Y-25817201D02*
G01*
X22192761Y-25866091D01*
X22202748Y-25915039D01*
X22221392Y-25961274D01*
X22244549Y-25994521D01*
X22286529Y-26025691D01*
X22333301Y-26042315D01*
X22383844Y-26050800D01*
X22434311Y-26053571D01*
X22443363Y-26053628D01*
X22830000Y-26053628D01*
X22830000Y-26171598D01*
X22095317Y-26171598D01*
X22095317Y-26063398D01*
X22220369Y-26063398D01*
X22177398Y-26032133D01*
X22139826Y-25998513D01*
X22112414Y-25965701D01*
X22088922Y-25919469D01*
X22079813Y-25869158D01*
X22079685Y-25862142D01*
X22083349Y-25817201D01*
X22189106Y-25817201D01*
G37*
G36*
X22189106Y-25353140D02*
G01*
X22192761Y-25402030D01*
X22202748Y-25450978D01*
X22221392Y-25497213D01*
X22244549Y-25530460D01*
X22286529Y-25561630D01*
X22333301Y-25578253D01*
X22383844Y-25586738D01*
X22434311Y-25589509D01*
X22443363Y-25589567D01*
X22830000Y-25589567D01*
X22830000Y-25707536D01*
X22095317Y-25707536D01*
X22095317Y-25599337D01*
X22220369Y-25599337D01*
X22177398Y-25568072D01*
X22139826Y-25534451D01*
X22112414Y-25501639D01*
X22088922Y-25455407D01*
X22079813Y-25405097D01*
X22079685Y-25398080D01*
X22083349Y-25353140D01*
X22189106Y-25353140D01*
G37*
G36*
X22501737Y-25163363D02*
G01*
X22555791Y-25158524D01*
X22604136Y-25146938D01*
X22651700Y-25125838D01*
X22683698Y-25103524D01*
X22719633Y-25063758D01*
X22742259Y-25015596D01*
X22751243Y-24965072D01*
X22751842Y-24946720D01*
X22746896Y-24896262D01*
X22728623Y-24845750D01*
X22696887Y-24804238D01*
X22651687Y-24771726D01*
X22611158Y-24754012D01*
X22611158Y-24635799D01*
X22660375Y-24648528D01*
X22710498Y-24670174D01*
X22754088Y-24699391D01*
X22791144Y-24736180D01*
X22795317Y-24741311D01*
X22824168Y-24785550D01*
X22844776Y-24835223D01*
X22856046Y-24883144D01*
X22861005Y-24935227D01*
X22861263Y-24950872D01*
X22857579Y-25006665D01*
X22846528Y-25057907D01*
X22828109Y-25104599D01*
X22802324Y-25146739D01*
X22769171Y-25184329D01*
X22756482Y-25195847D01*
X22714622Y-25226393D01*
X22667628Y-25250619D01*
X22615498Y-25268525D01*
X22558234Y-25280111D01*
X22506591Y-25284939D01*
X22473893Y-25285729D01*
X22419963Y-25283481D01*
X22369456Y-25276737D01*
X22313365Y-25262709D01*
X22262203Y-25242207D01*
X22215969Y-25215230D01*
X22187885Y-25193649D01*
X22151114Y-25156964D01*
X22121951Y-25115969D01*
X22100396Y-25070662D01*
X22086448Y-25021046D01*
X22080108Y-24967119D01*
X22079718Y-24949651D01*
X22189106Y-24949651D01*
X22194926Y-25002034D01*
X22212386Y-25048359D01*
X22241485Y-25088626D01*
X22248702Y-25095952D01*
X22289755Y-25127041D01*
X22338728Y-25148254D01*
X22389574Y-25158904D01*
X22407948Y-25160676D01*
X22407948Y-24745464D01*
X22357999Y-24750042D01*
X22308120Y-24765870D01*
X22264157Y-24793004D01*
X22252121Y-24803349D01*
X22218891Y-24842404D01*
X22197968Y-24887517D01*
X22189352Y-24938689D01*
X22189106Y-24949651D01*
X22079718Y-24949651D01*
X22079685Y-24948185D01*
X22083395Y-24889608D01*
X22094523Y-24836793D01*
X22113070Y-24789740D01*
X22149340Y-24735964D01*
X22185198Y-24702355D01*
X22228475Y-24674507D01*
X22279171Y-24652420D01*
X22337285Y-24636096D01*
X22402819Y-24625533D01*
X22475771Y-24620731D01*
X22501737Y-24620411D01*
X22501737Y-25163363D01*
G37*
G36*
X22095317Y-24498046D02*
G01*
X22095317Y-24389846D01*
X22230383Y-24389846D01*
X22188757Y-24361495D01*
X22150890Y-24328589D01*
X22119429Y-24290684D01*
X22114856Y-24283600D01*
X22093424Y-24237450D01*
X22082468Y-24189050D01*
X22079685Y-24145115D01*
X22083090Y-24094358D01*
X22095057Y-24043789D01*
X22118461Y-23995713D01*
X22134152Y-23974877D01*
X22171570Y-23941389D01*
X22216049Y-23920304D01*
X22267588Y-23911622D01*
X22278743Y-23911374D01*
X22830000Y-23911374D01*
X22830000Y-24028367D01*
X22330767Y-24028367D01*
X22279182Y-24036174D01*
X22235118Y-24061866D01*
X22227697Y-24069155D01*
X22201317Y-24110502D01*
X22190048Y-24159025D01*
X22189106Y-24180286D01*
X22195618Y-24233179D01*
X22215152Y-24279204D01*
X22247710Y-24318359D01*
X22255785Y-24325366D01*
X22301704Y-24354217D01*
X22350292Y-24371047D01*
X22399255Y-24378741D01*
X22432616Y-24380076D01*
X22830000Y-24380076D01*
X22830000Y-24498046D01*
X22095317Y-24498046D01*
G37*
G36*
X22095317Y-23465387D02*
G01*
X22189106Y-23465387D01*
X22189106Y-23586531D01*
X22686629Y-23586531D01*
X22734955Y-23576246D01*
X22738653Y-23573098D01*
X22751829Y-23524149D01*
X22751842Y-23521807D01*
X22747843Y-23472367D01*
X22746224Y-23465387D01*
X22850760Y-23465387D01*
X22858299Y-23513794D01*
X22861263Y-23561130D01*
X22856264Y-23611771D01*
X22836389Y-23659490D01*
X22830976Y-23666643D01*
X22788910Y-23696267D01*
X22744759Y-23703279D01*
X22189106Y-23703279D01*
X22189106Y-23803175D01*
X22095317Y-23803175D01*
X22095317Y-23703279D01*
X21892107Y-23703279D01*
X21892107Y-23586531D01*
X22095317Y-23586531D01*
X22095317Y-23465387D01*
G37*
G36*
X21798318Y-22846475D02*
G01*
X22720579Y-22846475D01*
X22720579Y-22339916D01*
X22830000Y-22339916D01*
X22830000Y-22977145D01*
X21798318Y-22977145D01*
X21798318Y-22846475D01*
G37*
G36*
X22095317Y-22091277D02*
G01*
X22830000Y-22091277D01*
X22830000Y-22208025D01*
X22095317Y-22208025D01*
X22095317Y-22091277D01*
G37*
G36*
X21798318Y-22091277D02*
G01*
X21939002Y-22091277D01*
X21939002Y-22209490D01*
X21798318Y-22209490D01*
X21798318Y-22091277D01*
G37*
G36*
X22095317Y-21907117D02*
G01*
X22095317Y-21798918D01*
X22211088Y-21798918D01*
X22171480Y-21768521D01*
X22136561Y-21733983D01*
X22110704Y-21698290D01*
X22090621Y-21652079D01*
X22081170Y-21603485D01*
X22079685Y-21572505D01*
X22085377Y-21516337D01*
X22102453Y-21467298D01*
X22130911Y-21425389D01*
X22170754Y-21390609D01*
X22198632Y-21373935D01*
X22161514Y-21341564D01*
X22126984Y-21303095D01*
X22106552Y-21271353D01*
X22088186Y-21222647D01*
X22080630Y-21174127D01*
X22079685Y-21147522D01*
X22083820Y-21093430D01*
X22098112Y-21042120D01*
X22125624Y-20996368D01*
X22131953Y-20989253D01*
X22173261Y-20957548D01*
X22220430Y-20940146D01*
X22270714Y-20933783D01*
X22282896Y-20933565D01*
X22830000Y-20933565D01*
X22830000Y-21051779D01*
X22333454Y-21051779D01*
X22282769Y-21057704D01*
X22236909Y-21079268D01*
X22226964Y-21087683D01*
X22198571Y-21130792D01*
X22189254Y-21180333D01*
X22189106Y-21188311D01*
X22196834Y-21239212D01*
X22220018Y-21284207D01*
X22244061Y-21310921D01*
X22284613Y-21339705D01*
X22330706Y-21356542D01*
X22377418Y-21361479D01*
X22830000Y-21361479D01*
X22830000Y-21479448D01*
X22333454Y-21479448D01*
X22282769Y-21485374D01*
X22236909Y-21506937D01*
X22226964Y-21515352D01*
X22198571Y-21558461D01*
X22189254Y-21608002D01*
X22189106Y-21615980D01*
X22196834Y-21666882D01*
X22220018Y-21711876D01*
X22244061Y-21738590D01*
X22284613Y-21767375D01*
X22330706Y-21784211D01*
X22377418Y-21789148D01*
X22830000Y-21789148D01*
X22830000Y-21907117D01*
X22095317Y-21907117D01*
G37*
G36*
X22095317Y-20644382D02*
G01*
X22830000Y-20644382D01*
X22830000Y-20761130D01*
X22095317Y-20761130D01*
X22095317Y-20644382D01*
G37*
G36*
X21798318Y-20644382D02*
G01*
X21939002Y-20644382D01*
X21939002Y-20762595D01*
X21798318Y-20762595D01*
X21798318Y-20644382D01*
G37*
G36*
X22095317Y-20178855D02*
G01*
X22189106Y-20178855D01*
X22189106Y-20300000D01*
X22686629Y-20300000D01*
X22734955Y-20289715D01*
X22738653Y-20286566D01*
X22751829Y-20237617D01*
X22751842Y-20235275D01*
X22747843Y-20185835D01*
X22746224Y-20178855D01*
X22850760Y-20178855D01*
X22858299Y-20227262D01*
X22861263Y-20274598D01*
X22856264Y-20325240D01*
X22836389Y-20372958D01*
X22830976Y-20380111D01*
X22788910Y-20409735D01*
X22744759Y-20416748D01*
X22189106Y-20416748D01*
X22189106Y-20516643D01*
X22095317Y-20516643D01*
X22095317Y-20416748D01*
X21892107Y-20416748D01*
X21892107Y-20300000D01*
X22095317Y-20300000D01*
X22095317Y-20178855D01*
G37*
D12*
X31075000Y-25575000D02*
X26925000Y-25575000D01*
X31075000Y-20425000D02*
X26925000Y-20425000D01*
D13*
X31740000Y-25830000D02*
X31260000Y-25830000D01*
X31500000Y-25500000D01*
X31740000Y-25830000D01*
G36*
X31740000Y-25830000D02*
G01*
X31260000Y-25830000D01*
X31500000Y-25500000D01*
X31740000Y-25830000D01*
G37*
X34522500Y-25262742D02*
X34522500Y-25737258D01*
X33477500Y-25262742D02*
X33477500Y-25737258D01*
D14*
X31100000Y-29620000D02*
X26900000Y-29620000D01*
X31100000Y-27500000D02*
X31100000Y-28500000D01*
X26900000Y-27500000D02*
X26900000Y-28500000D01*
X26900000Y-26380000D02*
X31100000Y-26380000D01*
D15*
X32200000Y-29100000D02*
G75*
G02*
X32000000Y-29100000I-100000J0D01*
G01*
X32000000Y-29100000D02*
G75*
G02*
X32200000Y-29100000I100000J0D01*
G01*
D13*
X23477500Y-24262742D02*
X23477500Y-24737258D01*
X24522500Y-24262742D02*
X24522500Y-24737258D01*
X34522500Y-28762742D02*
X34522500Y-29237258D01*
X33477500Y-28762742D02*
X33477500Y-29237258D01*
X34510000Y-21859420D02*
X34510000Y-22140580D01*
X33490000Y-21859420D02*
X33490000Y-22140580D01*
X27477500Y-33262742D02*
X27477500Y-33737258D01*
X28522500Y-33262742D02*
X28522500Y-33737258D01*
D15*
X114550000Y-57900000D02*
X114550000Y-18100000D01*
X114550000Y-18100000D02*
X37450000Y-18100000D01*
X37450000Y-57900000D02*
X114550000Y-57900000D01*
X37450000Y-18100000D02*
X37450000Y-57900000D01*
D13*
X26240000Y-35840000D02*
X25960000Y-35840000D01*
X26240000Y-35560000D01*
X26240000Y-35840000D01*
G36*
X26240000Y-35840000D02*
G01*
X25960000Y-35840000D01*
X26240000Y-35560000D01*
X26240000Y-35840000D01*
G37*
X27650000Y-38160000D02*
X26350000Y-38160000D01*
X27650000Y-35840000D02*
X26600000Y-35840000D01*
X25737258Y-34772500D02*
X25262742Y-34772500D01*
X25737258Y-33727500D02*
X25262742Y-33727500D01*
X35100000Y-38400000D02*
X34700000Y-38400000D01*
X35100000Y-38400000D02*
X35100000Y-44600000D01*
X28900000Y-38400000D02*
X29300000Y-38400000D01*
X28900000Y-38400000D02*
X28900000Y-44600000D01*
X35100000Y-44600000D02*
X34700000Y-44600000D01*
X28900000Y-44600000D02*
X29300000Y-44600000D01*
D15*
X19500000Y-52000000D02*
G75*
G02*
X19300000Y-52000000I-100000J0D01*
G01*
X19300000Y-52000000D02*
G75*
G02*
X19500000Y-52000000I100000J0D01*
G01*
D14*
X33350000Y-57950000D02*
X33350000Y-57320000D01*
X33350000Y-50680000D02*
X33350000Y-50050000D01*
X33350000Y-50050000D02*
X20650000Y-50050000D01*
X20650000Y-57950000D02*
X33350000Y-57950000D01*
X20650000Y-57950000D02*
X20650000Y-57320000D01*
X20650000Y-50050000D02*
X20650000Y-50680000D01*
D13*
X29490000Y-36359420D02*
X29490000Y-36640580D01*
X30510000Y-36359420D02*
X30510000Y-36640580D01*
X25961252Y-41140000D02*
X24538748Y-41140000D01*
X25961252Y-43860000D02*
X24538748Y-43860000D01*
X26140580Y-39490000D02*
X25859420Y-39490000D01*
X26140580Y-40510000D02*
X25859420Y-40510000D01*
X25961252Y-44390000D02*
X24538748Y-44390000D01*
X25961252Y-47110000D02*
X24538748Y-47110000D01*
X30510000Y-33640580D02*
X30510000Y-33359420D01*
X29490000Y-33640580D02*
X29490000Y-33359420D01*
X25010000Y-37359420D02*
X25010000Y-37640580D01*
X23990000Y-37359420D02*
X23990000Y-37640580D01*
X20640000Y-37538748D02*
X20640000Y-38961252D01*
X23360000Y-37538748D02*
X23360000Y-38961252D01*
%LPC*%
G36*
X28500000Y-17000000D02*
G01*
X29500000Y-17000000D01*
X29500000Y-20000000D01*
X28500000Y-20000000D01*
X28500000Y-17000000D01*
G37*
D16*
X30250000Y-18500000D02*
G75*
G02*
X28750000Y-18500000I-750000J0D01*
G01*
X28750000Y-18500000D02*
G75*
G02*
X30250000Y-18500000I750000J0D01*
G01*
X29250000Y-18500000D02*
G75*
G02*
X27750000Y-18500000I-750000J0D01*
G01*
X27750000Y-18500000D02*
G75*
G02*
X29250000Y-18500000I750000J0D01*
G01*
D17*
X31700000Y-24905000D03*
X31700000Y-23635000D03*
X31700000Y-22365000D03*
X31700000Y-21095000D03*
X26300000Y-21095000D03*
X26300000Y-22365000D03*
X26300000Y-23635000D03*
X26300000Y-24905000D03*
D18*
X34000000Y-24675000D03*
X34000000Y-26325000D03*
D19*
X31075000Y-29075000D03*
X26925000Y-29075000D03*
X31075000Y-26925000D03*
X26925000Y-26925000D03*
D18*
X24000000Y-25325000D03*
X24000000Y-23675000D03*
X34000000Y-28175000D03*
X34000000Y-29825000D03*
D20*
X34000000Y-21225000D03*
X34000000Y-22775000D03*
D18*
X28000000Y-34325000D03*
X28000000Y-32675000D03*
D21*
X27740000Y-36250000D03*
X27740000Y-36750000D03*
X27740000Y-37250000D03*
X27740000Y-37750000D03*
X26260000Y-37750000D03*
X26260000Y-37250000D03*
X26260000Y-36750000D03*
X26260000Y-36250000D03*
D22*
X26325000Y-34250000D03*
X24675000Y-34250000D03*
D23*
X32000000Y-39400000D03*
X32000000Y-43600000D03*
D24*
X32250000Y-56000000D03*
D25*
X23000000Y-56000000D03*
D24*
X32250000Y-52000000D03*
D25*
X23000000Y-52000000D03*
D20*
X30000000Y-37275000D03*
X30000000Y-35725000D03*
D26*
X23775000Y-42500000D03*
X26725000Y-42500000D03*
D27*
X25225000Y-40000000D03*
X26775000Y-40000000D03*
D26*
X23775000Y-45750000D03*
X26725000Y-45750000D03*
D28*
X30000000Y-32725000D03*
X30000000Y-34275000D03*
D20*
X24500000Y-36725000D03*
X24500000Y-38275000D03*
D29*
X22000000Y-39725000D03*
X22000000Y-36775000D03*
%LPD*%
M02*
