G04 #@! TF.GenerationSoftware,KiCad,Pcbnew,8.0.8*
G04 #@! TF.CreationDate,2025-10-04T11:50:27-04:00*
G04 #@! TF.ProjectId,project-hw-2-18650,70726f6a-6563-4742-9d68-772d322d3138,rev?*
G04 #@! TF.SameCoordinates,Original*
G04 #@! TF.FileFunction,Copper,L2,Bot*
G04 #@! TF.FilePolarity,Positive*
%FSLAX46Y46*%
G04 Gerber Fmt 4.6, Leading zero omitted, Abs format (unit mm)*
G04 Created by KiCad (PCBNEW 8.0.8) date 2025-10-04 11:50:27*
%MOMM*%
%LPD*%
G01*
G04 APERTURE LIST*
G04 #@! TA.AperFunction,ComponentPad*
%ADD10C,2.500000*%
G04 #@! TD*
G04 #@! TA.AperFunction,ViaPad*
%ADD11C,0.600000*%
G04 #@! TD*
G04 #@! TA.AperFunction,Conductor*
%ADD12C,0.200000*%
G04 #@! TD*
G04 APERTURE END LIST*
D10*
X39890000Y-28450000D03*
X112110000Y-28450000D03*
X39890000Y-47550000D03*
X112110000Y-47550000D03*
D11*
X29000000Y-18000000D03*
X34000000Y-26750000D03*
X28600000Y-24100000D03*
X29400000Y-24100000D03*
X30100000Y-24100000D03*
X27900000Y-24100000D03*
X28600000Y-27900000D03*
X29400000Y-27900000D03*
X30100000Y-27900000D03*
X27900000Y-27900000D03*
X34000000Y-34000000D03*
X30000000Y-32000000D03*
X28000000Y-32000000D03*
X28250000Y-56750000D03*
X28250000Y-56000000D03*
X28250000Y-55250000D03*
X29750000Y-56750000D03*
X29750000Y-56000000D03*
X29750000Y-55250000D03*
X26750000Y-56000000D03*
X26750000Y-56750000D03*
X26750000Y-55250000D03*
X24750000Y-37250000D03*
X26000000Y-50000000D03*
X26675000Y-34675000D03*
X31250000Y-35000000D03*
X31250000Y-34250000D03*
X26250000Y-40500000D03*
X25500000Y-40500000D03*
X26250000Y-37250000D03*
X27000000Y-37250000D03*
X24000000Y-42250000D03*
X24000000Y-41500000D03*
X21250000Y-48750000D03*
X21250000Y-47750000D03*
X21250000Y-46750000D03*
X21250000Y-45250000D03*
X21250000Y-44250000D03*
X22500000Y-48750000D03*
X22500000Y-47750000D03*
X22500000Y-46750000D03*
X22500000Y-45250000D03*
X22500000Y-44250000D03*
X22500000Y-43250000D03*
X21250000Y-43250000D03*
D12*
X26675000Y-34675000D02*
X26000000Y-34000000D01*
X20250000Y-50000000D02*
X26000000Y-50000000D01*
X26000000Y-34000000D02*
X21000000Y-34000000D01*
X21000000Y-34000000D02*
X19000000Y-36000000D01*
X19000000Y-36000000D02*
X19000000Y-48750000D01*
X19000000Y-48750000D02*
X20250000Y-50000000D01*
G04 #@! TA.AperFunction,Conductor*
G36*
X112006106Y-16500800D02*
G01*
X112021022Y-16501532D01*
X112330804Y-16516751D01*
X112355095Y-16519143D01*
X112670633Y-16565949D01*
X112694568Y-16570710D01*
X113004002Y-16648219D01*
X113027360Y-16655305D01*
X113327684Y-16762763D01*
X113350259Y-16772114D01*
X113638589Y-16908484D01*
X113660138Y-16920001D01*
X113933735Y-17083989D01*
X113954037Y-17097554D01*
X114169913Y-17257659D01*
X114210235Y-17287564D01*
X114229121Y-17303063D01*
X114465465Y-17517273D01*
X114482726Y-17534534D01*
X114696934Y-17770876D01*
X114712435Y-17789764D01*
X114902440Y-18045955D01*
X114916017Y-18066274D01*
X115079997Y-18339860D01*
X115091515Y-18361410D01*
X115227885Y-18649740D01*
X115237236Y-18672315D01*
X115344690Y-18972626D01*
X115351784Y-18996010D01*
X115429286Y-19305416D01*
X115434053Y-19329382D01*
X115480854Y-19644889D01*
X115483249Y-19669207D01*
X115499200Y-19993893D01*
X115499500Y-20006111D01*
X115499500Y-55993888D01*
X115499200Y-56006106D01*
X115483249Y-56330792D01*
X115480854Y-56355110D01*
X115434053Y-56670617D01*
X115429286Y-56694583D01*
X115351784Y-57003989D01*
X115344690Y-57027373D01*
X115237236Y-57327684D01*
X115227885Y-57350259D01*
X115091515Y-57638589D01*
X115079997Y-57660139D01*
X114916017Y-57933725D01*
X114902440Y-57954044D01*
X114712435Y-58210235D01*
X114696934Y-58229123D01*
X114482735Y-58465456D01*
X114465456Y-58482735D01*
X114229123Y-58696934D01*
X114210235Y-58712435D01*
X113954044Y-58902440D01*
X113933725Y-58916017D01*
X113660139Y-59079997D01*
X113638589Y-59091515D01*
X113350259Y-59227885D01*
X113327684Y-59237236D01*
X113027373Y-59344690D01*
X113003989Y-59351784D01*
X112694583Y-59429286D01*
X112670617Y-59434053D01*
X112355110Y-59480854D01*
X112330792Y-59483249D01*
X112006107Y-59499200D01*
X111993889Y-59499500D01*
X22006111Y-59499500D01*
X21993893Y-59499200D01*
X21669207Y-59483249D01*
X21644889Y-59480854D01*
X21329382Y-59434053D01*
X21305416Y-59429286D01*
X20996010Y-59351784D01*
X20972626Y-59344690D01*
X20672315Y-59237236D01*
X20649740Y-59227885D01*
X20361410Y-59091515D01*
X20339860Y-59079997D01*
X20203673Y-58998370D01*
X20066268Y-58916013D01*
X20045955Y-58902440D01*
X19789764Y-58712435D01*
X19770876Y-58696934D01*
X19534534Y-58482726D01*
X19517273Y-58465465D01*
X19303063Y-58229121D01*
X19287564Y-58210235D01*
X19097559Y-57954044D01*
X19083989Y-57933735D01*
X18920001Y-57660138D01*
X18908484Y-57638589D01*
X18772114Y-57350259D01*
X18762763Y-57327684D01*
X18760198Y-57320514D01*
X18655305Y-57027360D01*
X18648219Y-57004002D01*
X18570710Y-56694568D01*
X18565949Y-56670633D01*
X18519143Y-56355095D01*
X18516751Y-56330804D01*
X18500800Y-56006105D01*
X18500500Y-55993888D01*
X18500500Y-55367242D01*
X46374500Y-55367242D01*
X46374500Y-55632757D01*
X46409156Y-55895998D01*
X46477878Y-56152476D01*
X46579483Y-56397772D01*
X46579485Y-56397776D01*
X46579486Y-56397778D01*
X46712245Y-56627722D01*
X46712247Y-56627725D01*
X46712248Y-56627726D01*
X46873873Y-56838361D01*
X46873877Y-56838365D01*
X46873881Y-56838370D01*
X47061630Y-57026119D01*
X47061634Y-57026122D01*
X47061638Y-57026126D01*
X47238693Y-57161985D01*
X47272278Y-57187755D01*
X47502222Y-57320514D01*
X47502227Y-57320516D01*
X47747523Y-57422121D01*
X47747527Y-57422122D01*
X48003997Y-57490843D01*
X48267242Y-57525500D01*
X48532758Y-57525500D01*
X48796003Y-57490843D01*
X49052473Y-57422122D01*
X49052474Y-57422121D01*
X49052476Y-57422121D01*
X49134241Y-57388252D01*
X49297778Y-57320514D01*
X49527722Y-57187755D01*
X49738370Y-57026119D01*
X49926119Y-56838370D01*
X50087755Y-56627722D01*
X50220514Y-56397778D01*
X50322122Y-56152473D01*
X50390843Y-55896003D01*
X50425500Y-55632758D01*
X50425500Y-55385847D01*
X110659500Y-55385847D01*
X110659500Y-55614152D01*
X110659501Y-55614168D01*
X110695215Y-55839656D01*
X110695216Y-55839660D01*
X110713523Y-55896003D01*
X110765767Y-56056794D01*
X110765769Y-56056799D01*
X110869418Y-56260224D01*
X110869419Y-56260224D01*
X110869421Y-56260228D01*
X111003621Y-56444937D01*
X111165063Y-56606379D01*
X111349772Y-56740579D01*
X111349774Y-56740580D01*
X111349775Y-56740581D01*
X111449473Y-56791379D01*
X111553201Y-56844231D01*
X111770340Y-56914784D01*
X111995843Y-56950500D01*
X111995847Y-56950500D01*
X112224153Y-56950500D01*
X112224157Y-56950500D01*
X112449660Y-56914784D01*
X112666799Y-56844231D01*
X112870228Y-56740579D01*
X113054937Y-56606379D01*
X113216379Y-56444937D01*
X113350579Y-56260228D01*
X113454231Y-56056799D01*
X113524784Y-55839660D01*
X113560500Y-55614157D01*
X113560500Y-55385843D01*
X113524784Y-55160340D01*
X113454231Y-54943201D01*
X113350579Y-54739772D01*
X113216379Y-54555063D01*
X113054937Y-54393621D01*
X112870228Y-54259421D01*
X112870224Y-54259419D01*
X112870224Y-54259418D01*
X112666799Y-54155769D01*
X112666794Y-54155767D01*
X112546048Y-54116534D01*
X112449660Y-54085216D01*
X112449658Y-54085215D01*
X112449656Y-54085215D01*
X112224168Y-54049501D01*
X112224159Y-54049500D01*
X112224157Y-54049500D01*
X111995843Y-54049500D01*
X111995840Y-54049500D01*
X111995831Y-54049501D01*
X111770343Y-54085215D01*
X111553205Y-54155767D01*
X111553200Y-54155769D01*
X111349775Y-54259418D01*
X111349774Y-54259419D01*
X111349772Y-54259421D01*
X111266083Y-54320225D01*
X111165065Y-54393619D01*
X111003619Y-54555065D01*
X110869420Y-54739774D01*
X110869418Y-54739775D01*
X110765769Y-54943200D01*
X110765767Y-54943205D01*
X110695215Y-55160343D01*
X110659501Y-55385831D01*
X110659500Y-55385847D01*
X50425500Y-55385847D01*
X50425500Y-55367242D01*
X50390843Y-55103997D01*
X50322122Y-54847527D01*
X50322121Y-54847523D01*
X50220516Y-54602227D01*
X50220514Y-54602223D01*
X50220514Y-54602222D01*
X50087755Y-54372278D01*
X50001156Y-54259420D01*
X49926126Y-54161638D01*
X49926122Y-54161634D01*
X49926119Y-54161630D01*
X49738370Y-53973881D01*
X49738365Y-53973877D01*
X49738361Y-53973873D01*
X49527726Y-53812248D01*
X49527725Y-53812247D01*
X49527722Y-53812245D01*
X49297778Y-53679486D01*
X49297776Y-53679485D01*
X49297772Y-53679483D01*
X49052476Y-53577878D01*
X48906416Y-53538742D01*
X48796003Y-53509157D01*
X48795998Y-53509156D01*
X48795999Y-53509156D01*
X48532758Y-53474500D01*
X48267242Y-53474500D01*
X48004001Y-53509156D01*
X47747523Y-53577878D01*
X47502227Y-53679483D01*
X47502223Y-53679485D01*
X47272273Y-53812248D01*
X47061638Y-53973873D01*
X46873873Y-54161638D01*
X46712248Y-54372273D01*
X46579485Y-54602223D01*
X46579483Y-54602227D01*
X46477878Y-54847523D01*
X46409156Y-55104001D01*
X46374500Y-55367242D01*
X18500500Y-55367242D01*
X18500500Y-49700875D01*
X18519454Y-49605587D01*
X18573430Y-49524805D01*
X18654212Y-49470829D01*
X18749500Y-49451875D01*
X18844788Y-49470829D01*
X18925570Y-49524805D01*
X19769478Y-50368713D01*
X19769480Y-50368716D01*
X19881284Y-50480520D01*
X19968091Y-50530637D01*
X19968094Y-50530639D01*
X20018215Y-50559577D01*
X20170943Y-50600501D01*
X20344318Y-50600501D01*
X20344334Y-50600500D01*
X25379346Y-50600500D01*
X25474634Y-50619454D01*
X25511822Y-50638666D01*
X25650471Y-50725785D01*
X25650472Y-50725785D01*
X25650478Y-50725789D01*
X25820745Y-50785368D01*
X25820754Y-50785369D01*
X25999996Y-50805565D01*
X26000000Y-50805565D01*
X26000004Y-50805565D01*
X26139908Y-50789801D01*
X26179255Y-50785368D01*
X26349522Y-50725789D01*
X26349527Y-50725785D01*
X26349529Y-50725785D01*
X26502257Y-50629819D01*
X26502256Y-50629819D01*
X26502262Y-50629816D01*
X26629816Y-50502262D01*
X26713729Y-50368716D01*
X26725785Y-50349529D01*
X26725785Y-50349527D01*
X26725789Y-50349522D01*
X26785368Y-50179255D01*
X26805565Y-50000000D01*
X26785368Y-49820745D01*
X26725789Y-49650478D01*
X26725786Y-49650473D01*
X26725785Y-49650470D01*
X26629819Y-49497742D01*
X26629817Y-49497740D01*
X26629816Y-49497738D01*
X26502262Y-49370184D01*
X26502259Y-49370182D01*
X26502257Y-49370180D01*
X26349529Y-49274214D01*
X26349524Y-49274212D01*
X26349522Y-49274211D01*
X26179255Y-49214632D01*
X26179251Y-49214631D01*
X26179245Y-49214630D01*
X26000004Y-49194435D01*
X25999996Y-49194435D01*
X25820754Y-49214630D01*
X25820746Y-49214631D01*
X25820745Y-49214632D01*
X25650478Y-49274211D01*
X25650476Y-49274211D01*
X25650476Y-49274212D01*
X25650471Y-49274214D01*
X25511822Y-49361334D01*
X25421055Y-49395982D01*
X25379346Y-49399500D01*
X20601875Y-49399500D01*
X20506587Y-49380546D01*
X20425805Y-49326570D01*
X19673430Y-48574195D01*
X19619454Y-48493413D01*
X19600500Y-48398125D01*
X19600500Y-47550000D01*
X38135093Y-47550000D01*
X38154694Y-47811558D01*
X38213058Y-48067267D01*
X38308883Y-48311425D01*
X38308885Y-48311430D01*
X38440028Y-48538574D01*
X38487873Y-48598570D01*
X39281303Y-47805139D01*
X39305116Y-47862627D01*
X39377345Y-47970725D01*
X39469275Y-48062655D01*
X39577373Y-48134884D01*
X39634857Y-48158695D01*
X38840832Y-48952721D01*
X39012541Y-49069791D01*
X39012555Y-49069798D01*
X39248853Y-49183594D01*
X39248858Y-49183596D01*
X39499489Y-49260906D01*
X39758854Y-49300000D01*
X40021146Y-49300000D01*
X40280510Y-49260906D01*
X40531141Y-49183596D01*
X40531147Y-49183594D01*
X40767443Y-49069800D01*
X40767451Y-49069795D01*
X40939166Y-48952721D01*
X40145140Y-48158695D01*
X40202627Y-48134884D01*
X40310725Y-48062655D01*
X40402655Y-47970725D01*
X40474884Y-47862627D01*
X40498695Y-47805140D01*
X41292125Y-48598570D01*
X41339970Y-48538575D01*
X41471114Y-48311430D01*
X41471116Y-48311425D01*
X41566941Y-48067267D01*
X41625305Y-47811558D01*
X41644906Y-47550000D01*
X110354592Y-47550000D01*
X110374197Y-47811625D01*
X110374198Y-47811629D01*
X110432578Y-48067412D01*
X110528428Y-48311635D01*
X110528436Y-48311651D01*
X110659612Y-48538855D01*
X110823194Y-48743980D01*
X110823205Y-48743991D01*
X111015520Y-48922432D01*
X111232292Y-49070226D01*
X111232294Y-49070227D01*
X111232296Y-49070228D01*
X111371838Y-49137428D01*
X111468668Y-49184059D01*
X111468669Y-49184059D01*
X111468677Y-49184063D01*
X111719385Y-49261396D01*
X111978818Y-49300500D01*
X111978822Y-49300500D01*
X112241178Y-49300500D01*
X112241182Y-49300500D01*
X112500615Y-49261396D01*
X112751323Y-49184063D01*
X112987704Y-49070228D01*
X113204479Y-48922433D01*
X113396805Y-48743981D01*
X113560386Y-48538857D01*
X113691568Y-48311643D01*
X113787420Y-48067416D01*
X113845802Y-47811630D01*
X113865408Y-47550000D01*
X113845802Y-47288370D01*
X113787420Y-47032584D01*
X113691568Y-46788357D01*
X113560386Y-46561143D01*
X113396805Y-46356019D01*
X113396794Y-46356008D01*
X113204479Y-46177567D01*
X112987707Y-46029773D01*
X112987702Y-46029771D01*
X112751331Y-45915940D01*
X112751326Y-45915938D01*
X112751323Y-45915937D01*
X112500615Y-45838604D01*
X112241182Y-45799500D01*
X111978818Y-45799500D01*
X111771271Y-45830783D01*
X111719384Y-45838604D01*
X111574107Y-45883416D01*
X111468677Y-45915937D01*
X111468675Y-45915937D01*
X111468668Y-45915940D01*
X111232297Y-46029771D01*
X111232292Y-46029773D01*
X111015520Y-46177567D01*
X110823205Y-46356008D01*
X110823194Y-46356019D01*
X110659612Y-46561144D01*
X110528436Y-46788348D01*
X110528428Y-46788364D01*
X110432578Y-47032587D01*
X110374198Y-47288370D01*
X110374197Y-47288374D01*
X110354592Y-47550000D01*
X41644906Y-47550000D01*
X41625305Y-47288441D01*
X41566941Y-47032732D01*
X41471116Y-46788574D01*
X41471112Y-46788565D01*
X41339972Y-46561427D01*
X41339966Y-46561418D01*
X41292124Y-46501427D01*
X40498694Y-47294857D01*
X40474884Y-47237373D01*
X40402655Y-47129275D01*
X40310725Y-47037345D01*
X40202627Y-46965116D01*
X40145139Y-46941304D01*
X40939166Y-46147277D01*
X40767457Y-46030207D01*
X40767452Y-46030205D01*
X40531146Y-45916405D01*
X40531141Y-45916403D01*
X40280510Y-45839093D01*
X40021146Y-45800000D01*
X39758854Y-45800000D01*
X39499489Y-45839093D01*
X39248858Y-45916403D01*
X39012551Y-46030204D01*
X39012545Y-46030207D01*
X38840832Y-46147278D01*
X39634858Y-46941304D01*
X39577373Y-46965116D01*
X39469275Y-47037345D01*
X39377345Y-47129275D01*
X39305116Y-47237373D01*
X39281304Y-47294859D01*
X38487873Y-46501428D01*
X38440028Y-46561425D01*
X38308885Y-46788569D01*
X38308883Y-46788574D01*
X38213058Y-47032732D01*
X38154694Y-47288441D01*
X38135093Y-47550000D01*
X19600500Y-47550000D01*
X19600500Y-37879367D01*
X46559500Y-37879367D01*
X46559500Y-38120632D01*
X46590991Y-38359830D01*
X46653436Y-38592880D01*
X46745758Y-38815768D01*
X46745766Y-38815784D01*
X46866391Y-39024711D01*
X46866397Y-39024721D01*
X47013270Y-39216130D01*
X47183870Y-39386730D01*
X47375279Y-39533603D01*
X47375288Y-39533608D01*
X47584215Y-39654233D01*
X47584231Y-39654241D01*
X47769971Y-39731176D01*
X47807121Y-39746564D01*
X48040166Y-39809008D01*
X48279367Y-39840500D01*
X48520633Y-39840500D01*
X48759834Y-39809008D01*
X48992879Y-39746564D01*
X49119710Y-39694028D01*
X49215768Y-39654241D01*
X49215773Y-39654238D01*
X49215779Y-39654236D01*
X49424721Y-39533603D01*
X49616130Y-39386730D01*
X49786730Y-39216130D01*
X49933603Y-39024721D01*
X50054236Y-38815779D01*
X50146564Y-38592879D01*
X50209008Y-38359834D01*
X50240500Y-38120633D01*
X50240500Y-37879367D01*
X101759500Y-37879367D01*
X101759500Y-38120632D01*
X101790991Y-38359830D01*
X101853436Y-38592880D01*
X101945758Y-38815768D01*
X101945766Y-38815784D01*
X102066391Y-39024711D01*
X102066397Y-39024721D01*
X102213270Y-39216130D01*
X102383870Y-39386730D01*
X102575279Y-39533603D01*
X102575288Y-39533608D01*
X102784215Y-39654233D01*
X102784231Y-39654241D01*
X102969971Y-39731176D01*
X103007121Y-39746564D01*
X103240166Y-39809008D01*
X103479367Y-39840500D01*
X103720633Y-39840500D01*
X103959834Y-39809008D01*
X104192879Y-39746564D01*
X104319710Y-39694028D01*
X104415768Y-39654241D01*
X104415773Y-39654238D01*
X104415779Y-39654236D01*
X104624721Y-39533603D01*
X104816130Y-39386730D01*
X104986730Y-39216130D01*
X105133603Y-39024721D01*
X105254236Y-38815779D01*
X105346564Y-38592879D01*
X105409008Y-38359834D01*
X105440500Y-38120633D01*
X105440500Y-37879367D01*
X105409008Y-37640166D01*
X105346564Y-37407121D01*
X105331176Y-37369971D01*
X105254241Y-37184231D01*
X105254233Y-37184215D01*
X105133608Y-36975288D01*
X105133602Y-36975278D01*
X104986730Y-36783870D01*
X104816130Y-36613270D01*
X104624721Y-36466397D01*
X104624711Y-36466391D01*
X104415784Y-36345766D01*
X104415768Y-36345758D01*
X104192880Y-36253436D01*
X104121565Y-36234327D01*
X103959834Y-36190992D01*
X103959829Y-36190991D01*
X103959832Y-36190991D01*
X103720633Y-36159500D01*
X103479367Y-36159500D01*
X103240169Y-36190991D01*
X103007119Y-36253436D01*
X102784231Y-36345758D01*
X102784215Y-36345766D01*
X102575288Y-36466391D01*
X102575278Y-36466397D01*
X102383870Y-36613270D01*
X102383866Y-36613273D01*
X102213273Y-36783866D01*
X102213270Y-36783870D01*
X102066397Y-36975278D01*
X102066391Y-36975288D01*
X101945766Y-37184215D01*
X101945758Y-37184231D01*
X101853436Y-37407119D01*
X101790991Y-37640169D01*
X101759500Y-37879367D01*
X50240500Y-37879367D01*
X50209008Y-37640166D01*
X50146564Y-37407121D01*
X50131176Y-37369971D01*
X50054241Y-37184231D01*
X50054233Y-37184215D01*
X49933608Y-36975288D01*
X49933602Y-36975278D01*
X49786730Y-36783870D01*
X49616130Y-36613270D01*
X49424721Y-36466397D01*
X49424711Y-36466391D01*
X49215784Y-36345766D01*
X49215768Y-36345758D01*
X48992880Y-36253436D01*
X48921565Y-36234327D01*
X48759834Y-36190992D01*
X48759829Y-36190991D01*
X48759832Y-36190991D01*
X48520633Y-36159500D01*
X48279367Y-36159500D01*
X48040169Y-36190991D01*
X47807119Y-36253436D01*
X47584231Y-36345758D01*
X47584215Y-36345766D01*
X47375288Y-36466391D01*
X47375278Y-36466397D01*
X47183870Y-36613270D01*
X47183866Y-36613273D01*
X47013273Y-36783866D01*
X47013270Y-36783870D01*
X46866397Y-36975278D01*
X46866391Y-36975288D01*
X46745766Y-37184215D01*
X46745758Y-37184231D01*
X46653436Y-37407119D01*
X46590991Y-37640169D01*
X46559500Y-37879367D01*
X19600500Y-37879367D01*
X19600500Y-36351875D01*
X19619454Y-36256587D01*
X19673430Y-36175805D01*
X21175805Y-34673430D01*
X21256587Y-34619454D01*
X21351875Y-34600500D01*
X25638521Y-34600500D01*
X25733809Y-34619454D01*
X25814591Y-34673430D01*
X25868567Y-34754212D01*
X25885954Y-34821619D01*
X25887609Y-34836302D01*
X25889631Y-34854253D01*
X25889632Y-34854255D01*
X25949211Y-35024522D01*
X25949212Y-35024523D01*
X25949214Y-35024529D01*
X26045180Y-35177257D01*
X26045182Y-35177259D01*
X26045184Y-35177262D01*
X26172738Y-35304816D01*
X26172740Y-35304817D01*
X26172742Y-35304819D01*
X26325470Y-35400785D01*
X26325473Y-35400786D01*
X26325478Y-35400789D01*
X26495745Y-35460368D01*
X26495754Y-35460369D01*
X26674996Y-35480565D01*
X26675000Y-35480565D01*
X26675004Y-35480565D01*
X26814908Y-35464801D01*
X26854255Y-35460368D01*
X27024522Y-35400789D01*
X27024527Y-35400785D01*
X27024529Y-35400785D01*
X27177257Y-35304819D01*
X27177256Y-35304819D01*
X27177262Y-35304816D01*
X27304816Y-35177262D01*
X27400789Y-35024522D01*
X27460368Y-34854255D01*
X27480565Y-34675000D01*
X27480388Y-34673430D01*
X27460369Y-34495754D01*
X27460368Y-34495745D01*
X27400789Y-34325478D01*
X27400786Y-34325473D01*
X27400785Y-34325470D01*
X27304819Y-34172742D01*
X27304817Y-34172740D01*
X27304816Y-34172738D01*
X27177262Y-34045184D01*
X27177259Y-34045182D01*
X27177257Y-34045180D01*
X27024529Y-33949214D01*
X27024524Y-33949212D01*
X27024522Y-33949211D01*
X26854255Y-33889632D01*
X26854251Y-33889631D01*
X26854245Y-33889630D01*
X26810798Y-33884735D01*
X26718231Y-33855232D01*
X26662606Y-33813371D01*
X26480521Y-33631286D01*
X26480520Y-33631284D01*
X26368716Y-33519480D01*
X26281906Y-33469361D01*
X26281903Y-33469358D01*
X26231784Y-33440422D01*
X26231781Y-33440421D01*
X26079057Y-33399499D01*
X25920943Y-33399499D01*
X25905682Y-33399499D01*
X25905666Y-33399500D01*
X20920943Y-33399500D01*
X20768214Y-33440422D01*
X20718096Y-33469358D01*
X20718095Y-33469360D01*
X20631284Y-33519480D01*
X20631283Y-33519481D01*
X20631280Y-33519483D01*
X20519479Y-33631283D01*
X20519480Y-33631284D01*
X18925570Y-35225194D01*
X18844788Y-35279170D01*
X18749500Y-35298124D01*
X18654212Y-35279170D01*
X18573430Y-35225194D01*
X18519454Y-35144412D01*
X18500500Y-35049124D01*
X18500500Y-28450000D01*
X38134592Y-28450000D01*
X38154197Y-28711625D01*
X38154198Y-28711629D01*
X38212578Y-28967412D01*
X38308428Y-29211635D01*
X38308436Y-29211651D01*
X38439612Y-29438855D01*
X38603194Y-29643980D01*
X38603205Y-29643991D01*
X38795520Y-29822432D01*
X39012292Y-29970226D01*
X39012294Y-29970227D01*
X39012296Y-29970228D01*
X39151838Y-30037428D01*
X39248668Y-30084059D01*
X39248669Y-30084059D01*
X39248677Y-30084063D01*
X39499385Y-30161396D01*
X39758818Y-30200500D01*
X39758822Y-30200500D01*
X40021178Y-30200500D01*
X40021182Y-30200500D01*
X40280615Y-30161396D01*
X40531323Y-30084063D01*
X40767704Y-29970228D01*
X40984479Y-29822433D01*
X41176805Y-29643981D01*
X41340386Y-29438857D01*
X41471568Y-29211643D01*
X41567420Y-28967416D01*
X41625802Y-28711630D01*
X41645408Y-28450000D01*
X110354592Y-28450000D01*
X110374197Y-28711625D01*
X110374198Y-28711629D01*
X110432578Y-28967412D01*
X110528428Y-29211635D01*
X110528436Y-29211651D01*
X110659612Y-29438855D01*
X110823194Y-29643980D01*
X110823205Y-29643991D01*
X111015520Y-29822432D01*
X111232292Y-29970226D01*
X111232294Y-29970227D01*
X111232296Y-29970228D01*
X111371838Y-30037428D01*
X111468668Y-30084059D01*
X111468669Y-30084059D01*
X111468677Y-30084063D01*
X111719385Y-30161396D01*
X111978818Y-30200500D01*
X111978822Y-30200500D01*
X112241178Y-30200500D01*
X112241182Y-30200500D01*
X112500615Y-30161396D01*
X112751323Y-30084063D01*
X112987704Y-29970228D01*
X113204479Y-29822433D01*
X113396805Y-29643981D01*
X113560386Y-29438857D01*
X113691568Y-29211643D01*
X113787420Y-28967416D01*
X113845802Y-28711630D01*
X113865408Y-28450000D01*
X113845802Y-28188370D01*
X113787420Y-27932584D01*
X113691568Y-27688357D01*
X113560386Y-27461143D01*
X113396805Y-27256019D01*
X113396794Y-27256008D01*
X113204479Y-27077567D01*
X112987707Y-26929773D01*
X112987702Y-26929771D01*
X112751331Y-26815940D01*
X112751326Y-26815938D01*
X112751323Y-26815937D01*
X112500615Y-26738604D01*
X112241182Y-26699500D01*
X111978818Y-26699500D01*
X111771271Y-26730783D01*
X111719384Y-26738604D01*
X111574107Y-26783416D01*
X111468677Y-26815937D01*
X111468675Y-26815937D01*
X111468668Y-26815940D01*
X111232297Y-26929771D01*
X111232292Y-26929773D01*
X111015520Y-27077567D01*
X110823205Y-27256008D01*
X110823194Y-27256019D01*
X110659612Y-27461144D01*
X110528436Y-27688348D01*
X110528428Y-27688364D01*
X110432578Y-27932587D01*
X110374198Y-28188370D01*
X110374197Y-28188374D01*
X110354592Y-28450000D01*
X41645408Y-28450000D01*
X41625802Y-28188370D01*
X41567420Y-27932584D01*
X41471568Y-27688357D01*
X41340386Y-27461143D01*
X41176805Y-27256019D01*
X41176794Y-27256008D01*
X40984479Y-27077567D01*
X40767707Y-26929773D01*
X40767702Y-26929771D01*
X40531331Y-26815940D01*
X40531326Y-26815938D01*
X40531323Y-26815937D01*
X40280615Y-26738604D01*
X40021182Y-26699500D01*
X39758818Y-26699500D01*
X39551271Y-26730783D01*
X39499384Y-26738604D01*
X39354107Y-26783416D01*
X39248677Y-26815937D01*
X39248675Y-26815937D01*
X39248668Y-26815940D01*
X39012297Y-26929771D01*
X39012292Y-26929773D01*
X38795520Y-27077567D01*
X38603205Y-27256008D01*
X38603194Y-27256019D01*
X38439612Y-27461144D01*
X38308436Y-27688348D01*
X38308428Y-27688364D01*
X38212578Y-27932587D01*
X38154198Y-28188370D01*
X38154197Y-28188374D01*
X38134592Y-28450000D01*
X18500500Y-28450000D01*
X18500500Y-20367242D01*
X101574500Y-20367242D01*
X101574500Y-20632757D01*
X101609156Y-20895998D01*
X101677878Y-21152476D01*
X101779483Y-21397772D01*
X101779485Y-21397776D01*
X101779486Y-21397778D01*
X101912245Y-21627722D01*
X101912247Y-21627725D01*
X101912248Y-21627726D01*
X102073873Y-21838361D01*
X102073877Y-21838365D01*
X102073881Y-21838370D01*
X102261630Y-22026119D01*
X102261634Y-22026122D01*
X102261638Y-22026126D01*
X102438693Y-22161985D01*
X102472278Y-22187755D01*
X102702222Y-22320514D01*
X102702227Y-22320516D01*
X102947523Y-22422121D01*
X102947527Y-22422122D01*
X103203997Y-22490843D01*
X103467242Y-22525500D01*
X103732758Y-22525500D01*
X103996003Y-22490843D01*
X104252473Y-22422122D01*
X104252474Y-22422121D01*
X104252476Y-22422121D01*
X104334241Y-22388252D01*
X104497778Y-22320514D01*
X104727722Y-22187755D01*
X104938370Y-22026119D01*
X105126119Y-21838370D01*
X105287755Y-21627722D01*
X105420514Y-21397778D01*
X105522122Y-21152473D01*
X105590843Y-20896003D01*
X105625500Y-20632758D01*
X105625500Y-20367242D01*
X105590843Y-20103997D01*
X105522122Y-19847527D01*
X105522121Y-19847523D01*
X105420516Y-19602227D01*
X105420514Y-19602223D01*
X105420514Y-19602222D01*
X105287755Y-19372278D01*
X105236450Y-19305416D01*
X105126126Y-19161638D01*
X105126122Y-19161634D01*
X105126119Y-19161630D01*
X104938370Y-18973881D01*
X104938365Y-18973877D01*
X104938361Y-18973873D01*
X104727726Y-18812248D01*
X104727725Y-18812247D01*
X104727722Y-18812245D01*
X104497778Y-18679486D01*
X104497776Y-18679485D01*
X104497772Y-18679483D01*
X104252476Y-18577878D01*
X104106416Y-18538742D01*
X103996003Y-18509157D01*
X103995998Y-18509156D01*
X103995999Y-18509156D01*
X103732758Y-18474500D01*
X103467242Y-18474500D01*
X103204001Y-18509156D01*
X102947523Y-18577878D01*
X102702227Y-18679483D01*
X102702223Y-18679485D01*
X102472273Y-18812248D01*
X102261638Y-18973873D01*
X102073873Y-19161638D01*
X101912248Y-19372273D01*
X101779485Y-19602223D01*
X101779483Y-19602227D01*
X101677878Y-19847523D01*
X101609156Y-20104001D01*
X101574500Y-20367242D01*
X18500500Y-20367242D01*
X18500500Y-20006111D01*
X18500800Y-19993894D01*
X18507990Y-19847527D01*
X18516751Y-19669193D01*
X18519143Y-19644906D01*
X18565949Y-19329362D01*
X18570709Y-19305435D01*
X18648220Y-18995991D01*
X18655303Y-18972644D01*
X18762766Y-18672306D01*
X18772110Y-18649748D01*
X18908489Y-18361400D01*
X18919996Y-18339870D01*
X19083995Y-18066254D01*
X19097547Y-18045971D01*
X19287571Y-17789754D01*
X19303055Y-17770888D01*
X19517282Y-17534524D01*
X19534524Y-17517282D01*
X19770888Y-17303055D01*
X19789754Y-17287571D01*
X20045971Y-17097547D01*
X20066254Y-17083995D01*
X20339870Y-16919996D01*
X20361400Y-16908489D01*
X20649748Y-16772110D01*
X20672306Y-16762766D01*
X20972644Y-16655303D01*
X20995991Y-16648220D01*
X21305435Y-16570709D01*
X21329362Y-16565949D01*
X21644906Y-16519143D01*
X21669193Y-16516751D01*
X21979950Y-16501484D01*
X21993894Y-16500800D01*
X22006111Y-16500500D01*
X22065892Y-16500500D01*
X111934108Y-16500500D01*
X111993889Y-16500500D01*
X112006106Y-16500800D01*
G37*
G04 #@! TD.AperFunction*
M02*
