G04 #@! TF.GenerationSoftware,KiCad,Pcbnew,8.0.8*
G04 #@! TF.CreationDate,2025-10-04T11:50:28-04:00*
G04 #@! TF.ProjectId,project-hw-2-18650,70726f6a-6563-4742-9d68-772d322d3138,rev?*
G04 #@! TF.SameCoordinates,Original*
G04 #@! TF.FileFunction,Legend,Top*
G04 #@! TF.FilePolarity,Positive*
%FSLAX46Y46*%
G04 Gerber Fmt 4.6, Leading zero omitted, Abs format (unit mm)*
G04 Created by KiCad (PCBNEW 8.0.8) date 2025-10-04 11:50:28*
%MOMM*%
%LPD*%
G01*
G04 APERTURE LIST*
G04 Aperture macros list*
%AMRoundRect*
0 Rectangle with rounded corners*
0 $1 Rounding radius*
0 $2 $3 $4 $5 $6 $7 $8 $9 X,Y pos of 4 corners*
0 Add a 4 corners polygon primitive as box body*
4,1,4,$2,$3,$4,$5,$6,$7,$8,$9,$2,$3,0*
0 Add four circle primitives for the rounded corners*
1,1,$1+$1,$2,$3*
1,1,$1+$1,$4,$5*
1,1,$1+$1,$6,$7*
1,1,$1+$1,$8,$9*
0 Add four rect primitives between the rounded corners*
20,1,$1+$1,$2,$3,$4,$5,0*
20,1,$1+$1,$4,$5,$6,$7,0*
20,1,$1+$1,$6,$7,$8,$9,0*
20,1,$1+$1,$8,$9,$2,$3,0*%
G04 Aperture macros list end*
%ADD10C,0.100000*%
%ADD11C,0.125000*%
%ADD12C,0.120000*%
%ADD13C,0.150000*%
%ADD14C,0.127000*%
%ADD15C,0.200000*%
%ADD16RoundRect,0.200000X0.200000X0.275000X-0.200000X0.275000X-0.200000X-0.275000X0.200000X-0.275000X0*%
%ADD17RoundRect,0.200000X-0.250000X-0.200000X0.250000X-0.200000X0.250000X0.200000X-0.250000X0.200000X0*%
%ADD18RoundRect,0.125000X-0.175000X0.125000X-0.175000X-0.125000X0.175000X-0.125000X0.175000X0.125000X0*%
%ADD19RoundRect,0.150000X0.625000X0.150000X-0.625000X0.150000X-0.625000X-0.150000X0.625000X-0.150000X0*%
%ADD20RoundRect,0.200000X-0.275000X0.200000X-0.275000X-0.200000X0.275000X-0.200000X0.275000X0.200000X0*%
%ADD21R,1.050000X0.650000*%
%ADD22RoundRect,0.225000X-0.250000X0.225000X-0.250000X-0.225000X0.250000X-0.225000X0.250000X0.225000X0*%
%ADD23RoundRect,0.050000X-0.285000X-0.100000X0.285000X-0.100000X0.285000X0.100000X-0.285000X0.100000X0*%
%ADD24RoundRect,0.475000X-2.075000X0.475000X-2.075000X-0.475000X2.075000X-0.475000X2.075000X0.475000X0*%
%ADD25RoundRect,0.250000X-1.500000X-0.750000X1.500000X-0.750000X1.500000X0.750000X-1.500000X0.750000X0*%
%ADD26RoundRect,0.250000X-2.750000X-0.750000X2.750000X-0.750000X2.750000X0.750000X-2.750000X0.750000X0*%
%ADD27RoundRect,0.250000X0.325000X1.100000X-0.325000X1.100000X-0.325000X-1.100000X0.325000X-1.100000X0*%
%ADD28RoundRect,0.225000X0.225000X0.250000X-0.225000X0.250000X-0.225000X-0.250000X0.225000X-0.250000X0*%
%ADD29RoundRect,0.225000X0.250000X-0.225000X0.250000X0.225000X-0.250000X0.225000X-0.250000X-0.225000X0*%
%ADD30RoundRect,0.250000X-1.100000X0.325000X-1.100000X-0.325000X1.100000X-0.325000X1.100000X0.325000X0*%
G04 APERTURE END LIST*
D10*
G36*
X19284633Y-56942533D02*
G01*
X19472212Y-56942533D01*
X19472212Y-57620551D01*
X19284633Y-57620551D01*
X19284633Y-56942533D01*
G37*
G36*
X19159685Y-49747418D02*
G01*
X19347264Y-49747418D01*
X19347264Y-50329692D01*
X19941263Y-50329692D01*
X19941263Y-50527041D01*
X19347264Y-50527041D01*
X19347264Y-51109316D01*
X19159685Y-51109316D01*
X19159685Y-50527041D01*
X18596950Y-50527041D01*
X18596950Y-50329692D01*
X19159685Y-50329692D01*
X19159685Y-49747418D01*
G37*
X23250000Y-33750000D02*
X29000000Y-33750000D01*
X29000000Y-37250000D01*
X23250000Y-37250000D01*
X23250000Y-33750000D01*
X21500000Y-22750000D02*
X25000000Y-22750000D01*
X25000000Y-31250000D01*
X21500000Y-31250000D01*
X21500000Y-22750000D01*
G36*
X24030495Y-35080000D02*
G01*
X23889811Y-35080000D01*
X23521004Y-34048318D01*
X23661688Y-34048318D01*
X23962840Y-34921486D01*
X24247138Y-34048318D01*
X24386357Y-34048318D01*
X24030495Y-35080000D01*
G37*
G36*
X24574424Y-34861158D02*
G01*
X24586086Y-34909353D01*
X24611262Y-34954043D01*
X24620097Y-34963984D01*
X24664202Y-34989863D01*
X24714861Y-35000030D01*
X24754431Y-35001842D01*
X24804082Y-34998148D01*
X24853532Y-34984256D01*
X24878995Y-34970579D01*
X24914349Y-34934064D01*
X24926133Y-34887536D01*
X24913435Y-34839974D01*
X24899267Y-34823545D01*
X24855684Y-34798855D01*
X24812072Y-34785931D01*
X24702407Y-34759309D01*
X24648942Y-34745429D01*
X24597170Y-34727763D01*
X24550824Y-34705590D01*
X24520202Y-34683838D01*
X24488946Y-34644121D01*
X24472117Y-34593483D01*
X24468911Y-34553656D01*
X24475016Y-34499494D01*
X24493331Y-34451861D01*
X24523857Y-34410759D01*
X24546092Y-34390746D01*
X24587964Y-34364032D01*
X24636156Y-34344951D01*
X24690668Y-34333502D01*
X24743550Y-34329745D01*
X24751500Y-34329685D01*
X24804759Y-34332420D01*
X24858672Y-34342243D01*
X24905166Y-34359211D01*
X24948604Y-34386838D01*
X24982015Y-34422636D01*
X25004761Y-34466007D01*
X25016842Y-34516952D01*
X25018946Y-34548527D01*
X24895115Y-34548527D01*
X24884322Y-34500655D01*
X24851343Y-34463149D01*
X24803506Y-34444342D01*
X24747348Y-34439106D01*
X24697797Y-34443297D01*
X24650406Y-34458777D01*
X24633531Y-34468904D01*
X24600561Y-34506216D01*
X24591277Y-34548527D01*
X24606515Y-34594998D01*
X24623517Y-34611542D01*
X24669129Y-34635096D01*
X24718986Y-34650225D01*
X24727808Y-34652330D01*
X24840160Y-34679197D01*
X24891314Y-34693485D01*
X24939775Y-34712771D01*
X24982336Y-34738187D01*
X24999162Y-34752470D01*
X25029227Y-34792358D01*
X25045416Y-34841313D01*
X25048499Y-34878988D01*
X25043355Y-34929409D01*
X25025269Y-34979673D01*
X24994162Y-35023098D01*
X24966189Y-35048248D01*
X24921478Y-35075817D01*
X24869652Y-35095509D01*
X24818470Y-35106278D01*
X24761841Y-35111016D01*
X24744661Y-35111263D01*
X24693560Y-35109064D01*
X24633000Y-35099295D01*
X24581094Y-35081709D01*
X24537844Y-35056308D01*
X24495953Y-35013565D01*
X24472178Y-34970579D01*
X24457057Y-34919776D01*
X24450593Y-34861158D01*
X24574424Y-34861158D01*
G37*
G36*
X25530837Y-34333395D02*
G01*
X25583652Y-34344523D01*
X25630706Y-34363070D01*
X25684481Y-34399340D01*
X25718091Y-34435198D01*
X25745939Y-34478475D01*
X25768025Y-34529171D01*
X25784350Y-34587285D01*
X25794913Y-34652819D01*
X25799714Y-34725771D01*
X25800034Y-34751737D01*
X25257083Y-34751737D01*
X25261922Y-34805791D01*
X25273508Y-34854136D01*
X25294607Y-34901700D01*
X25316922Y-34933698D01*
X25356688Y-34969633D01*
X25404849Y-34992259D01*
X25455373Y-35001243D01*
X25473726Y-35001842D01*
X25524184Y-34996896D01*
X25574695Y-34978623D01*
X25616207Y-34946887D01*
X25648720Y-34901687D01*
X25666434Y-34861158D01*
X25784647Y-34861158D01*
X25771918Y-34910375D01*
X25750272Y-34960498D01*
X25721054Y-35004088D01*
X25684265Y-35041144D01*
X25679134Y-35045317D01*
X25634896Y-35074168D01*
X25585223Y-35094776D01*
X25537301Y-35106046D01*
X25485219Y-35111005D01*
X25469574Y-35111263D01*
X25413781Y-35107579D01*
X25362538Y-35096528D01*
X25315847Y-35078109D01*
X25273706Y-35052324D01*
X25236117Y-35019171D01*
X25224598Y-35006482D01*
X25194053Y-34964622D01*
X25169827Y-34917628D01*
X25151921Y-34865498D01*
X25140334Y-34808234D01*
X25135507Y-34756591D01*
X25134717Y-34723893D01*
X25136965Y-34669963D01*
X25138569Y-34657948D01*
X25259769Y-34657948D01*
X25674982Y-34657948D01*
X25670403Y-34607999D01*
X25654575Y-34558120D01*
X25627441Y-34514157D01*
X25617096Y-34502121D01*
X25578041Y-34468891D01*
X25532928Y-34447968D01*
X25481756Y-34439352D01*
X25470795Y-34439106D01*
X25418412Y-34444926D01*
X25372087Y-34462386D01*
X25331820Y-34491485D01*
X25324494Y-34498702D01*
X25293405Y-34539755D01*
X25272191Y-34588728D01*
X25261542Y-34639574D01*
X25259769Y-34657948D01*
X25138569Y-34657948D01*
X25143709Y-34619456D01*
X25157737Y-34563365D01*
X25178239Y-34512203D01*
X25205215Y-34465969D01*
X25226796Y-34437885D01*
X25263482Y-34401114D01*
X25304477Y-34371951D01*
X25349783Y-34350396D01*
X25399400Y-34336448D01*
X25453327Y-34330108D01*
X25472260Y-34329685D01*
X25530837Y-34333395D01*
G37*
G36*
X26040369Y-34048318D02*
G01*
X26040369Y-35080000D01*
X25922400Y-35080000D01*
X25922400Y-34048318D01*
X26040369Y-34048318D01*
G37*
D11*
G36*
X22326371Y-30943824D02*
G01*
X22273637Y-30942141D01*
X22221316Y-30937092D01*
X22186664Y-30931856D01*
X22138340Y-30921059D01*
X22088747Y-30905125D01*
X22042561Y-30886182D01*
X21997581Y-30863542D01*
X21952456Y-30835002D01*
X21911891Y-30802651D01*
X21875857Y-30764101D01*
X21847006Y-30721893D01*
X21824221Y-30678073D01*
X21819567Y-30667585D01*
X21801739Y-30617918D01*
X21789745Y-30564811D01*
X21783983Y-30514719D01*
X21782686Y-30475366D01*
X21785571Y-30414991D01*
X21794227Y-30359437D01*
X21808652Y-30308705D01*
X21828848Y-30262794D01*
X21864752Y-30209080D01*
X21910914Y-30163937D01*
X21952267Y-30135705D01*
X21999391Y-30112294D01*
X22052284Y-30093705D01*
X22110949Y-30079937D01*
X22110949Y-30213538D01*
X22059658Y-30227505D01*
X22010130Y-30249751D01*
X21969257Y-30278914D01*
X21946817Y-30302198D01*
X21920370Y-30343873D01*
X21902579Y-30394436D01*
X21894030Y-30446841D01*
X21892107Y-30490753D01*
X21896186Y-30544434D01*
X21908422Y-30593736D01*
X21928815Y-30638658D01*
X21957366Y-30679202D01*
X21994074Y-30715366D01*
X22008122Y-30726448D01*
X22054608Y-30755831D01*
X22107052Y-30779135D01*
X22155308Y-30793911D01*
X22207702Y-30804466D01*
X22264235Y-30810799D01*
X22324905Y-30812909D01*
X22384227Y-30810715D01*
X22439614Y-30804132D01*
X22491064Y-30793160D01*
X22538580Y-30777800D01*
X22590403Y-30753574D01*
X22636559Y-30723028D01*
X22675737Y-30687007D01*
X22706810Y-30646538D01*
X22729776Y-30601621D01*
X22744637Y-30552257D01*
X22751391Y-30498444D01*
X22751842Y-30479518D01*
X22748382Y-30426995D01*
X22735956Y-30373895D01*
X22714494Y-30328183D01*
X22683994Y-30289860D01*
X22679546Y-30285589D01*
X22638299Y-30254494D01*
X22594044Y-30231769D01*
X22542169Y-30213227D01*
X22491639Y-30200665D01*
X22454842Y-30193998D01*
X22454842Y-30058932D01*
X22504057Y-30066019D01*
X22571926Y-30081472D01*
X22632651Y-30102712D01*
X22686232Y-30129740D01*
X22732669Y-30162556D01*
X22771961Y-30201158D01*
X22804110Y-30245549D01*
X22829114Y-30295726D01*
X22846974Y-30351691D01*
X22857691Y-30413444D01*
X22861263Y-30480983D01*
X22859019Y-30532381D01*
X22852287Y-30581062D01*
X22839349Y-30632580D01*
X22825359Y-30670272D01*
X22803538Y-30714611D01*
X22775803Y-30757668D01*
X22741052Y-30797483D01*
X22734256Y-30803872D01*
X22694224Y-30836165D01*
X22649689Y-30864532D01*
X22605296Y-30886915D01*
X22559534Y-30905472D01*
X22510683Y-30921146D01*
X22463391Y-30931856D01*
X22412295Y-30939149D01*
X22360855Y-30943076D01*
X22326371Y-30943824D01*
G37*
G36*
X22830000Y-29336217D02*
G01*
X22830000Y-29441730D01*
X22720090Y-29441730D01*
X22759615Y-29471341D01*
X22795373Y-29505058D01*
X22826949Y-29546652D01*
X22829023Y-29550174D01*
X22848669Y-29595878D01*
X22858712Y-29644049D01*
X22861263Y-29687927D01*
X22857858Y-29738729D01*
X22845891Y-29789459D01*
X22822487Y-29837850D01*
X22806796Y-29858897D01*
X22769049Y-29892643D01*
X22724193Y-29913890D01*
X22672229Y-29922639D01*
X22660983Y-29922889D01*
X22095317Y-29922889D01*
X22095317Y-29806140D01*
X22609204Y-29806140D01*
X22657678Y-29799409D01*
X22702890Y-29774912D01*
X22713007Y-29765352D01*
X22739554Y-29724005D01*
X22750894Y-29675482D01*
X22751842Y-29654221D01*
X22745283Y-29600707D01*
X22725605Y-29554349D01*
X22692808Y-29515146D01*
X22684675Y-29508164D01*
X22643435Y-29481599D01*
X22595279Y-29463728D01*
X22546667Y-29455142D01*
X22506622Y-29453210D01*
X22095317Y-29453210D01*
X22095317Y-29336217D01*
X22830000Y-29336217D01*
G37*
G36*
X22189106Y-28817201D02*
G01*
X22192761Y-28866091D01*
X22202748Y-28915039D01*
X22221392Y-28961274D01*
X22244549Y-28994521D01*
X22286529Y-29025691D01*
X22333301Y-29042315D01*
X22383844Y-29050800D01*
X22434311Y-29053571D01*
X22443363Y-29053628D01*
X22830000Y-29053628D01*
X22830000Y-29171598D01*
X22095317Y-29171598D01*
X22095317Y-29063398D01*
X22220369Y-29063398D01*
X22177398Y-29032133D01*
X22139826Y-28998513D01*
X22112414Y-28965701D01*
X22088922Y-28919469D01*
X22079813Y-28869158D01*
X22079685Y-28862142D01*
X22083349Y-28817201D01*
X22189106Y-28817201D01*
G37*
G36*
X22189106Y-28353140D02*
G01*
X22192761Y-28402030D01*
X22202748Y-28450978D01*
X22221392Y-28497213D01*
X22244549Y-28530460D01*
X22286529Y-28561630D01*
X22333301Y-28578253D01*
X22383844Y-28586738D01*
X22434311Y-28589509D01*
X22443363Y-28589567D01*
X22830000Y-28589567D01*
X22830000Y-28707536D01*
X22095317Y-28707536D01*
X22095317Y-28599337D01*
X22220369Y-28599337D01*
X22177398Y-28568072D01*
X22139826Y-28534451D01*
X22112414Y-28501639D01*
X22088922Y-28455407D01*
X22079813Y-28405097D01*
X22079685Y-28398080D01*
X22083349Y-28353140D01*
X22189106Y-28353140D01*
G37*
G36*
X22501737Y-28163363D02*
G01*
X22555791Y-28158524D01*
X22604136Y-28146938D01*
X22651700Y-28125838D01*
X22683698Y-28103524D01*
X22719633Y-28063758D01*
X22742259Y-28015596D01*
X22751243Y-27965072D01*
X22751842Y-27946720D01*
X22746896Y-27896262D01*
X22728623Y-27845750D01*
X22696887Y-27804238D01*
X22651687Y-27771726D01*
X22611158Y-27754012D01*
X22611158Y-27635799D01*
X22660375Y-27648528D01*
X22710498Y-27670174D01*
X22754088Y-27699391D01*
X22791144Y-27736180D01*
X22795317Y-27741311D01*
X22824168Y-27785550D01*
X22844776Y-27835223D01*
X22856046Y-27883144D01*
X22861005Y-27935227D01*
X22861263Y-27950872D01*
X22857579Y-28006665D01*
X22846528Y-28057907D01*
X22828109Y-28104599D01*
X22802324Y-28146739D01*
X22769171Y-28184329D01*
X22756482Y-28195847D01*
X22714622Y-28226393D01*
X22667628Y-28250619D01*
X22615498Y-28268525D01*
X22558234Y-28280111D01*
X22506591Y-28284939D01*
X22473893Y-28285729D01*
X22419963Y-28283481D01*
X22369456Y-28276737D01*
X22313365Y-28262709D01*
X22262203Y-28242207D01*
X22215969Y-28215230D01*
X22187885Y-28193649D01*
X22151114Y-28156964D01*
X22121951Y-28115969D01*
X22100396Y-28070662D01*
X22086448Y-28021046D01*
X22080108Y-27967119D01*
X22079718Y-27949651D01*
X22189106Y-27949651D01*
X22194926Y-28002034D01*
X22212386Y-28048359D01*
X22241485Y-28088626D01*
X22248702Y-28095952D01*
X22289755Y-28127041D01*
X22338728Y-28148254D01*
X22389574Y-28158904D01*
X22407948Y-28160676D01*
X22407948Y-27745464D01*
X22357999Y-27750042D01*
X22308120Y-27765870D01*
X22264157Y-27793004D01*
X22252121Y-27803349D01*
X22218891Y-27842404D01*
X22197968Y-27887517D01*
X22189352Y-27938689D01*
X22189106Y-27949651D01*
X22079718Y-27949651D01*
X22079685Y-27948185D01*
X22083395Y-27889608D01*
X22094523Y-27836793D01*
X22113070Y-27789740D01*
X22149340Y-27735964D01*
X22185198Y-27702355D01*
X22228475Y-27674507D01*
X22279171Y-27652420D01*
X22337285Y-27636096D01*
X22402819Y-27625533D01*
X22475771Y-27620731D01*
X22501737Y-27620411D01*
X22501737Y-28163363D01*
G37*
G36*
X22095317Y-27498046D02*
G01*
X22095317Y-27389846D01*
X22230383Y-27389846D01*
X22188757Y-27361495D01*
X22150890Y-27328589D01*
X22119429Y-27290684D01*
X22114856Y-27283600D01*
X22093424Y-27237450D01*
X22082468Y-27189050D01*
X22079685Y-27145115D01*
X22083090Y-27094358D01*
X22095057Y-27043789D01*
X22118461Y-26995713D01*
X22134152Y-26974877D01*
X22171570Y-26941389D01*
X22216049Y-26920304D01*
X22267588Y-26911622D01*
X22278743Y-26911374D01*
X22830000Y-26911374D01*
X22830000Y-27028367D01*
X22330767Y-27028367D01*
X22279182Y-27036174D01*
X22235118Y-27061866D01*
X22227697Y-27069155D01*
X22201317Y-27110502D01*
X22190048Y-27159025D01*
X22189106Y-27180286D01*
X22195618Y-27233179D01*
X22215152Y-27279204D01*
X22247710Y-27318359D01*
X22255785Y-27325366D01*
X22301704Y-27354217D01*
X22350292Y-27371047D01*
X22399255Y-27378741D01*
X22432616Y-27380076D01*
X22830000Y-27380076D01*
X22830000Y-27498046D01*
X22095317Y-27498046D01*
G37*
G36*
X22095317Y-26465387D02*
G01*
X22189106Y-26465387D01*
X22189106Y-26586531D01*
X22686629Y-26586531D01*
X22734955Y-26576246D01*
X22738653Y-26573098D01*
X22751829Y-26524149D01*
X22751842Y-26521807D01*
X22747843Y-26472367D01*
X22746224Y-26465387D01*
X22850760Y-26465387D01*
X22858299Y-26513794D01*
X22861263Y-26561130D01*
X22856264Y-26611771D01*
X22836389Y-26659490D01*
X22830976Y-26666643D01*
X22788910Y-26696267D01*
X22744759Y-26703279D01*
X22189106Y-26703279D01*
X22189106Y-26803175D01*
X22095317Y-26803175D01*
X22095317Y-26703279D01*
X21892107Y-26703279D01*
X21892107Y-26586531D01*
X22095317Y-26586531D01*
X22095317Y-26465387D01*
G37*
G36*
X21798318Y-25846475D02*
G01*
X22720579Y-25846475D01*
X22720579Y-25339916D01*
X22830000Y-25339916D01*
X22830000Y-25977145D01*
X21798318Y-25977145D01*
X21798318Y-25846475D01*
G37*
G36*
X22095317Y-25091277D02*
G01*
X22830000Y-25091277D01*
X22830000Y-25208025D01*
X22095317Y-25208025D01*
X22095317Y-25091277D01*
G37*
G36*
X21798318Y-25091277D02*
G01*
X21939002Y-25091277D01*
X21939002Y-25209490D01*
X21798318Y-25209490D01*
X21798318Y-25091277D01*
G37*
G36*
X22095317Y-24907117D02*
G01*
X22095317Y-24798918D01*
X22211088Y-24798918D01*
X22171480Y-24768521D01*
X22136561Y-24733983D01*
X22110704Y-24698290D01*
X22090621Y-24652079D01*
X22081170Y-24603485D01*
X22079685Y-24572505D01*
X22085377Y-24516337D01*
X22102453Y-24467298D01*
X22130911Y-24425389D01*
X22170754Y-24390609D01*
X22198632Y-24373935D01*
X22161514Y-24341564D01*
X22126984Y-24303095D01*
X22106552Y-24271353D01*
X22088186Y-24222647D01*
X22080630Y-24174127D01*
X22079685Y-24147522D01*
X22083820Y-24093430D01*
X22098112Y-24042120D01*
X22125624Y-23996368D01*
X22131953Y-23989253D01*
X22173261Y-23957548D01*
X22220430Y-23940146D01*
X22270714Y-23933783D01*
X22282896Y-23933565D01*
X22830000Y-23933565D01*
X22830000Y-24051779D01*
X22333454Y-24051779D01*
X22282769Y-24057704D01*
X22236909Y-24079268D01*
X22226964Y-24087683D01*
X22198571Y-24130792D01*
X22189254Y-24180333D01*
X22189106Y-24188311D01*
X22196834Y-24239212D01*
X22220018Y-24284207D01*
X22244061Y-24310921D01*
X22284613Y-24339705D01*
X22330706Y-24356542D01*
X22377418Y-24361479D01*
X22830000Y-24361479D01*
X22830000Y-24479448D01*
X22333454Y-24479448D01*
X22282769Y-24485374D01*
X22236909Y-24506937D01*
X22226964Y-24515352D01*
X22198571Y-24558461D01*
X22189254Y-24608002D01*
X22189106Y-24615980D01*
X22196834Y-24666882D01*
X22220018Y-24711876D01*
X22244061Y-24738590D01*
X22284613Y-24767375D01*
X22330706Y-24784211D01*
X22377418Y-24789148D01*
X22830000Y-24789148D01*
X22830000Y-24907117D01*
X22095317Y-24907117D01*
G37*
G36*
X22095317Y-23644382D02*
G01*
X22830000Y-23644382D01*
X22830000Y-23761130D01*
X22095317Y-23761130D01*
X22095317Y-23644382D01*
G37*
G36*
X21798318Y-23644382D02*
G01*
X21939002Y-23644382D01*
X21939002Y-23762595D01*
X21798318Y-23762595D01*
X21798318Y-23644382D01*
G37*
G36*
X22095317Y-23178855D02*
G01*
X22189106Y-23178855D01*
X22189106Y-23300000D01*
X22686629Y-23300000D01*
X22734955Y-23289715D01*
X22738653Y-23286566D01*
X22751829Y-23237617D01*
X22751842Y-23235275D01*
X22747843Y-23185835D01*
X22746224Y-23178855D01*
X22850760Y-23178855D01*
X22858299Y-23227262D01*
X22861263Y-23274598D01*
X22856264Y-23325240D01*
X22836389Y-23372958D01*
X22830976Y-23380111D01*
X22788910Y-23409735D01*
X22744759Y-23416748D01*
X22189106Y-23416748D01*
X22189106Y-23516643D01*
X22095317Y-23516643D01*
X22095317Y-23416748D01*
X21892107Y-23416748D01*
X21892107Y-23300000D01*
X22095317Y-23300000D01*
X22095317Y-23178855D01*
G37*
D12*
X31237258Y-17477500D02*
X30762742Y-17477500D01*
X31237258Y-18522500D02*
X30762742Y-18522500D01*
X33000000Y-19440000D02*
X32200000Y-19440000D01*
X33000000Y-19440000D02*
X33800000Y-19440000D01*
X33000000Y-22560000D02*
X32200000Y-22560000D01*
X33000000Y-22560000D02*
X33800000Y-22560000D01*
X31700000Y-19490000D02*
X31460000Y-19160000D01*
X31940000Y-19160000D01*
X31700000Y-19490000D01*
G36*
X31700000Y-19490000D02*
G01*
X31460000Y-19160000D01*
X31940000Y-19160000D01*
X31700000Y-19490000D01*
G37*
X29400000Y-22260000D02*
X30600000Y-22260000D01*
X29400000Y-20300000D02*
X29400000Y-22260000D01*
X30600000Y-20300000D02*
X30600000Y-22260000D01*
D13*
X31075000Y-28575000D02*
X26925000Y-28575000D01*
X31075000Y-23425000D02*
X26925000Y-23425000D01*
D12*
X31740000Y-28830000D02*
X31260000Y-28830000D01*
X31500000Y-28500000D01*
X31740000Y-28830000D01*
G36*
X31740000Y-28830000D02*
G01*
X31260000Y-28830000D01*
X31500000Y-28500000D01*
X31740000Y-28830000D01*
G37*
X33477500Y-28262742D02*
X33477500Y-28737258D01*
X34522500Y-28262742D02*
X34522500Y-28737258D01*
D14*
X31100000Y-32620000D02*
X26900000Y-32620000D01*
X31100000Y-30500000D02*
X31100000Y-31500000D01*
X26900000Y-30500000D02*
X26900000Y-31500000D01*
X26900000Y-29380000D02*
X31100000Y-29380000D01*
D15*
X32200000Y-32100000D02*
G75*
G02*
X32000000Y-32100000I-100000J0D01*
G01*
X32000000Y-32100000D02*
G75*
G02*
X32200000Y-32100000I100000J0D01*
G01*
D12*
X23477500Y-27262742D02*
X23477500Y-27737258D01*
X24522500Y-27262742D02*
X24522500Y-27737258D01*
X34522500Y-31762742D02*
X34522500Y-32237258D01*
X33477500Y-31762742D02*
X33477500Y-32237258D01*
X34510000Y-24859420D02*
X34510000Y-25140580D01*
X33490000Y-24859420D02*
X33490000Y-25140580D01*
X28522500Y-35262742D02*
X28522500Y-35737258D01*
X27477500Y-35262742D02*
X27477500Y-35737258D01*
X27650000Y-37840000D02*
X26600000Y-37840000D01*
X27650000Y-40160000D02*
X26350000Y-40160000D01*
X26240000Y-37840000D02*
X25960000Y-37840000D01*
X26240000Y-37560000D01*
X26240000Y-37840000D01*
G36*
X26240000Y-37840000D02*
G01*
X25960000Y-37840000D01*
X26240000Y-37560000D01*
X26240000Y-37840000D01*
G37*
X25737258Y-35727500D02*
X25262742Y-35727500D01*
X25737258Y-36772500D02*
X25262742Y-36772500D01*
X28900000Y-46600000D02*
X29300000Y-46600000D01*
X35100000Y-46600000D02*
X34700000Y-46600000D01*
X28900000Y-40400000D02*
X28900000Y-46600000D01*
X28900000Y-40400000D02*
X29300000Y-40400000D01*
X35100000Y-40400000D02*
X35100000Y-46600000D01*
X35100000Y-40400000D02*
X34700000Y-40400000D01*
D15*
X19500000Y-52000000D02*
G75*
G02*
X19300000Y-52000000I-100000J0D01*
G01*
X19300000Y-52000000D02*
G75*
G02*
X19500000Y-52000000I100000J0D01*
G01*
D14*
X33350000Y-57950000D02*
X33350000Y-57320000D01*
X33350000Y-50680000D02*
X33350000Y-50050000D01*
X33350000Y-50050000D02*
X20650000Y-50050000D01*
X20650000Y-57950000D02*
X33350000Y-57950000D01*
X20650000Y-57950000D02*
X20650000Y-57320000D01*
X20650000Y-50050000D02*
X20650000Y-50680000D01*
D12*
X30510000Y-38359420D02*
X30510000Y-38640580D01*
X29490000Y-38359420D02*
X29490000Y-38640580D01*
X25961252Y-45860000D02*
X24538748Y-45860000D01*
X25961252Y-43140000D02*
X24538748Y-43140000D01*
X26140580Y-42510000D02*
X25859420Y-42510000D01*
X26140580Y-41490000D02*
X25859420Y-41490000D01*
X25961252Y-49110000D02*
X24538748Y-49110000D01*
X25961252Y-46390000D02*
X24538748Y-46390000D01*
X29490000Y-35640580D02*
X29490000Y-35359420D01*
X30510000Y-35640580D02*
X30510000Y-35359420D01*
X23990000Y-39359420D02*
X23990000Y-39640580D01*
X25010000Y-39359420D02*
X25010000Y-39640580D01*
X23360000Y-39538748D02*
X23360000Y-40961252D01*
X20640000Y-39538748D02*
X20640000Y-40961252D01*
D15*
X37450000Y-18100000D02*
X37450000Y-57900000D01*
X37450000Y-57900000D02*
X114550000Y-57900000D01*
X114550000Y-18100000D02*
X37450000Y-18100000D01*
X114550000Y-57900000D02*
X114550000Y-18100000D01*
%LPC*%
D16*
X30175000Y-18000000D03*
X31825000Y-18000000D03*
D17*
X31900000Y-20050000D03*
X31900000Y-21950000D03*
X34100000Y-21000000D03*
D18*
X30000000Y-21700000D03*
X30000000Y-20300000D03*
D19*
X31700000Y-27905000D03*
X31700000Y-26635000D03*
X31700000Y-25365000D03*
X31700000Y-24095000D03*
X26300000Y-24095000D03*
X26300000Y-25365000D03*
X26300000Y-26635000D03*
X26300000Y-27905000D03*
D20*
X34000000Y-29325000D03*
X34000000Y-27675000D03*
D21*
X31075000Y-32075000D03*
X26925000Y-32075000D03*
X31075000Y-29925000D03*
X26925000Y-29925000D03*
D20*
X24000000Y-28325000D03*
X24000000Y-26675000D03*
X34000000Y-31175000D03*
X34000000Y-32825000D03*
D22*
X34000000Y-24225000D03*
X34000000Y-25775000D03*
D20*
X28000000Y-34675000D03*
X28000000Y-36325000D03*
D23*
X26260000Y-38250000D03*
X26260000Y-38750000D03*
X26260000Y-39250000D03*
X26260000Y-39750000D03*
X27740000Y-39750000D03*
X27740000Y-39250000D03*
X27740000Y-38750000D03*
X27740000Y-38250000D03*
D16*
X24675000Y-36250000D03*
X26325000Y-36250000D03*
D24*
X32000000Y-45600000D03*
X32000000Y-41400000D03*
D25*
X32250000Y-56000000D03*
D26*
X23000000Y-56000000D03*
D25*
X32250000Y-52000000D03*
D26*
X23000000Y-52000000D03*
D22*
X30000000Y-37725000D03*
X30000000Y-39275000D03*
D27*
X26725000Y-44500000D03*
X23775000Y-44500000D03*
D28*
X26775000Y-42000000D03*
X25225000Y-42000000D03*
D27*
X26725000Y-47750000D03*
X23775000Y-47750000D03*
D29*
X30000000Y-36275000D03*
X30000000Y-34725000D03*
D22*
X24500000Y-40275000D03*
X24500000Y-38725000D03*
D30*
X22000000Y-38775000D03*
X22000000Y-41725000D03*
%LPD*%
M02*
