G04 #@! TF.GenerationSoftware,KiCad,Pcbnew,8.0.8*
G04 #@! TF.CreationDate,2025-10-01T20:38:25-04:00*
G04 #@! TF.ProjectId,project-hw-2-18650,70726f6a-6563-4742-9d68-772d322d3138,rev?*
G04 #@! TF.SameCoordinates,Original*
G04 #@! TF.FileFunction,Paste,Top*
G04 #@! TF.FilePolarity,Positive*
%FSLAX46Y46*%
G04 Gerber Fmt 4.6, Leading zero omitted, Abs format (unit mm)*
G04 Created by KiCad (PCBNEW 8.0.8) date 2025-10-01 20:38:25*
%MOMM*%
%LPD*%
G01*
G04 APERTURE LIST*
G04 Aperture macros list*
%AMRoundRect*
0 Rectangle with rounded corners*
0 $1 Rounding radius*
0 $2 $3 $4 $5 $6 $7 $8 $9 X,Y pos of 4 corners*
0 Add a 4 corners polygon primitive as box body*
4,1,4,$2,$3,$4,$5,$6,$7,$8,$9,$2,$3,0*
0 Add four circle primitives for the rounded corners*
1,1,$1+$1,$2,$3*
1,1,$1+$1,$4,$5*
1,1,$1+$1,$6,$7*
1,1,$1+$1,$8,$9*
0 Add four rect primitives between the rounded corners*
20,1,$1+$1,$2,$3,$4,$5,0*
20,1,$1+$1,$4,$5,$6,$7,0*
20,1,$1+$1,$6,$7,$8,$9,0*
20,1,$1+$1,$8,$9,$2,$3,0*%
G04 Aperture macros list end*
%ADD10RoundRect,0.150000X0.625000X0.150000X-0.625000X0.150000X-0.625000X-0.150000X0.625000X-0.150000X0*%
%ADD11RoundRect,0.200000X-0.275000X0.200000X-0.275000X-0.200000X0.275000X-0.200000X0.275000X0.200000X0*%
%ADD12R,1.050000X0.650000*%
%ADD13RoundRect,0.225000X-0.250000X0.225000X-0.250000X-0.225000X0.250000X-0.225000X0.250000X0.225000X0*%
%ADD14RoundRect,0.050000X-0.285000X-0.100000X0.285000X-0.100000X0.285000X0.100000X-0.285000X0.100000X0*%
%ADD15RoundRect,0.200000X0.200000X0.275000X-0.200000X0.275000X-0.200000X-0.275000X0.200000X-0.275000X0*%
%ADD16RoundRect,0.475000X-2.075000X0.475000X-2.075000X-0.475000X2.075000X-0.475000X2.075000X0.475000X0*%
%ADD17RoundRect,0.250000X-1.500000X-0.750000X1.500000X-0.750000X1.500000X0.750000X-1.500000X0.750000X0*%
%ADD18RoundRect,0.250000X-2.750000X-0.750000X2.750000X-0.750000X2.750000X0.750000X-2.750000X0.750000X0*%
%ADD19RoundRect,0.250000X0.325000X1.100000X-0.325000X1.100000X-0.325000X-1.100000X0.325000X-1.100000X0*%
%ADD20RoundRect,0.225000X0.225000X0.250000X-0.225000X0.250000X-0.225000X-0.250000X0.225000X-0.250000X0*%
%ADD21RoundRect,0.225000X0.250000X-0.225000X0.250000X0.225000X-0.250000X0.225000X-0.250000X-0.225000X0*%
%ADD22RoundRect,0.250000X-1.100000X0.325000X-1.100000X-0.325000X1.100000X-0.325000X1.100000X0.325000X0*%
G04 APERTURE END LIST*
G36*
X30200000Y-24550000D02*
G01*
X27800000Y-24550000D01*
X27800000Y-21450000D01*
X30200000Y-21450000D01*
X30200000Y-24550000D01*
G37*
D10*
X31700000Y-24905000D03*
X31700000Y-23635000D03*
X31700000Y-22365000D03*
X31700000Y-21095000D03*
X26300000Y-21095000D03*
X26300000Y-22365000D03*
X26300000Y-23635000D03*
X26300000Y-24905000D03*
D11*
X34000000Y-24675000D03*
X34000000Y-26325000D03*
D12*
X31075000Y-29075000D03*
X26925000Y-29075000D03*
X31075000Y-26925000D03*
X26925000Y-26925000D03*
D11*
X34000000Y-28175000D03*
X34000000Y-29825000D03*
D13*
X34000000Y-21225000D03*
X34000000Y-22775000D03*
D14*
X27740000Y-36250000D03*
X27740000Y-36750000D03*
X27740000Y-37250000D03*
X27740000Y-37750000D03*
X26260000Y-37750000D03*
X26260000Y-37250000D03*
X26260000Y-36750000D03*
X26260000Y-36250000D03*
D15*
X26325000Y-34250000D03*
X24675000Y-34250000D03*
D16*
X32000000Y-39400000D03*
X32000000Y-43600000D03*
D17*
X32250000Y-56000000D03*
D18*
X23000000Y-56000000D03*
D17*
X32250000Y-52000000D03*
D18*
X23000000Y-52000000D03*
D13*
X30000000Y-37275000D03*
X30000000Y-35725000D03*
D19*
X23775000Y-42500000D03*
X26725000Y-42500000D03*
D20*
X25225000Y-40000000D03*
X26775000Y-40000000D03*
D19*
X23775000Y-45750000D03*
X26725000Y-45750000D03*
D21*
X30000000Y-32725000D03*
X30000000Y-34275000D03*
D13*
X24500000Y-36725000D03*
X24500000Y-38275000D03*
D22*
X22000000Y-39725000D03*
X22000000Y-36775000D03*
M02*
