M48
; DRILL file {KiCad 8.0.8} date 2025-10-01T20:42:03-0400
; FORMAT={-:-/ absolute / metric / decimal}
; #@! TF.CreationDate,2025-10-01T20:42:03-04:00
; #@! TF.GenerationSoftware,Kicad,Pcbnew,8.0.8
; #@! TF.FileFunction,Plated,1,2,PTH
FMAT,2
METRIC
; #@! TA.AperFunction,Plated,PTH,ViaDrill
T1C0.300
; #@! TA.AperFunction,Plated,PTH,ComponentDrill
T2C1.200
%
G90
G05
T1
X21.25Y-41.25
X21.25Y-42.25
X21.25Y-43.25
X21.25Y-44.75
X21.25Y-45.75
X21.25Y-46.75
X22.5Y-41.25
X22.5Y-42.25
X22.5Y-43.25
X22.5Y-44.75
X22.5Y-45.75
X22.5Y-46.75
X24.0Y-39.5
X24.0Y-40.25
X24.75Y-35.25
X25.5Y-38.5
X26.0Y-48.0
X26.25Y-35.25
X26.25Y-38.5
X26.675Y-32.675
X26.75Y-55.25
X26.75Y-56.0
X26.75Y-56.75
X27.0Y-35.25
X27.9Y-21.1
X27.9Y-24.9
X28.0Y-29.0
X28.25Y-55.25
X28.25Y-56.0
X28.25Y-56.75
X28.6Y-21.1
X28.6Y-24.9
X29.4Y-21.1
X29.4Y-24.9
X29.75Y-55.25
X29.75Y-56.0
X29.75Y-56.75
X30.0Y-29.0
X30.1Y-21.1
X30.1Y-24.9
X31.25Y-32.25
X31.25Y-33.0
X34.0Y-31.0
X35.0Y-25.25
T2
X40.2Y-28.45
X40.2Y-47.55
X111.8Y-28.45
X111.8Y-47.55
M30
