G04 #@! TF.GenerationSoftware,KiCad,Pcbnew,8.0.8*
G04 #@! TF.CreationDate,2025-10-01T20:38:25-04:00*
G04 #@! TF.ProjectId,project-hw-2-18650,70726f6a-6563-4742-9d68-772d322d3138,rev?*
G04 #@! TF.SameCoordinates,Original*
G04 #@! TF.FileFunction,Copper,L1,Top*
G04 #@! TF.FilePolarity,Positive*
%FSLAX46Y46*%
G04 Gerber Fmt 4.6, Leading zero omitted, Abs format (unit mm)*
G04 Created by KiCad (PCBNEW 8.0.8) date 2025-10-01 20:38:25*
%MOMM*%
%LPD*%
G01*
G04 APERTURE LIST*
G04 Aperture macros list*
%AMRoundRect*
0 Rectangle with rounded corners*
0 $1 Rounding radius*
0 $2 $3 $4 $5 $6 $7 $8 $9 X,Y pos of 4 corners*
0 Add a 4 corners polygon primitive as box body*
4,1,4,$2,$3,$4,$5,$6,$7,$8,$9,$2,$3,0*
0 Add four circle primitives for the rounded corners*
1,1,$1+$1,$2,$3*
1,1,$1+$1,$4,$5*
1,1,$1+$1,$6,$7*
1,1,$1+$1,$8,$9*
0 Add four rect primitives between the rounded corners*
20,1,$1+$1,$2,$3,$4,$5,0*
20,1,$1+$1,$4,$5,$6,$7,0*
20,1,$1+$1,$6,$7,$8,$9,0*
20,1,$1+$1,$8,$9,$2,$3,0*%
G04 Aperture macros list end*
G04 #@! TA.AperFunction,SMDPad,CuDef*
%ADD10RoundRect,0.150000X0.625000X0.150000X-0.625000X0.150000X-0.625000X-0.150000X0.625000X-0.150000X0*%
G04 #@! TD*
G04 #@! TA.AperFunction,SMDPad,CuDef*
%ADD11R,2.950000X4.500000*%
G04 #@! TD*
G04 #@! TA.AperFunction,SMDPad,CuDef*
%ADD12RoundRect,0.200000X-0.275000X0.200000X-0.275000X-0.200000X0.275000X-0.200000X0.275000X0.200000X0*%
G04 #@! TD*
G04 #@! TA.AperFunction,SMDPad,CuDef*
%ADD13R,1.050000X0.650000*%
G04 #@! TD*
G04 #@! TA.AperFunction,SMDPad,CuDef*
%ADD14RoundRect,0.225000X-0.250000X0.225000X-0.250000X-0.225000X0.250000X-0.225000X0.250000X0.225000X0*%
G04 #@! TD*
G04 #@! TA.AperFunction,ComponentPad*
%ADD15C,2.500000*%
G04 #@! TD*
G04 #@! TA.AperFunction,SMDPad,CuDef*
%ADD16RoundRect,0.050000X-0.285000X-0.100000X0.285000X-0.100000X0.285000X0.100000X-0.285000X0.100000X0*%
G04 #@! TD*
G04 #@! TA.AperFunction,SMDPad,CuDef*
%ADD17RoundRect,0.200000X0.200000X0.275000X-0.200000X0.275000X-0.200000X-0.275000X0.200000X-0.275000X0*%
G04 #@! TD*
G04 #@! TA.AperFunction,SMDPad,CuDef*
%ADD18RoundRect,0.475000X-2.075000X0.475000X-2.075000X-0.475000X2.075000X-0.475000X2.075000X0.475000X0*%
G04 #@! TD*
G04 #@! TA.AperFunction,SMDPad,CuDef*
%ADD19RoundRect,0.250000X-1.500000X-0.750000X1.500000X-0.750000X1.500000X0.750000X-1.500000X0.750000X0*%
G04 #@! TD*
G04 #@! TA.AperFunction,SMDPad,CuDef*
%ADD20RoundRect,0.250000X-2.750000X-0.750000X2.750000X-0.750000X2.750000X0.750000X-2.750000X0.750000X0*%
G04 #@! TD*
G04 #@! TA.AperFunction,SMDPad,CuDef*
%ADD21RoundRect,0.250000X0.325000X1.100000X-0.325000X1.100000X-0.325000X-1.100000X0.325000X-1.100000X0*%
G04 #@! TD*
G04 #@! TA.AperFunction,SMDPad,CuDef*
%ADD22RoundRect,0.225000X0.225000X0.250000X-0.225000X0.250000X-0.225000X-0.250000X0.225000X-0.250000X0*%
G04 #@! TD*
G04 #@! TA.AperFunction,SMDPad,CuDef*
%ADD23RoundRect,0.225000X0.250000X-0.225000X0.250000X0.225000X-0.250000X0.225000X-0.250000X-0.225000X0*%
G04 #@! TD*
G04 #@! TA.AperFunction,SMDPad,CuDef*
%ADD24RoundRect,0.250000X-1.100000X0.325000X-1.100000X-0.325000X1.100000X-0.325000X1.100000X0.325000X0*%
G04 #@! TD*
G04 #@! TA.AperFunction,ViaPad*
%ADD25C,0.600000*%
G04 #@! TD*
G04 #@! TA.AperFunction,Conductor*
%ADD26C,0.200000*%
G04 #@! TD*
G04 #@! TA.AperFunction,Conductor*
%ADD27C,0.300000*%
G04 #@! TD*
G04 APERTURE END LIST*
D10*
X31700000Y-24905000D03*
X31700000Y-23635000D03*
X31700000Y-22365000D03*
X31700000Y-21095000D03*
X26300000Y-21095000D03*
X26300000Y-22365000D03*
X26300000Y-23635000D03*
X26300000Y-24905000D03*
D11*
X29000000Y-23000000D03*
D12*
X34000000Y-24675000D03*
X34000000Y-26325000D03*
D13*
X31075000Y-29075000D03*
X26925000Y-29075000D03*
X31075000Y-26925000D03*
X26925000Y-26925000D03*
D12*
X24000000Y-25325000D03*
X24000000Y-23675000D03*
X34000000Y-28175000D03*
X34000000Y-29825000D03*
D14*
X34000000Y-21225000D03*
X34000000Y-22775000D03*
D12*
X28000000Y-34325000D03*
X28000000Y-32675000D03*
D15*
X111800000Y-47550000D03*
X40200000Y-47550000D03*
X111800000Y-28450000D03*
X40200000Y-28450000D03*
D16*
X27740000Y-36250000D03*
X27740000Y-36750000D03*
X27740000Y-37250000D03*
X27740000Y-37750000D03*
X26260000Y-37750000D03*
X26260000Y-37250000D03*
X26260000Y-36750000D03*
X26260000Y-36250000D03*
D17*
X26325000Y-34250000D03*
X24675000Y-34250000D03*
D18*
X32000000Y-39400000D03*
X32000000Y-43600000D03*
D19*
X32250000Y-56000000D03*
D20*
X23000000Y-56000000D03*
D19*
X32250000Y-52000000D03*
D20*
X23000000Y-52000000D03*
D14*
X30000000Y-37275000D03*
X30000000Y-35725000D03*
D21*
X23775000Y-42500000D03*
X26725000Y-42500000D03*
D22*
X25225000Y-40000000D03*
X26775000Y-40000000D03*
D21*
X23775000Y-45750000D03*
X26725000Y-45750000D03*
D23*
X30000000Y-32725000D03*
X30000000Y-34275000D03*
D14*
X24500000Y-36725000D03*
X24500000Y-38275000D03*
D24*
X22000000Y-39725000D03*
X22000000Y-36775000D03*
D25*
X28600000Y-21100000D03*
X29400000Y-21100000D03*
X30100000Y-21100000D03*
X27900000Y-21100000D03*
X28600000Y-24900000D03*
X29400000Y-24900000D03*
X30100000Y-24900000D03*
X27900000Y-24900000D03*
X35000000Y-25250000D03*
X34000000Y-31000000D03*
X30000000Y-29000000D03*
X28000000Y-29000000D03*
X28250000Y-56750000D03*
X28250000Y-56000000D03*
X28250000Y-55250000D03*
X29750000Y-56750000D03*
X29750000Y-56000000D03*
X29750000Y-55250000D03*
X26750000Y-56000000D03*
X26750000Y-56750000D03*
X26750000Y-55250000D03*
X24750000Y-35250000D03*
X26000000Y-48000000D03*
X26675000Y-32675000D03*
X31250000Y-33000000D03*
X31250000Y-32250000D03*
X26250000Y-38500000D03*
X25500000Y-38500000D03*
X26250000Y-35250000D03*
X27000000Y-35250000D03*
X24000000Y-40250000D03*
X24000000Y-39500000D03*
X21250000Y-46750000D03*
X21250000Y-45750000D03*
X21250000Y-44750000D03*
X21250000Y-43250000D03*
X21250000Y-42250000D03*
X22500000Y-46750000D03*
X22500000Y-45750000D03*
X22500000Y-44750000D03*
X22500000Y-43250000D03*
X22500000Y-42250000D03*
X22500000Y-41250000D03*
X21250000Y-41250000D03*
D26*
X34425000Y-24675000D02*
X35000000Y-25250000D01*
X34000000Y-24675000D02*
X34425000Y-24675000D01*
X31700000Y-22365000D02*
X31845552Y-22365000D01*
X31845552Y-22365000D02*
X33000000Y-23519448D01*
X33000000Y-23519448D02*
X33000000Y-25325000D01*
X33000000Y-25325000D02*
X34000000Y-26325000D01*
X34000000Y-26325000D02*
X34000000Y-28175000D01*
X31075000Y-26925000D02*
X33400000Y-26925000D01*
X33400000Y-26925000D02*
X34000000Y-26325000D01*
X26925000Y-26925000D02*
X31075000Y-26925000D01*
X24000000Y-23675000D02*
X26260000Y-23675000D01*
X26260000Y-23675000D02*
X26300000Y-23635000D01*
X26675000Y-32675000D02*
X28000000Y-32675000D01*
X26000000Y-48000000D02*
X26725000Y-47275000D01*
X26725000Y-47275000D02*
X26725000Y-45750000D01*
X28000000Y-34325000D02*
X26400000Y-34325000D01*
X26400000Y-34325000D02*
X26325000Y-34250000D01*
X27740000Y-36250000D02*
X28000000Y-35990000D01*
X28000000Y-35990000D02*
X28000000Y-34325000D01*
D27*
X27740000Y-37250000D02*
X28475000Y-37250000D01*
X28475000Y-37250000D02*
X30000000Y-35725000D01*
X27740000Y-36750000D02*
X28192072Y-36750000D01*
X28192072Y-36750000D02*
X29000000Y-35942072D01*
X29000000Y-35942072D02*
X29000000Y-35275000D01*
X29000000Y-35275000D02*
X30000000Y-34275000D01*
G04 #@! TA.AperFunction,Conductor*
G36*
X112003032Y-16500648D02*
G01*
X112336929Y-16517052D01*
X112349037Y-16518245D01*
X112452146Y-16533539D01*
X112676699Y-16566849D01*
X112688617Y-16569219D01*
X113009951Y-16649709D01*
X113021588Y-16653240D01*
X113092806Y-16678722D01*
X113333467Y-16764832D01*
X113344688Y-16769479D01*
X113644163Y-16911120D01*
X113654871Y-16916844D01*
X113938988Y-17087137D01*
X113949106Y-17093897D01*
X114215170Y-17291224D01*
X114224576Y-17298944D01*
X114470013Y-17521395D01*
X114478604Y-17529986D01*
X114665755Y-17736475D01*
X114701055Y-17775423D01*
X114708775Y-17784829D01*
X114906102Y-18050893D01*
X114912862Y-18061011D01*
X115041776Y-18276092D01*
X115083148Y-18345116D01*
X115088885Y-18355848D01*
X115230514Y-18655297D01*
X115235170Y-18666540D01*
X115346759Y-18978411D01*
X115350292Y-18990055D01*
X115430777Y-19311369D01*
X115433151Y-19323305D01*
X115481754Y-19650962D01*
X115482947Y-19663071D01*
X115499351Y-19996966D01*
X115499500Y-20003051D01*
X115499500Y-55996948D01*
X115499351Y-56003033D01*
X115482947Y-56336928D01*
X115481754Y-56349037D01*
X115433151Y-56676694D01*
X115430777Y-56688630D01*
X115350292Y-57009944D01*
X115346759Y-57021588D01*
X115235170Y-57333459D01*
X115230514Y-57344702D01*
X115088885Y-57644151D01*
X115083148Y-57654883D01*
X114912862Y-57938988D01*
X114906102Y-57949106D01*
X114708775Y-58215170D01*
X114701055Y-58224576D01*
X114478611Y-58470006D01*
X114470006Y-58478611D01*
X114224576Y-58701055D01*
X114215170Y-58708775D01*
X113949106Y-58906102D01*
X113938988Y-58912862D01*
X113654883Y-59083148D01*
X113644151Y-59088885D01*
X113344702Y-59230514D01*
X113333459Y-59235170D01*
X113021588Y-59346759D01*
X113009944Y-59350292D01*
X112688630Y-59430777D01*
X112676694Y-59433151D01*
X112349037Y-59481754D01*
X112336928Y-59482947D01*
X112021989Y-59498419D01*
X112003031Y-59499351D01*
X111996949Y-59499500D01*
X106212882Y-59499500D01*
X106145843Y-59479815D01*
X106103524Y-59433953D01*
X106103095Y-59433151D01*
X106081877Y-59393453D01*
X106072575Y-59370998D01*
X106066294Y-59350292D01*
X106022757Y-59206769D01*
X106018018Y-59182941D01*
X106000597Y-59006061D01*
X106000000Y-58993907D01*
X106000000Y-55385837D01*
X110349500Y-55385837D01*
X110349500Y-55614162D01*
X110385215Y-55839660D01*
X110455770Y-56056803D01*
X110526948Y-56196496D01*
X110559421Y-56260228D01*
X110693621Y-56444937D01*
X110855063Y-56606379D01*
X111039772Y-56740579D01*
X111135884Y-56789550D01*
X111243196Y-56844229D01*
X111243198Y-56844229D01*
X111243201Y-56844231D01*
X111359592Y-56882049D01*
X111460339Y-56914784D01*
X111685838Y-56950500D01*
X111685843Y-56950500D01*
X111914162Y-56950500D01*
X112139660Y-56914784D01*
X112356799Y-56844231D01*
X112560228Y-56740579D01*
X112744937Y-56606379D01*
X112906379Y-56444937D01*
X113040579Y-56260228D01*
X113144231Y-56056799D01*
X113214784Y-55839660D01*
X113250500Y-55614162D01*
X113250500Y-55385837D01*
X113214784Y-55160339D01*
X113144229Y-54943196D01*
X113040578Y-54739771D01*
X112906379Y-54555063D01*
X112744937Y-54393621D01*
X112560228Y-54259421D01*
X112356803Y-54155770D01*
X112139660Y-54085215D01*
X111914162Y-54049500D01*
X111914157Y-54049500D01*
X111685843Y-54049500D01*
X111685838Y-54049500D01*
X111460339Y-54085215D01*
X111243196Y-54155770D01*
X111039771Y-54259421D01*
X110855061Y-54393622D01*
X110693622Y-54555061D01*
X110559421Y-54739771D01*
X110455770Y-54943196D01*
X110385215Y-55160339D01*
X110349500Y-55385837D01*
X106000000Y-55385837D01*
X106000000Y-47549995D01*
X110045093Y-47549995D01*
X110045093Y-47550004D01*
X110064692Y-47811545D01*
X110064693Y-47811550D01*
X110123058Y-48067270D01*
X110218883Y-48311426D01*
X110218882Y-48311426D01*
X110350029Y-48538576D01*
X110397873Y-48598572D01*
X111235387Y-47761058D01*
X111240889Y-47781591D01*
X111319881Y-47918408D01*
X111431592Y-48030119D01*
X111568409Y-48109111D01*
X111588940Y-48114612D01*
X110750830Y-48952720D01*
X110922546Y-49069793D01*
X110922550Y-49069795D01*
X111158854Y-49183594D01*
X111158858Y-49183595D01*
X111409494Y-49260907D01*
X111409500Y-49260909D01*
X111668848Y-49299999D01*
X111668857Y-49300000D01*
X111931143Y-49300000D01*
X111931151Y-49299999D01*
X112190499Y-49260909D01*
X112190505Y-49260907D01*
X112441143Y-49183595D01*
X112677445Y-49069798D01*
X112677447Y-49069797D01*
X112849168Y-48952720D01*
X112011059Y-48114612D01*
X112031591Y-48109111D01*
X112168408Y-48030119D01*
X112280119Y-47918408D01*
X112359111Y-47781591D01*
X112364612Y-47761059D01*
X113202125Y-48598572D01*
X113249971Y-48538573D01*
X113381116Y-48311426D01*
X113476941Y-48067270D01*
X113535306Y-47811550D01*
X113535307Y-47811545D01*
X113554907Y-47550004D01*
X113554907Y-47549995D01*
X113535307Y-47288454D01*
X113535306Y-47288449D01*
X113476941Y-47032729D01*
X113381116Y-46788573D01*
X113381117Y-46788573D01*
X113249972Y-46561426D01*
X113202124Y-46501427D01*
X112364612Y-47338939D01*
X112359111Y-47318409D01*
X112280119Y-47181592D01*
X112168408Y-47069881D01*
X112031591Y-46990889D01*
X112011058Y-46985387D01*
X112849168Y-46147278D01*
X112677454Y-46030206D01*
X112677445Y-46030201D01*
X112441142Y-45916404D01*
X112441144Y-45916404D01*
X112190505Y-45839092D01*
X112190499Y-45839090D01*
X111931151Y-45800000D01*
X111668848Y-45800000D01*
X111409500Y-45839090D01*
X111409494Y-45839092D01*
X111158858Y-45916404D01*
X111158854Y-45916405D01*
X110922547Y-46030205D01*
X110922539Y-46030210D01*
X110750830Y-46147277D01*
X111588941Y-46985387D01*
X111568409Y-46990889D01*
X111431592Y-47069881D01*
X111319881Y-47181592D01*
X111240889Y-47318409D01*
X111235387Y-47338940D01*
X110397874Y-46501427D01*
X110350028Y-46561425D01*
X110218883Y-46788573D01*
X110123058Y-47032729D01*
X110064693Y-47288449D01*
X110064692Y-47288454D01*
X110045093Y-47549995D01*
X106000000Y-47549995D01*
X106000000Y-28449995D01*
X110045093Y-28449995D01*
X110045093Y-28450004D01*
X110064692Y-28711545D01*
X110064693Y-28711550D01*
X110123058Y-28967270D01*
X110218883Y-29211426D01*
X110218882Y-29211426D01*
X110350029Y-29438576D01*
X110397873Y-29498572D01*
X111235387Y-28661058D01*
X111240889Y-28681591D01*
X111319881Y-28818408D01*
X111431592Y-28930119D01*
X111568409Y-29009111D01*
X111588940Y-29014612D01*
X110750830Y-29852720D01*
X110922546Y-29969793D01*
X110922550Y-29969795D01*
X111158854Y-30083594D01*
X111158858Y-30083595D01*
X111409494Y-30160907D01*
X111409500Y-30160909D01*
X111668848Y-30199999D01*
X111668857Y-30200000D01*
X111931143Y-30200000D01*
X111931151Y-30199999D01*
X112190499Y-30160909D01*
X112190505Y-30160907D01*
X112441143Y-30083595D01*
X112677445Y-29969798D01*
X112677447Y-29969797D01*
X112849168Y-29852720D01*
X112011059Y-29014612D01*
X112031591Y-29009111D01*
X112168408Y-28930119D01*
X112280119Y-28818408D01*
X112359111Y-28681591D01*
X112364612Y-28661059D01*
X113202125Y-29498572D01*
X113249971Y-29438573D01*
X113381116Y-29211426D01*
X113476941Y-28967270D01*
X113535306Y-28711550D01*
X113535307Y-28711545D01*
X113554907Y-28450004D01*
X113554907Y-28449995D01*
X113535307Y-28188454D01*
X113535306Y-28188449D01*
X113476941Y-27932729D01*
X113381116Y-27688573D01*
X113381117Y-27688573D01*
X113249972Y-27461426D01*
X113202124Y-27401427D01*
X112364612Y-28238939D01*
X112359111Y-28218409D01*
X112280119Y-28081592D01*
X112168408Y-27969881D01*
X112031591Y-27890889D01*
X112011058Y-27885387D01*
X112849168Y-27047278D01*
X112677454Y-26930206D01*
X112677445Y-26930201D01*
X112441142Y-26816404D01*
X112441144Y-26816404D01*
X112190505Y-26739092D01*
X112190499Y-26739090D01*
X111931151Y-26700000D01*
X111668848Y-26700000D01*
X111409500Y-26739090D01*
X111409494Y-26739092D01*
X111158858Y-26816404D01*
X111158854Y-26816405D01*
X110922547Y-26930205D01*
X110922539Y-26930210D01*
X110750830Y-27047277D01*
X111588941Y-27885387D01*
X111568409Y-27890889D01*
X111431592Y-27969881D01*
X111319881Y-28081592D01*
X111240889Y-28218409D01*
X111235387Y-28238940D01*
X110397874Y-27401427D01*
X110350028Y-27461425D01*
X110218883Y-27688573D01*
X110123058Y-27932729D01*
X110064693Y-28188449D01*
X110064692Y-28188454D01*
X110045093Y-28449995D01*
X106000000Y-28449995D01*
X106000000Y-17006092D01*
X106000597Y-16993938D01*
X106018018Y-16817056D01*
X106022757Y-16793232D01*
X106072577Y-16628994D01*
X106081873Y-16606553D01*
X106103526Y-16566043D01*
X106152487Y-16516202D01*
X106212882Y-16500500D01*
X111934108Y-16500500D01*
X111996949Y-16500500D01*
X112003032Y-16500648D01*
G37*
G04 #@! TD.AperFunction*
G04 #@! TA.AperFunction,Conductor*
G36*
X24757574Y-36001180D02*
G01*
X24886861Y-36021322D01*
X24915895Y-36030594D01*
X24970940Y-36058116D01*
X25025988Y-36085640D01*
X25050824Y-36103303D01*
X25144511Y-36194648D01*
X25154599Y-36206132D01*
X25599995Y-36799994D01*
X25599997Y-36799996D01*
X25750000Y-37000000D01*
X25773952Y-37000000D01*
X25794397Y-37030599D01*
X25794399Y-37030601D01*
X25877260Y-37085966D01*
X25932808Y-37097015D01*
X25950315Y-37100498D01*
X25950320Y-37100498D01*
X25950326Y-37100500D01*
X25950327Y-37100500D01*
X26389015Y-37100500D01*
X26447206Y-37119407D01*
X26483170Y-37168907D01*
X26486113Y-37180186D01*
X26496158Y-37230686D01*
X26496158Y-37269314D01*
X26486113Y-37319814D01*
X26456216Y-37373198D01*
X26400651Y-37398814D01*
X26389015Y-37399500D01*
X25950326Y-37399500D01*
X25950325Y-37399500D01*
X25950315Y-37399501D01*
X25877263Y-37414033D01*
X25877257Y-37414035D01*
X25794401Y-37469397D01*
X25792795Y-37471004D01*
X25789434Y-37472716D01*
X25786292Y-37474816D01*
X25786043Y-37474443D01*
X25738278Y-37498781D01*
X25722791Y-37500000D01*
X20500000Y-37500000D01*
X20500000Y-36000000D01*
X24000000Y-36000000D01*
X24000001Y-36000000D01*
X24742334Y-36000000D01*
X24757574Y-36001180D01*
G37*
G04 #@! TD.AperFunction*
G04 #@! TA.AperFunction,Conductor*
G36*
X30805104Y-36875631D02*
G01*
X30855657Y-36896447D01*
X34433621Y-38369726D01*
X34446645Y-38376250D01*
X34553958Y-38440304D01*
X34576481Y-38458729D01*
X34655549Y-38545738D01*
X34671742Y-38569919D01*
X34722092Y-38676158D01*
X34730556Y-38704005D01*
X34748925Y-38827612D01*
X34750000Y-38842164D01*
X34750000Y-39993511D01*
X34749153Y-40006433D01*
X34734664Y-40116487D01*
X34727975Y-40141451D01*
X34688001Y-40237957D01*
X34675079Y-40260339D01*
X34611487Y-40343213D01*
X34593213Y-40361487D01*
X34510339Y-40425079D01*
X34487957Y-40438001D01*
X34391451Y-40477975D01*
X34366487Y-40484664D01*
X34256434Y-40499153D01*
X34243512Y-40500000D01*
X29756488Y-40500000D01*
X29743566Y-40499153D01*
X29633512Y-40484664D01*
X29608548Y-40477975D01*
X29512042Y-40438001D01*
X29489660Y-40425079D01*
X29406783Y-40361484D01*
X29388515Y-40343216D01*
X29324918Y-40260336D01*
X29312000Y-40237960D01*
X29272023Y-40141447D01*
X29265336Y-40116489D01*
X29250847Y-40006432D01*
X29250000Y-39993511D01*
X29250000Y-39515601D01*
X29250000Y-39515598D01*
X29250000Y-39250000D01*
X29029930Y-39101304D01*
X29029929Y-39101303D01*
X29029926Y-39101301D01*
X29029921Y-39101297D01*
X27947186Y-38369720D01*
X27613835Y-38144483D01*
X27601283Y-38134424D01*
X27508086Y-38046380D01*
X27488644Y-38020861D01*
X27432342Y-37914869D01*
X27422083Y-37884477D01*
X27402911Y-37767726D01*
X27403506Y-37732372D01*
X27413888Y-37680184D01*
X27443785Y-37626801D01*
X27499351Y-37601186D01*
X27510985Y-37600500D01*
X28521142Y-37600500D01*
X28521144Y-37600500D01*
X28610288Y-37576614D01*
X28685045Y-37533453D01*
X29325000Y-37533453D01*
X29340760Y-37632965D01*
X29340762Y-37632969D01*
X29401881Y-37752921D01*
X29497078Y-37848118D01*
X29617030Y-37909237D01*
X29617029Y-37909237D01*
X29716545Y-37924999D01*
X29900000Y-37924999D01*
X29900000Y-37375001D01*
X30100000Y-37375001D01*
X30100000Y-37924998D01*
X30100001Y-37924999D01*
X30283453Y-37924999D01*
X30382965Y-37909239D01*
X30382969Y-37909237D01*
X30502921Y-37848118D01*
X30598118Y-37752921D01*
X30659237Y-37632969D01*
X30675000Y-37533453D01*
X30675000Y-37375001D01*
X30674999Y-37375000D01*
X30100001Y-37375000D01*
X30100000Y-37375001D01*
X29900000Y-37375001D01*
X29899999Y-37375000D01*
X29325002Y-37375000D01*
X29325001Y-37375001D01*
X29325001Y-37533453D01*
X29325000Y-37533453D01*
X28685045Y-37533453D01*
X28690212Y-37530470D01*
X28720682Y-37500000D01*
X28750000Y-37500000D01*
X29155998Y-37094001D01*
X29210513Y-37066225D01*
X29270945Y-37075796D01*
X29314210Y-37119061D01*
X29325000Y-37164006D01*
X29325000Y-37174999D01*
X29325001Y-37175000D01*
X30674998Y-37175000D01*
X30674999Y-37174999D01*
X30674999Y-37016547D01*
X30669632Y-36982662D01*
X30679203Y-36922230D01*
X30722468Y-36878965D01*
X30782900Y-36869394D01*
X30805104Y-36875631D01*
G37*
G04 #@! TD.AperFunction*
G04 #@! TA.AperFunction,Conductor*
G36*
X27197767Y-39250945D02*
G01*
X27313969Y-39267130D01*
X27340227Y-39274590D01*
X27441234Y-39319114D01*
X27464462Y-39333469D01*
X27549457Y-39403901D01*
X27567878Y-39424058D01*
X27634314Y-39520743D01*
X27641264Y-39532529D01*
X27991204Y-40232407D01*
X28861797Y-41973596D01*
X28861800Y-41973601D01*
X28861803Y-41973607D01*
X28861804Y-41973609D01*
X29000000Y-42250000D01*
X34243512Y-42250000D01*
X34256433Y-42250847D01*
X34271739Y-42252862D01*
X34366489Y-42265336D01*
X34391447Y-42272023D01*
X34487960Y-42312000D01*
X34510336Y-42324918D01*
X34593216Y-42388515D01*
X34611484Y-42406783D01*
X34675079Y-42489660D01*
X34688001Y-42512042D01*
X34727975Y-42608548D01*
X34734664Y-42633512D01*
X34749153Y-42743566D01*
X34750000Y-42756488D01*
X34750000Y-52993511D01*
X34749153Y-53006433D01*
X34734664Y-53116487D01*
X34727975Y-53141451D01*
X34688001Y-53237957D01*
X34675079Y-53260339D01*
X34611487Y-53343213D01*
X34593213Y-53361487D01*
X34510339Y-53425079D01*
X34487957Y-53438001D01*
X34391451Y-53477975D01*
X34366487Y-53484664D01*
X34256434Y-53499153D01*
X34243512Y-53500000D01*
X20006488Y-53500000D01*
X19993566Y-53499153D01*
X19883512Y-53484664D01*
X19858548Y-53477975D01*
X19762042Y-53438001D01*
X19739660Y-53425079D01*
X19656783Y-53361484D01*
X19638515Y-53343216D01*
X19574918Y-53260336D01*
X19562000Y-53237960D01*
X19522023Y-53141447D01*
X19515336Y-53116489D01*
X19500847Y-53006432D01*
X19500000Y-52993511D01*
X19500000Y-49863134D01*
X19501179Y-49847899D01*
X19521310Y-49718644D01*
X19530577Y-49689616D01*
X19585596Y-49579543D01*
X19603248Y-49554714D01*
X19689140Y-49466585D01*
X19713511Y-49448298D01*
X19828983Y-49386818D01*
X19842968Y-49380706D01*
X24914260Y-47616779D01*
X24914259Y-47616779D01*
X25250000Y-47500000D01*
X25250000Y-41275719D01*
X25251325Y-41259576D01*
X25254506Y-41240323D01*
X25273923Y-41122846D01*
X25284308Y-41092285D01*
X25345818Y-40977356D01*
X25365484Y-40951763D01*
X25466726Y-40857105D01*
X25479397Y-40847068D01*
X25777350Y-40648433D01*
X26000000Y-40500000D01*
X26000000Y-39756488D01*
X26000847Y-39743567D01*
X26002511Y-39730923D01*
X26015336Y-39633508D01*
X26022022Y-39608554D01*
X26062001Y-39512035D01*
X26074916Y-39489666D01*
X26138518Y-39406779D01*
X26156779Y-39388518D01*
X26239666Y-39324916D01*
X26262035Y-39312001D01*
X26358554Y-39272022D01*
X26383508Y-39265336D01*
X26480923Y-39252511D01*
X26493567Y-39250847D01*
X26506488Y-39250000D01*
X27184125Y-39250000D01*
X27197767Y-39250945D01*
G37*
G04 #@! TD.AperFunction*
G04 #@! TA.AperFunction,Conductor*
G36*
X27699500Y-35011007D02*
G01*
X27699500Y-35800500D01*
X27680593Y-35858691D01*
X27631093Y-35894655D01*
X27600500Y-35899500D01*
X27430326Y-35899500D01*
X27430325Y-35899500D01*
X27430315Y-35899501D01*
X27357263Y-35914033D01*
X27357257Y-35914035D01*
X27274400Y-35969397D01*
X27274397Y-35969400D01*
X27219035Y-36052257D01*
X27219033Y-36052263D01*
X27204501Y-36125315D01*
X27204500Y-36125327D01*
X27204500Y-36374672D01*
X27204501Y-36374684D01*
X27219033Y-36447736D01*
X27219034Y-36447740D01*
X27219035Y-36447742D01*
X27222766Y-36456749D01*
X27220751Y-36457583D01*
X27233811Y-36503888D01*
X27221227Y-36542613D01*
X27222766Y-36543251D01*
X27219033Y-36552263D01*
X27204501Y-36625315D01*
X27204500Y-36625327D01*
X27204500Y-36874672D01*
X27204501Y-36874684D01*
X27219033Y-36947736D01*
X27219034Y-36947740D01*
X27219035Y-36947742D01*
X27222766Y-36956749D01*
X27220751Y-36957583D01*
X27233811Y-37003888D01*
X27221227Y-37042613D01*
X27222766Y-37043251D01*
X27219033Y-37052263D01*
X27204501Y-37125315D01*
X27204500Y-37125327D01*
X27204500Y-37374672D01*
X27204501Y-37374684D01*
X27219033Y-37447736D01*
X27219034Y-37447740D01*
X27219035Y-37447742D01*
X27222766Y-37456749D01*
X27220751Y-37457583D01*
X27233811Y-37503888D01*
X27221227Y-37542613D01*
X27222766Y-37543251D01*
X27219033Y-37552263D01*
X27204501Y-37625315D01*
X27204500Y-37625327D01*
X27204500Y-37669731D01*
X27202599Y-37689040D01*
X27201953Y-37692284D01*
X27201953Y-37692287D01*
X27199690Y-37713445D01*
X27199690Y-37713450D01*
X27198035Y-37728911D01*
X27198034Y-37728921D01*
X27197440Y-37764271D01*
X27200126Y-37801023D01*
X27200126Y-37801024D01*
X27203192Y-37819690D01*
X27204500Y-37835732D01*
X27204500Y-37874672D01*
X27204501Y-37874684D01*
X27219033Y-37947736D01*
X27219035Y-37947742D01*
X27226970Y-37959618D01*
X27237082Y-37979149D01*
X27237642Y-37980608D01*
X27250847Y-38011252D01*
X27250857Y-38011272D01*
X27307159Y-38117264D01*
X27320069Y-38137419D01*
X27325174Y-38145390D01*
X27325192Y-38145415D01*
X27344618Y-38170914D01*
X27344627Y-38170925D01*
X27366948Y-38195745D01*
X27366967Y-38195765D01*
X27460157Y-38283803D01*
X27472764Y-38294777D01*
X27472773Y-38294784D01*
X27485325Y-38304843D01*
X27497426Y-38313757D01*
X27498788Y-38314761D01*
X27832135Y-38539995D01*
X28912160Y-39269741D01*
X28912166Y-39269746D01*
X29000926Y-39329719D01*
X29038557Y-39377964D01*
X29044500Y-39411749D01*
X29044500Y-39993511D01*
X29044939Y-40006952D01*
X29045786Y-40019872D01*
X29046594Y-40028075D01*
X29047105Y-40033255D01*
X29047106Y-40033260D01*
X29061592Y-40143301D01*
X29061593Y-40143311D01*
X29063086Y-40150815D01*
X29066837Y-40169673D01*
X29067847Y-40173446D01*
X29073524Y-40194634D01*
X29073526Y-40194641D01*
X29082159Y-40220071D01*
X29082167Y-40220090D01*
X29122140Y-40316595D01*
X29122143Y-40316601D01*
X29134029Y-40340705D01*
X29146947Y-40363081D01*
X29161885Y-40385438D01*
X29225470Y-40468302D01*
X29225484Y-40468320D01*
X29225495Y-40468334D01*
X29243201Y-40488522D01*
X29261476Y-40506797D01*
X29281664Y-40524503D01*
X29281673Y-40524510D01*
X29281681Y-40524517D01*
X29364558Y-40588112D01*
X29386912Y-40603048D01*
X29409294Y-40615970D01*
X29433401Y-40627858D01*
X29529907Y-40667832D01*
X29555361Y-40676473D01*
X29580325Y-40683162D01*
X29606689Y-40688406D01*
X29606698Y-40688407D01*
X29606702Y-40688408D01*
X29642230Y-40693085D01*
X29716743Y-40702895D01*
X29730125Y-40704213D01*
X29743047Y-40705060D01*
X29756488Y-40705500D01*
X34243512Y-40705500D01*
X34256953Y-40705060D01*
X34269875Y-40704213D01*
X34281613Y-40703056D01*
X34283269Y-40702894D01*
X34338284Y-40695650D01*
X34393311Y-40688406D01*
X34419674Y-40683162D01*
X34419682Y-40683160D01*
X34422534Y-40682395D01*
X34444638Y-40676473D01*
X34470092Y-40667832D01*
X34566598Y-40627858D01*
X34590705Y-40615970D01*
X34613087Y-40603048D01*
X34635440Y-40588113D01*
X34718314Y-40524521D01*
X34738523Y-40506797D01*
X34756797Y-40488523D01*
X34774521Y-40468314D01*
X34838113Y-40385440D01*
X34853048Y-40363087D01*
X34865970Y-40340705D01*
X34877858Y-40316598D01*
X34917832Y-40220092D01*
X34926473Y-40194638D01*
X34933162Y-40169674D01*
X34938406Y-40143310D01*
X34938776Y-40140504D01*
X34952894Y-40033260D01*
X34952895Y-40033256D01*
X34954213Y-40019874D01*
X34955060Y-40006952D01*
X34955500Y-39993511D01*
X34955500Y-38842164D01*
X34954942Y-38827024D01*
X34953867Y-38812472D01*
X34952193Y-38797405D01*
X34933824Y-38673798D01*
X34927174Y-38644243D01*
X34918710Y-38616396D01*
X34907792Y-38588149D01*
X34857442Y-38481910D01*
X34842492Y-38455575D01*
X34826302Y-38431399D01*
X34826302Y-38431397D01*
X34807630Y-38407528D01*
X34728573Y-38320531D01*
X34728568Y-38320526D01*
X34706599Y-38299671D01*
X34684083Y-38281251D01*
X34684077Y-38281247D01*
X34659277Y-38263844D01*
X34659274Y-38263841D01*
X34551991Y-38199806D01*
X34551980Y-38199800D01*
X34551970Y-38199794D01*
X34538683Y-38192513D01*
X34525659Y-38185989D01*
X34525644Y-38185982D01*
X34511870Y-38179707D01*
X30933901Y-36706426D01*
X30883358Y-36685614D01*
X30883345Y-36685609D01*
X30860689Y-36677792D01*
X30860686Y-36677791D01*
X30860677Y-36677788D01*
X30842913Y-36672798D01*
X30838470Y-36671550D01*
X30750756Y-36666423D01*
X30750754Y-36666423D01*
X30690344Y-36675990D01*
X30690326Y-36675994D01*
X30654596Y-36684996D01*
X30617955Y-36708020D01*
X30558624Y-36722970D01*
X30507093Y-36704287D01*
X30503214Y-36701468D01*
X30383132Y-36640283D01*
X30383127Y-36640281D01*
X30383126Y-36640281D01*
X30349913Y-36635020D01*
X30283490Y-36624500D01*
X30283488Y-36624500D01*
X29835189Y-36624500D01*
X29776998Y-36605593D01*
X29741034Y-36556093D01*
X29741034Y-36494907D01*
X29765183Y-36455497D01*
X29816186Y-36404495D01*
X29870702Y-36376719D01*
X29886189Y-36375500D01*
X30283490Y-36375500D01*
X30304885Y-36372111D01*
X30383126Y-36359719D01*
X30503220Y-36298528D01*
X30598528Y-36203220D01*
X30659719Y-36083126D01*
X30675500Y-35983488D01*
X30675500Y-35466512D01*
X30659719Y-35366874D01*
X30659716Y-35366869D01*
X30659716Y-35366867D01*
X30598529Y-35246782D01*
X30598528Y-35246780D01*
X30503220Y-35151472D01*
X30503217Y-35151470D01*
X30379061Y-35088209D01*
X30335796Y-35044945D01*
X30328678Y-35000000D01*
X37000000Y-35000000D01*
X37000000Y-59499500D01*
X22002436Y-59499500D01*
X21997578Y-59499381D01*
X21661838Y-59482887D01*
X21652170Y-59481934D01*
X21322096Y-59432972D01*
X21312567Y-59431077D01*
X20988868Y-59349995D01*
X20979571Y-59347175D01*
X20665378Y-59234754D01*
X20656402Y-59231036D01*
X20354741Y-59088361D01*
X20346173Y-59083781D01*
X20059950Y-58912226D01*
X20051872Y-58906828D01*
X19783849Y-58708048D01*
X19776339Y-58701885D01*
X19529083Y-58477786D01*
X19522218Y-58470921D01*
X19298114Y-58223660D01*
X19291951Y-58216150D01*
X19093171Y-57948127D01*
X19087773Y-57940049D01*
X18958223Y-57723908D01*
X18916216Y-57653823D01*
X18911638Y-57645258D01*
X18768963Y-57343597D01*
X18765245Y-57334621D01*
X18652820Y-57020415D01*
X18650008Y-57011144D01*
X18568919Y-56687421D01*
X18567029Y-56677915D01*
X18518063Y-56347815D01*
X18517113Y-56338173D01*
X18500619Y-56002421D01*
X18500500Y-55997564D01*
X18500500Y-49863133D01*
X19294500Y-49863133D01*
X19294500Y-52993511D01*
X19294939Y-53006952D01*
X19295786Y-53019872D01*
X19296594Y-53028075D01*
X19297105Y-53033255D01*
X19297106Y-53033260D01*
X19311592Y-53143301D01*
X19311593Y-53143311D01*
X19316835Y-53169665D01*
X19316837Y-53169673D01*
X19317847Y-53173446D01*
X19323524Y-53194634D01*
X19323526Y-53194641D01*
X19332159Y-53220071D01*
X19332167Y-53220090D01*
X19372140Y-53316595D01*
X19372143Y-53316601D01*
X19384029Y-53340705D01*
X19396947Y-53363081D01*
X19411885Y-53385438D01*
X19475470Y-53468302D01*
X19475484Y-53468320D01*
X19475495Y-53468334D01*
X19493201Y-53488522D01*
X19511476Y-53506797D01*
X19531664Y-53524503D01*
X19531673Y-53524510D01*
X19531681Y-53524517D01*
X19614558Y-53588112D01*
X19636912Y-53603048D01*
X19659294Y-53615970D01*
X19683401Y-53627858D01*
X19779907Y-53667832D01*
X19805361Y-53676473D01*
X19830325Y-53683162D01*
X19856689Y-53688406D01*
X19856698Y-53688407D01*
X19856702Y-53688408D01*
X19892230Y-53693085D01*
X19966743Y-53702895D01*
X19980125Y-53704213D01*
X19993047Y-53705060D01*
X20006488Y-53705500D01*
X34243512Y-53705500D01*
X34256953Y-53705060D01*
X34269875Y-53704213D01*
X34281613Y-53703056D01*
X34283269Y-53702894D01*
X34338284Y-53695650D01*
X34393311Y-53688406D01*
X34419674Y-53683162D01*
X34419682Y-53683160D01*
X34422534Y-53682395D01*
X34444638Y-53676473D01*
X34470092Y-53667832D01*
X34566598Y-53627858D01*
X34590705Y-53615970D01*
X34613087Y-53603048D01*
X34635440Y-53588113D01*
X34718314Y-53524521D01*
X34738523Y-53506797D01*
X34756797Y-53488523D01*
X34774521Y-53468314D01*
X34838113Y-53385440D01*
X34853048Y-53363087D01*
X34865970Y-53340705D01*
X34877858Y-53316598D01*
X34917832Y-53220092D01*
X34926473Y-53194638D01*
X34933162Y-53169674D01*
X34938406Y-53143310D01*
X34952895Y-53033256D01*
X34954213Y-53019874D01*
X34955060Y-53006952D01*
X34955500Y-52993511D01*
X34955500Y-42756488D01*
X34955060Y-42743047D01*
X34954213Y-42730125D01*
X34952895Y-42716743D01*
X34938406Y-42606689D01*
X34933162Y-42580325D01*
X34926473Y-42555361D01*
X34917832Y-42529907D01*
X34877858Y-42433401D01*
X34865970Y-42409294D01*
X34853048Y-42386912D01*
X34838112Y-42364558D01*
X34774517Y-42281681D01*
X34774510Y-42281673D01*
X34774503Y-42281664D01*
X34756797Y-42261476D01*
X34738522Y-42243201D01*
X34718334Y-42225495D01*
X34718320Y-42225484D01*
X34718318Y-42225482D01*
X34635438Y-42161885D01*
X34613081Y-42146947D01*
X34590705Y-42134029D01*
X34566604Y-42122144D01*
X34470090Y-42082167D01*
X34470071Y-42082159D01*
X34444641Y-42073526D01*
X34444634Y-42073524D01*
X34428117Y-42069099D01*
X34419673Y-42066837D01*
X34419667Y-42066835D01*
X34419666Y-42066835D01*
X34393311Y-42061593D01*
X34393304Y-42061592D01*
X34295349Y-42048697D01*
X34295340Y-42048695D01*
X34283264Y-42047106D01*
X34283258Y-42047105D01*
X34283255Y-42047105D01*
X34280816Y-42046864D01*
X34269870Y-42045786D01*
X34256953Y-42044939D01*
X34243512Y-42044500D01*
X29188191Y-42044500D01*
X29130000Y-42025593D01*
X29099643Y-41989774D01*
X29045017Y-41880522D01*
X29044972Y-41880434D01*
X28180164Y-40150815D01*
X28180164Y-40150814D01*
X27825068Y-39440622D01*
X27818285Y-39428155D01*
X27811331Y-39416364D01*
X27811329Y-39416360D01*
X27803683Y-39404363D01*
X27791693Y-39386914D01*
X27737248Y-39307679D01*
X27734082Y-39303693D01*
X27719574Y-39285427D01*
X27701153Y-39265270D01*
X27701149Y-39265266D01*
X27680585Y-39245674D01*
X27680568Y-39245658D01*
X27619867Y-39195359D01*
X27595586Y-39175238D01*
X27584948Y-39167599D01*
X27572496Y-39158658D01*
X27572494Y-39158656D01*
X27572486Y-39158651D01*
X27549289Y-39144315D01*
X27549254Y-39144295D01*
X27524129Y-39131075D01*
X27524127Y-39131074D01*
X27524123Y-39131072D01*
X27423116Y-39086548D01*
X27423110Y-39086546D01*
X27423106Y-39086544D01*
X27396380Y-39076910D01*
X27370141Y-39069456D01*
X27370139Y-39069455D01*
X27370130Y-39069453D01*
X27342318Y-39063595D01*
X27342306Y-39063593D01*
X27342300Y-39063592D01*
X27226123Y-39047410D01*
X27211963Y-39045935D01*
X27198336Y-39044991D01*
X27185416Y-39044544D01*
X27184125Y-39044500D01*
X26506488Y-39044500D01*
X26493046Y-39044939D01*
X26480109Y-39045788D01*
X26466766Y-39047102D01*
X26455633Y-39048567D01*
X26356692Y-39061592D01*
X26356685Y-39061593D01*
X26330330Y-39066835D01*
X26330312Y-39066839D01*
X26305382Y-39073519D01*
X26279915Y-39082163D01*
X26279912Y-39082164D01*
X26183407Y-39122136D01*
X26159273Y-39134038D01*
X26136913Y-39146949D01*
X26114568Y-39161879D01*
X26114561Y-39161884D01*
X26031689Y-39225474D01*
X26031677Y-39225484D01*
X26011464Y-39243212D01*
X25993212Y-39261464D01*
X25975484Y-39281677D01*
X25975474Y-39281689D01*
X25911884Y-39364561D01*
X25911879Y-39364568D01*
X25896949Y-39386913D01*
X25884038Y-39409273D01*
X25872136Y-39433407D01*
X25832164Y-39529912D01*
X25832163Y-39529915D01*
X25823519Y-39555382D01*
X25816839Y-39580312D01*
X25816835Y-39580330D01*
X25811593Y-39606685D01*
X25811592Y-39606692D01*
X25798767Y-39704110D01*
X25798768Y-39704111D01*
X25797100Y-39716779D01*
X25795788Y-39730109D01*
X25794939Y-39743046D01*
X25794500Y-39756487D01*
X25794500Y-40337035D01*
X25775593Y-40395226D01*
X25750416Y-40419408D01*
X25663359Y-40477447D01*
X25663358Y-40477447D01*
X25365419Y-40676072D01*
X25351779Y-40685994D01*
X25339141Y-40696006D01*
X25326368Y-40707005D01*
X25225146Y-40801645D01*
X25225127Y-40801664D01*
X25202545Y-40826538D01*
X25202532Y-40826555D01*
X25182867Y-40852144D01*
X25164639Y-40880379D01*
X25164631Y-40880392D01*
X25103127Y-40995311D01*
X25103125Y-40995316D01*
X25089736Y-41026161D01*
X25079354Y-41056715D01*
X25079348Y-41056735D01*
X25071175Y-41089329D01*
X25051757Y-41206812D01*
X25048572Y-41226087D01*
X25046515Y-41242754D01*
X25045189Y-41258908D01*
X25044500Y-41275719D01*
X25044500Y-47283518D01*
X25025593Y-47341709D01*
X24978024Y-47377023D01*
X24846748Y-47422685D01*
X19775463Y-49186609D01*
X19760678Y-49192401D01*
X19746675Y-49198521D01*
X19732402Y-49205427D01*
X19616943Y-49266900D01*
X19616942Y-49266900D01*
X19590169Y-49283928D01*
X19590162Y-49283932D01*
X19565808Y-49302207D01*
X19565799Y-49302215D01*
X19541979Y-49323149D01*
X19456075Y-49411290D01*
X19435767Y-49435632D01*
X19435764Y-49435636D01*
X19418109Y-49460469D01*
X19418095Y-49460491D01*
X19401788Y-49487648D01*
X19401783Y-49487657D01*
X19346767Y-49597723D01*
X19346754Y-49597751D01*
X19334814Y-49627109D01*
X19334810Y-49627121D01*
X19325542Y-49656154D01*
X19325541Y-49656157D01*
X19318259Y-49687010D01*
X19298128Y-49816269D01*
X19296291Y-49832050D01*
X19295112Y-49847283D01*
X19294500Y-49863133D01*
X18500500Y-49863133D01*
X18500500Y-37804500D01*
X18519407Y-37746309D01*
X18568907Y-37710345D01*
X18599500Y-37705500D01*
X25722777Y-37705500D01*
X25722791Y-37705500D01*
X25738916Y-37704866D01*
X25754403Y-37703647D01*
X25831575Y-37681882D01*
X25879340Y-37657544D01*
X25879339Y-37657543D01*
X25880113Y-37657150D01*
X25881316Y-37656537D01*
X25885123Y-37655932D01*
X25888679Y-37653556D01*
X25898743Y-37647657D01*
X25901984Y-37646005D01*
X25903745Y-37643581D01*
X25906950Y-37641347D01*
X25908569Y-37640264D01*
X25908570Y-37640265D01*
X25936376Y-37621684D01*
X25991378Y-37605000D01*
X26389018Y-37605000D01*
X26390152Y-37604966D01*
X26401109Y-37604644D01*
X26412745Y-37603958D01*
X26414706Y-37603466D01*
X26438761Y-37600500D01*
X26569673Y-37600500D01*
X26569674Y-37600500D01*
X26642740Y-37585966D01*
X26725601Y-37530601D01*
X26780966Y-37447740D01*
X26795500Y-37374674D01*
X26795500Y-37125326D01*
X26780966Y-37052260D01*
X26780962Y-37052255D01*
X26777233Y-37043248D01*
X26779248Y-37042413D01*
X26766189Y-36996120D01*
X26778773Y-36957389D01*
X26777233Y-36956752D01*
X26780961Y-36947746D01*
X26780966Y-36947740D01*
X26795500Y-36874674D01*
X26795500Y-36625326D01*
X26780966Y-36552260D01*
X26780964Y-36552257D01*
X26725602Y-36469400D01*
X26725599Y-36469397D01*
X26642742Y-36414035D01*
X26642740Y-36414034D01*
X26642737Y-36414033D01*
X26642736Y-36414033D01*
X26569684Y-36399501D01*
X26569674Y-36399500D01*
X25950326Y-36399500D01*
X25950325Y-36399500D01*
X25950315Y-36399501D01*
X25877263Y-36414033D01*
X25877257Y-36414035D01*
X25794400Y-36469397D01*
X25794396Y-36469401D01*
X25784664Y-36483967D01*
X25736614Y-36521846D01*
X25675476Y-36524248D01*
X25624603Y-36490255D01*
X25623149Y-36488365D01*
X25319002Y-36082836D01*
X25308990Y-36070509D01*
X25298887Y-36059008D01*
X25287981Y-36047519D01*
X25194296Y-35956176D01*
X25194288Y-35956169D01*
X25194284Y-35956165D01*
X25189086Y-35951827D01*
X25169932Y-35935841D01*
X25169925Y-35935836D01*
X25145085Y-35918171D01*
X25117897Y-35901839D01*
X25117894Y-35901837D01*
X25117890Y-35901835D01*
X25062842Y-35874311D01*
X25062841Y-35874311D01*
X25062839Y-35874310D01*
X25062837Y-35874308D01*
X25007797Y-35846789D01*
X24993103Y-35840811D01*
X24978411Y-35834834D01*
X24949377Y-35825562D01*
X24949374Y-35825561D01*
X24949370Y-35825560D01*
X24918506Y-35818273D01*
X24918498Y-35818271D01*
X24918495Y-35818271D01*
X24885763Y-35813171D01*
X24789207Y-35798128D01*
X24773447Y-35796294D01*
X24773445Y-35796293D01*
X24773438Y-35796293D01*
X24763199Y-35795500D01*
X24758187Y-35795112D01*
X24742336Y-35794500D01*
X24742334Y-35794500D01*
X23804500Y-35794500D01*
X23746309Y-35775593D01*
X23710345Y-35726093D01*
X23705500Y-35695500D01*
X23705500Y-35000000D01*
X27698634Y-35000000D01*
X27699500Y-35011007D01*
G37*
G04 #@! TD.AperFunction*
G04 #@! TA.AperFunction,Conductor*
G36*
X28734373Y-35044945D02*
G01*
X28719530Y-35059788D01*
X28673386Y-35139712D01*
X28649500Y-35228857D01*
X28649500Y-35755882D01*
X28630593Y-35814073D01*
X28620504Y-35825886D01*
X28469504Y-35976886D01*
X28414987Y-36004663D01*
X28354555Y-35995092D01*
X28311290Y-35951827D01*
X28300500Y-35906882D01*
X28300500Y-35011007D01*
X28304076Y-35000000D01*
X28779318Y-35000000D01*
X28734373Y-35044945D01*
G37*
G04 #@! TD.AperFunction*
G04 #@! TA.AperFunction,Conductor*
G36*
X43459191Y-16519407D02*
G01*
X43495155Y-16568907D01*
X43500000Y-16599500D01*
X43500000Y-30993511D01*
X43499153Y-31006433D01*
X43484664Y-31116487D01*
X43477975Y-31141451D01*
X43438001Y-31237957D01*
X43425079Y-31260339D01*
X43361487Y-31343213D01*
X43343213Y-31361487D01*
X43260339Y-31425079D01*
X43237957Y-31438001D01*
X43141451Y-31477975D01*
X43116487Y-31484664D01*
X43006434Y-31499153D01*
X42993512Y-31500000D01*
X38006488Y-31500000D01*
X37993566Y-31499153D01*
X37883512Y-31484664D01*
X37858548Y-31477975D01*
X37762042Y-31438001D01*
X37739660Y-31425079D01*
X37656783Y-31361484D01*
X37638515Y-31343216D01*
X37574918Y-31260336D01*
X37562000Y-31237960D01*
X37522023Y-31141447D01*
X37515336Y-31116489D01*
X37500847Y-31006432D01*
X37500000Y-30993511D01*
X37500000Y-28449997D01*
X38445093Y-28449997D01*
X38445093Y-28450002D01*
X38464693Y-28711549D01*
X38464695Y-28711559D01*
X38523057Y-28967264D01*
X38618883Y-29211426D01*
X38618889Y-29211438D01*
X38750024Y-29438567D01*
X38750034Y-29438582D01*
X38797873Y-29498570D01*
X39635386Y-28661056D01*
X39640889Y-28681591D01*
X39719881Y-28818408D01*
X39831592Y-28930119D01*
X39968409Y-29009111D01*
X39988940Y-29014612D01*
X39150833Y-29852720D01*
X39322551Y-29969796D01*
X39558862Y-30083597D01*
X39809491Y-30160906D01*
X39809501Y-30160908D01*
X40068852Y-30199999D01*
X40068861Y-30200000D01*
X40331139Y-30200000D01*
X40331147Y-30199999D01*
X40590498Y-30160908D01*
X40590508Y-30160906D01*
X40841140Y-30083596D01*
X41077446Y-29969797D01*
X41249166Y-29852721D01*
X40411057Y-29014612D01*
X40431591Y-29009111D01*
X40568408Y-28930119D01*
X40680119Y-28818408D01*
X40759111Y-28681591D01*
X40764612Y-28661057D01*
X41602125Y-29498570D01*
X41649970Y-29438575D01*
X41649976Y-29438565D01*
X41781110Y-29211438D01*
X41781116Y-29211426D01*
X41876942Y-28967264D01*
X41935304Y-28711559D01*
X41935306Y-28711549D01*
X41954907Y-28450002D01*
X41954907Y-28449997D01*
X41935306Y-28188450D01*
X41935304Y-28188440D01*
X41876942Y-27932735D01*
X41781116Y-27688573D01*
X41781110Y-27688561D01*
X41649971Y-27461424D01*
X41602125Y-27401428D01*
X40764612Y-28238940D01*
X40759111Y-28218409D01*
X40680119Y-28081592D01*
X40568408Y-27969881D01*
X40431591Y-27890889D01*
X40411056Y-27885386D01*
X41249165Y-27047278D01*
X41077446Y-26930202D01*
X40841140Y-26816403D01*
X40590508Y-26739093D01*
X40590498Y-26739091D01*
X40331147Y-26700000D01*
X40068852Y-26700000D01*
X39809501Y-26739091D01*
X39809491Y-26739093D01*
X39558862Y-26816402D01*
X39322543Y-26930207D01*
X39150832Y-27047277D01*
X39988942Y-27885387D01*
X39968409Y-27890889D01*
X39831592Y-27969881D01*
X39719881Y-28081592D01*
X39640889Y-28218409D01*
X39635387Y-28238942D01*
X38797873Y-27401428D01*
X38750028Y-27461425D01*
X38750024Y-27461432D01*
X38618889Y-27688561D01*
X38618883Y-27688573D01*
X38523057Y-27932735D01*
X38464695Y-28188440D01*
X38464693Y-28188450D01*
X38445093Y-28449997D01*
X37500000Y-28449997D01*
X37500000Y-22250001D01*
X37500000Y-22250000D01*
X37500000Y-21750000D01*
X37000001Y-21750000D01*
X34735685Y-21750000D01*
X34677494Y-21731093D01*
X34641530Y-21681593D01*
X34641530Y-21620407D01*
X34647475Y-21606055D01*
X34659237Y-21582968D01*
X34675000Y-21483453D01*
X34675000Y-21325001D01*
X34674999Y-21325000D01*
X33325002Y-21325000D01*
X33325001Y-21325001D01*
X33325001Y-21483453D01*
X33325000Y-21483453D01*
X33340760Y-21582965D01*
X33340761Y-21582967D01*
X33352525Y-21606055D01*
X33362096Y-21666487D01*
X33334319Y-21721004D01*
X33279802Y-21748781D01*
X33264315Y-21750000D01*
X30774500Y-21750000D01*
X30716309Y-21731093D01*
X30680345Y-21681593D01*
X30675500Y-21651000D01*
X30675500Y-20966546D01*
X33325000Y-20966546D01*
X33325000Y-21124999D01*
X33325001Y-21125000D01*
X33899999Y-21125000D01*
X33900000Y-21124999D01*
X33900000Y-20575001D01*
X34100000Y-20575001D01*
X34100000Y-21124999D01*
X34100001Y-21125000D01*
X34674998Y-21125000D01*
X34674999Y-21124999D01*
X34674999Y-20966546D01*
X34659239Y-20867034D01*
X34659237Y-20867030D01*
X34598118Y-20747078D01*
X34502921Y-20651881D01*
X34382969Y-20590762D01*
X34382970Y-20590762D01*
X34283454Y-20575000D01*
X34100001Y-20575000D01*
X34100000Y-20575001D01*
X33900000Y-20575001D01*
X33899999Y-20575000D01*
X33716547Y-20575000D01*
X33716546Y-20575001D01*
X33617034Y-20590760D01*
X33617030Y-20590762D01*
X33497078Y-20651881D01*
X33401881Y-20747078D01*
X33340762Y-20867030D01*
X33325000Y-20966546D01*
X30675500Y-20966546D01*
X30675500Y-20730253D01*
X30675498Y-20730241D01*
X30672711Y-20716231D01*
X30663867Y-20671769D01*
X30619552Y-20605448D01*
X30619548Y-20605445D01*
X30553233Y-20561134D01*
X30553231Y-20561133D01*
X30553228Y-20561132D01*
X30553227Y-20561132D01*
X30494758Y-20549501D01*
X30494748Y-20549500D01*
X29249000Y-20549500D01*
X29190809Y-20530593D01*
X29154845Y-20481093D01*
X29150000Y-20450500D01*
X29150000Y-16599500D01*
X29168907Y-16541309D01*
X29218407Y-16505345D01*
X29249000Y-16500500D01*
X43401000Y-16500500D01*
X43459191Y-16519407D01*
G37*
G04 #@! TD.AperFunction*
G04 #@! TA.AperFunction,Conductor*
G36*
X28809191Y-16519407D02*
G01*
X28845155Y-16568907D01*
X28850000Y-16599500D01*
X28850000Y-20450500D01*
X28831093Y-20508691D01*
X28781593Y-20544655D01*
X28751000Y-20549500D01*
X27505252Y-20549500D01*
X27505251Y-20549500D01*
X27505241Y-20549501D01*
X27446772Y-20561132D01*
X27446766Y-20561134D01*
X27380451Y-20605445D01*
X27380445Y-20605451D01*
X27336134Y-20671766D01*
X27336132Y-20671772D01*
X27324501Y-20730241D01*
X27324500Y-20730253D01*
X27324500Y-21651000D01*
X27305593Y-21709191D01*
X27256093Y-21745155D01*
X27225500Y-21750000D01*
X23500000Y-21750000D01*
X23500000Y-22249998D01*
X23500000Y-23092601D01*
X23481093Y-23150792D01*
X23471009Y-23162598D01*
X23396950Y-23236658D01*
X23396949Y-23236659D01*
X23339354Y-23349695D01*
X23324500Y-23443477D01*
X23324500Y-23906520D01*
X23324501Y-23906523D01*
X23339352Y-24000299D01*
X23339354Y-24000304D01*
X23396950Y-24113342D01*
X23471005Y-24187397D01*
X23498781Y-24241912D01*
X23500000Y-24257399D01*
X23500000Y-24742601D01*
X23481093Y-24800792D01*
X23471009Y-24812598D01*
X23396950Y-24886658D01*
X23396949Y-24886659D01*
X23339354Y-24999695D01*
X23324500Y-25093477D01*
X23324500Y-25556520D01*
X23324501Y-25556523D01*
X23339352Y-25650299D01*
X23339354Y-25650304D01*
X23396950Y-25763342D01*
X23471005Y-25837397D01*
X23498781Y-25891912D01*
X23500000Y-25907399D01*
X23500000Y-36000000D01*
X20500000Y-36000000D01*
X20500000Y-37500000D01*
X18599500Y-37500000D01*
X18541309Y-37481093D01*
X18505345Y-37431593D01*
X18500500Y-37401000D01*
X18500500Y-20002435D01*
X18500619Y-19997578D01*
X18510153Y-19803504D01*
X18517113Y-19661824D01*
X18518063Y-19652186D01*
X18567029Y-19322080D01*
X18568918Y-19312582D01*
X18650009Y-18988849D01*
X18652818Y-18979590D01*
X18765249Y-18665367D01*
X18768958Y-18656412D01*
X18911644Y-18354728D01*
X18916211Y-18346185D01*
X19087780Y-18059938D01*
X19093163Y-18051883D01*
X19291957Y-17783841D01*
X19298107Y-17776346D01*
X19522228Y-17529067D01*
X19529067Y-17522228D01*
X19776346Y-17298107D01*
X19783841Y-17291957D01*
X20051883Y-17093163D01*
X20059938Y-17087780D01*
X20346185Y-16916211D01*
X20354728Y-16911644D01*
X20656412Y-16768958D01*
X20665367Y-16765249D01*
X20979590Y-16652818D01*
X20988849Y-16650009D01*
X21312582Y-16568918D01*
X21322080Y-16567029D01*
X21652186Y-16518063D01*
X21661824Y-16517113D01*
X21970606Y-16501944D01*
X21997579Y-16500619D01*
X22002436Y-16500500D01*
X22065892Y-16500500D01*
X28751000Y-16500500D01*
X28809191Y-16519407D01*
G37*
G04 #@! TD.AperFunction*
G04 #@! TA.AperFunction,Conductor*
G36*
X105508015Y-16519407D02*
G01*
X105543979Y-16568907D01*
X105544561Y-16628237D01*
X105539026Y-16646483D01*
X105539021Y-16646500D01*
X105526972Y-16694602D01*
X105526966Y-16694629D01*
X105522230Y-16718437D01*
X105514953Y-16767498D01*
X105514952Y-16767504D01*
X105497533Y-16944369D01*
X105495706Y-16969138D01*
X105495108Y-16981304D01*
X105494500Y-17006087D01*
X105494500Y-19460896D01*
X105475593Y-19519087D01*
X105426093Y-19555051D01*
X105364907Y-19555051D01*
X105315407Y-19519087D01*
X105309764Y-19510396D01*
X105246094Y-19400118D01*
X105246093Y-19400116D01*
X105088447Y-19194667D01*
X104905333Y-19011553D01*
X104699884Y-18853907D01*
X104475616Y-18724426D01*
X104475611Y-18724423D01*
X104236365Y-18625324D01*
X104122463Y-18594805D01*
X103986228Y-18558301D01*
X103986221Y-18558300D01*
X103729482Y-18524500D01*
X103729481Y-18524500D01*
X103470519Y-18524500D01*
X103470517Y-18524500D01*
X103213778Y-18558300D01*
X103213776Y-18558300D01*
X103213772Y-18558301D01*
X103119226Y-18583634D01*
X102963634Y-18625324D01*
X102724388Y-18724423D01*
X102500112Y-18853909D01*
X102294670Y-19011550D01*
X102111550Y-19194670D01*
X101953909Y-19400112D01*
X101824423Y-19624388D01*
X101725324Y-19863634D01*
X101705500Y-19937622D01*
X101658301Y-20113772D01*
X101658300Y-20113776D01*
X101658300Y-20113778D01*
X101624500Y-20370517D01*
X101624500Y-20629482D01*
X101654058Y-20854000D01*
X101658301Y-20886228D01*
X101694805Y-21022463D01*
X101725324Y-21136365D01*
X101824423Y-21375611D01*
X101953909Y-21599887D01*
X102017794Y-21683144D01*
X102111553Y-21805333D01*
X102294667Y-21988447D01*
X102500116Y-22146093D01*
X102724384Y-22275574D01*
X102724385Y-22275574D01*
X102724388Y-22275576D01*
X102963634Y-22374675D01*
X103213772Y-22441699D01*
X103470519Y-22475500D01*
X103470520Y-22475500D01*
X103729480Y-22475500D01*
X103729481Y-22475500D01*
X103986228Y-22441699D01*
X104236366Y-22374675D01*
X104475616Y-22275574D01*
X104699884Y-22146093D01*
X104905333Y-21988447D01*
X105088447Y-21805333D01*
X105246093Y-21599884D01*
X105309764Y-21489601D01*
X105355233Y-21448662D01*
X105416083Y-21442266D01*
X105469071Y-21472859D01*
X105493958Y-21528754D01*
X105494500Y-21539103D01*
X105494500Y-37266563D01*
X105475593Y-37324754D01*
X105426093Y-37360718D01*
X105364907Y-37360718D01*
X105315407Y-37324754D01*
X105304036Y-37304449D01*
X105254238Y-37184225D01*
X105254236Y-37184221D01*
X105133603Y-36975279D01*
X105070228Y-36892687D01*
X104986735Y-36783876D01*
X104986733Y-36783874D01*
X104986730Y-36783870D01*
X104816130Y-36613270D01*
X104816125Y-36613266D01*
X104816123Y-36613264D01*
X104624724Y-36466399D01*
X104592406Y-36447740D01*
X104415779Y-36345764D01*
X104415775Y-36345762D01*
X104415771Y-36345760D01*
X104192880Y-36253436D01*
X104090120Y-36225902D01*
X103959834Y-36190992D01*
X103959831Y-36190991D01*
X103959829Y-36190991D01*
X103720633Y-36159500D01*
X103479367Y-36159500D01*
X103479366Y-36159500D01*
X103240173Y-36190991D01*
X103240168Y-36190991D01*
X103007119Y-36253436D01*
X102784228Y-36345760D01*
X102575275Y-36466399D01*
X102383876Y-36613264D01*
X102213264Y-36783876D01*
X102066399Y-36975275D01*
X101945760Y-37184228D01*
X101853436Y-37407119D01*
X101790991Y-37640168D01*
X101790991Y-37640173D01*
X101783715Y-37695443D01*
X101759500Y-37879367D01*
X101759500Y-38120633D01*
X101780645Y-38281246D01*
X101790991Y-38359826D01*
X101790991Y-38359831D01*
X101853436Y-38592880D01*
X101945760Y-38815771D01*
X101945762Y-38815775D01*
X101945764Y-38815779D01*
X102066397Y-39024721D01*
X102066399Y-39024724D01*
X102213264Y-39216123D01*
X102213266Y-39216125D01*
X102213270Y-39216130D01*
X102383870Y-39386730D01*
X102383874Y-39386733D01*
X102383876Y-39386735D01*
X102570470Y-39529913D01*
X102575279Y-39533603D01*
X102784221Y-39654236D01*
X103007121Y-39746564D01*
X103240166Y-39809008D01*
X103479367Y-39840500D01*
X103479368Y-39840500D01*
X103720632Y-39840500D01*
X103720633Y-39840500D01*
X103959834Y-39809008D01*
X104192879Y-39746564D01*
X104415779Y-39654236D01*
X104624721Y-39533603D01*
X104816130Y-39386730D01*
X104986730Y-39216130D01*
X105133603Y-39024721D01*
X105254236Y-38815779D01*
X105304036Y-38695551D01*
X105343772Y-38649025D01*
X105403267Y-38634741D01*
X105459795Y-38658156D01*
X105491765Y-38710324D01*
X105494500Y-38733436D01*
X105494500Y-58993911D01*
X105495108Y-59018694D01*
X105495706Y-59030860D01*
X105497532Y-59055625D01*
X105514951Y-59232486D01*
X105522227Y-59281542D01*
X105526966Y-59305371D01*
X105526970Y-59305388D01*
X105539019Y-59353494D01*
X105539024Y-59353510D01*
X105544561Y-59371764D01*
X105543358Y-59432937D01*
X105506429Y-59481721D01*
X105449823Y-59499500D01*
X37000000Y-59499500D01*
X37000000Y-55370519D01*
X46424500Y-55370519D01*
X46424500Y-55629481D01*
X46458301Y-55886228D01*
X46488786Y-56000000D01*
X46525324Y-56136365D01*
X46624423Y-56375611D01*
X46624426Y-56375616D01*
X46753907Y-56599884D01*
X46911553Y-56805333D01*
X47094667Y-56988447D01*
X47300116Y-57146093D01*
X47524384Y-57275574D01*
X47524385Y-57275574D01*
X47524388Y-57275576D01*
X47715207Y-57354616D01*
X47763634Y-57374675D01*
X48013772Y-57441699D01*
X48270519Y-57475500D01*
X48270520Y-57475500D01*
X48529480Y-57475500D01*
X48529481Y-57475500D01*
X48786228Y-57441699D01*
X49036366Y-57374675D01*
X49275616Y-57275574D01*
X49499884Y-57146093D01*
X49705333Y-56988447D01*
X49888447Y-56805333D01*
X50046093Y-56599884D01*
X50175574Y-56375616D01*
X50274675Y-56136366D01*
X50341699Y-55886228D01*
X50375500Y-55629481D01*
X50375500Y-55370519D01*
X50341699Y-55113772D01*
X50274675Y-54863634D01*
X50175574Y-54624384D01*
X50046093Y-54400116D01*
X49888447Y-54194667D01*
X49705333Y-54011553D01*
X49499884Y-53853907D01*
X49275616Y-53724426D01*
X49275611Y-53724423D01*
X49036365Y-53625324D01*
X48897488Y-53588113D01*
X48786228Y-53558301D01*
X48786221Y-53558300D01*
X48529482Y-53524500D01*
X48529481Y-53524500D01*
X48270519Y-53524500D01*
X48270517Y-53524500D01*
X48013778Y-53558300D01*
X48013776Y-53558300D01*
X48013772Y-53558301D01*
X47919226Y-53583634D01*
X47763634Y-53625324D01*
X47524388Y-53724423D01*
X47300112Y-53853909D01*
X47094670Y-54011550D01*
X46911550Y-54194670D01*
X46753909Y-54400112D01*
X46624423Y-54624388D01*
X46525324Y-54863634D01*
X46483634Y-55019226D01*
X46458301Y-55113772D01*
X46424500Y-55370519D01*
X37000000Y-55370519D01*
X37000000Y-47549997D01*
X38445093Y-47549997D01*
X38445093Y-47550002D01*
X38464693Y-47811549D01*
X38464695Y-47811559D01*
X38523057Y-48067264D01*
X38618883Y-48311426D01*
X38618889Y-48311438D01*
X38750024Y-48538567D01*
X38750034Y-48538582D01*
X38797873Y-48598570D01*
X39635386Y-47761056D01*
X39640889Y-47781591D01*
X39719881Y-47918408D01*
X39831592Y-48030119D01*
X39968409Y-48109111D01*
X39988940Y-48114612D01*
X39150833Y-48952720D01*
X39322551Y-49069796D01*
X39558862Y-49183597D01*
X39809491Y-49260906D01*
X39809501Y-49260908D01*
X40068852Y-49299999D01*
X40068861Y-49300000D01*
X40331139Y-49300000D01*
X40331147Y-49299999D01*
X40590498Y-49260908D01*
X40590508Y-49260906D01*
X40841140Y-49183596D01*
X41077446Y-49069797D01*
X41249166Y-48952721D01*
X40411057Y-48114612D01*
X40431591Y-48109111D01*
X40568408Y-48030119D01*
X40680119Y-47918408D01*
X40759111Y-47781591D01*
X40764612Y-47761057D01*
X41602125Y-48598570D01*
X41649970Y-48538575D01*
X41649976Y-48538565D01*
X41781110Y-48311438D01*
X41781116Y-48311426D01*
X41876942Y-48067264D01*
X41935304Y-47811559D01*
X41935306Y-47811549D01*
X41954907Y-47550002D01*
X41954907Y-47549997D01*
X41935306Y-47288450D01*
X41935304Y-47288440D01*
X41876942Y-47032735D01*
X41781116Y-46788573D01*
X41781110Y-46788561D01*
X41649971Y-46561424D01*
X41602125Y-46501428D01*
X40764612Y-47338940D01*
X40759111Y-47318409D01*
X40680119Y-47181592D01*
X40568408Y-47069881D01*
X40431591Y-46990889D01*
X40411056Y-46985386D01*
X41249165Y-46147278D01*
X41077446Y-46030202D01*
X40841140Y-45916403D01*
X40590508Y-45839093D01*
X40590498Y-45839091D01*
X40331147Y-45800000D01*
X40068852Y-45800000D01*
X39809501Y-45839091D01*
X39809491Y-45839093D01*
X39558862Y-45916402D01*
X39322543Y-46030207D01*
X39150832Y-46147277D01*
X39988942Y-46985387D01*
X39968409Y-46990889D01*
X39831592Y-47069881D01*
X39719881Y-47181592D01*
X39640889Y-47318409D01*
X39635387Y-47338942D01*
X38797873Y-46501428D01*
X38750028Y-46561425D01*
X38750024Y-46561432D01*
X38618889Y-46788561D01*
X38618883Y-46788573D01*
X38523057Y-47032735D01*
X38464695Y-47288440D01*
X38464693Y-47288450D01*
X38445093Y-47549997D01*
X37000000Y-47549997D01*
X37000000Y-37879367D01*
X46559500Y-37879367D01*
X46559500Y-38120633D01*
X46580645Y-38281246D01*
X46590991Y-38359826D01*
X46590991Y-38359831D01*
X46653436Y-38592880D01*
X46745760Y-38815771D01*
X46745762Y-38815775D01*
X46745764Y-38815779D01*
X46866397Y-39024721D01*
X46866399Y-39024724D01*
X47013264Y-39216123D01*
X47013266Y-39216125D01*
X47013270Y-39216130D01*
X47183870Y-39386730D01*
X47183874Y-39386733D01*
X47183876Y-39386735D01*
X47370470Y-39529913D01*
X47375279Y-39533603D01*
X47584221Y-39654236D01*
X47807121Y-39746564D01*
X48040166Y-39809008D01*
X48279367Y-39840500D01*
X48279368Y-39840500D01*
X48520632Y-39840500D01*
X48520633Y-39840500D01*
X48759834Y-39809008D01*
X48992879Y-39746564D01*
X49215779Y-39654236D01*
X49424721Y-39533603D01*
X49616130Y-39386730D01*
X49786730Y-39216130D01*
X49933603Y-39024721D01*
X50054236Y-38815779D01*
X50146564Y-38592879D01*
X50209008Y-38359834D01*
X50240500Y-38120633D01*
X50240500Y-37879367D01*
X50209008Y-37640166D01*
X50146564Y-37407121D01*
X50054236Y-37184221D01*
X49933603Y-36975279D01*
X49870228Y-36892687D01*
X49786735Y-36783876D01*
X49786733Y-36783874D01*
X49786730Y-36783870D01*
X49616130Y-36613270D01*
X49616125Y-36613266D01*
X49616123Y-36613264D01*
X49424724Y-36466399D01*
X49392406Y-36447740D01*
X49215779Y-36345764D01*
X49215775Y-36345762D01*
X49215771Y-36345760D01*
X48992880Y-36253436D01*
X48890120Y-36225902D01*
X48759834Y-36190992D01*
X48759831Y-36190991D01*
X48759829Y-36190991D01*
X48520633Y-36159500D01*
X48279367Y-36159500D01*
X48279366Y-36159500D01*
X48040173Y-36190991D01*
X48040168Y-36190991D01*
X47807119Y-36253436D01*
X47584228Y-36345760D01*
X47375275Y-36466399D01*
X47183876Y-36613264D01*
X47013264Y-36783876D01*
X46866399Y-36975275D01*
X46745760Y-37184228D01*
X46653436Y-37407119D01*
X46590991Y-37640168D01*
X46590991Y-37640173D01*
X46583715Y-37695443D01*
X46559500Y-37879367D01*
X37000000Y-37879367D01*
X37000000Y-35000000D01*
X30328678Y-35000000D01*
X30326225Y-34984513D01*
X30354003Y-34929996D01*
X30379061Y-34911791D01*
X30452963Y-34874134D01*
X30503220Y-34848528D01*
X30598528Y-34753220D01*
X30659719Y-34633126D01*
X30675500Y-34533488D01*
X30675500Y-34016512D01*
X30672836Y-33999695D01*
X30671703Y-33992541D01*
X30659719Y-33916874D01*
X30659716Y-33916869D01*
X30659716Y-33916867D01*
X30598529Y-33796782D01*
X30598528Y-33796780D01*
X30503220Y-33701472D01*
X30503217Y-33701470D01*
X30383132Y-33640283D01*
X30383127Y-33640281D01*
X30383126Y-33640281D01*
X30349913Y-33635020D01*
X30283490Y-33624500D01*
X30283488Y-33624500D01*
X29716512Y-33624500D01*
X29716510Y-33624500D01*
X29616874Y-33640281D01*
X29616867Y-33640283D01*
X29496782Y-33701470D01*
X29401470Y-33796782D01*
X29340283Y-33916867D01*
X29340281Y-33916874D01*
X29324500Y-34016510D01*
X29324500Y-34413810D01*
X29305593Y-34472001D01*
X29295504Y-34483814D01*
X28779318Y-35000000D01*
X28304076Y-35000000D01*
X28319407Y-34952816D01*
X28368907Y-34916852D01*
X28384012Y-34913226D01*
X28400304Y-34910646D01*
X28513342Y-34853050D01*
X28603050Y-34763342D01*
X28660646Y-34650304D01*
X28675500Y-34556519D01*
X28675499Y-34093482D01*
X28663309Y-34016510D01*
X28660647Y-33999700D01*
X28660646Y-33999698D01*
X28660646Y-33999696D01*
X28603050Y-33886658D01*
X28513342Y-33796950D01*
X28400304Y-33739354D01*
X28400305Y-33739354D01*
X28306522Y-33724500D01*
X27693479Y-33724500D01*
X27693476Y-33724501D01*
X27599700Y-33739352D01*
X27599695Y-33739354D01*
X27486659Y-33796949D01*
X27486658Y-33796950D01*
X27396950Y-33886658D01*
X27354257Y-33970446D01*
X27310994Y-34013710D01*
X27266049Y-34024500D01*
X27022885Y-34024500D01*
X26964694Y-34005593D01*
X26928730Y-33956093D01*
X26925104Y-33940985D01*
X26910647Y-33849700D01*
X26910646Y-33849698D01*
X26910646Y-33849696D01*
X26853050Y-33736658D01*
X26763342Y-33646950D01*
X26650304Y-33589354D01*
X26650305Y-33589354D01*
X26556522Y-33574500D01*
X26093479Y-33574500D01*
X26093476Y-33574501D01*
X25999700Y-33589352D01*
X25999695Y-33589354D01*
X25886659Y-33646949D01*
X25796949Y-33736659D01*
X25739354Y-33849695D01*
X25724500Y-33943477D01*
X25724500Y-34556520D01*
X25724501Y-34556523D01*
X25739352Y-34650299D01*
X25739354Y-34650304D01*
X25796950Y-34763342D01*
X25886658Y-34853050D01*
X25999696Y-34910646D01*
X26093481Y-34925500D01*
X26556518Y-34925499D01*
X26556520Y-34925499D01*
X26556521Y-34925498D01*
X26611118Y-34916852D01*
X26650299Y-34910647D01*
X26650299Y-34910646D01*
X26650304Y-34910646D01*
X26763342Y-34853050D01*
X26853050Y-34763342D01*
X26895742Y-34679553D01*
X26939006Y-34636290D01*
X26983951Y-34625500D01*
X27266049Y-34625500D01*
X27324240Y-34644407D01*
X27354257Y-34679552D01*
X27396950Y-34763342D01*
X27486658Y-34853050D01*
X27599696Y-34910646D01*
X27615986Y-34913226D01*
X27670503Y-34941003D01*
X27698281Y-34995519D01*
X27698634Y-35000000D01*
X23705500Y-35000000D01*
X23705500Y-34350001D01*
X24075001Y-34350001D01*
X24075001Y-34556485D01*
X24089833Y-34650141D01*
X24089836Y-34650151D01*
X24147358Y-34763043D01*
X24236956Y-34852641D01*
X24349848Y-34910163D01*
X24349852Y-34910164D01*
X24443515Y-34924999D01*
X24575000Y-34924999D01*
X24575000Y-34350001D01*
X24775000Y-34350001D01*
X24775000Y-34924998D01*
X24775001Y-34924999D01*
X24906483Y-34924999D01*
X24906485Y-34924998D01*
X25000141Y-34910166D01*
X25000151Y-34910163D01*
X25113043Y-34852641D01*
X25202641Y-34763043D01*
X25260163Y-34650151D01*
X25260164Y-34650147D01*
X25275000Y-34556484D01*
X25275000Y-34350001D01*
X25274999Y-34350000D01*
X24775001Y-34350000D01*
X24775000Y-34350001D01*
X24575000Y-34350001D01*
X24574999Y-34350000D01*
X24075002Y-34350000D01*
X24075001Y-34350001D01*
X23705500Y-34350001D01*
X23705500Y-33943515D01*
X24075000Y-33943515D01*
X24075000Y-34149999D01*
X24075001Y-34150000D01*
X24574999Y-34150000D01*
X24575000Y-34149999D01*
X24575000Y-33575001D01*
X24775000Y-33575001D01*
X24775000Y-34149999D01*
X24775001Y-34150000D01*
X25274998Y-34150000D01*
X25274999Y-34149999D01*
X25274999Y-33943516D01*
X25274998Y-33943514D01*
X25260166Y-33849858D01*
X25260163Y-33849848D01*
X25202641Y-33736956D01*
X25113043Y-33647358D01*
X25000151Y-33589836D01*
X25000147Y-33589835D01*
X24906484Y-33575000D01*
X24775001Y-33575000D01*
X24775000Y-33575001D01*
X24575000Y-33575001D01*
X24574999Y-33575000D01*
X24443517Y-33575000D01*
X24443514Y-33575001D01*
X24349858Y-33589833D01*
X24349848Y-33589836D01*
X24236956Y-33647358D01*
X24147358Y-33736956D01*
X24089836Y-33849848D01*
X24089835Y-33849852D01*
X24075000Y-33943515D01*
X23705500Y-33943515D01*
X23705500Y-32674997D01*
X26169353Y-32674997D01*
X26169353Y-32675002D01*
X26189834Y-32817456D01*
X26230510Y-32906522D01*
X26249623Y-32948373D01*
X26302736Y-33009669D01*
X26343873Y-33057144D01*
X26464942Y-33134950D01*
X26464947Y-33134953D01*
X26571403Y-33166211D01*
X26603035Y-33175499D01*
X26603036Y-33175499D01*
X26603039Y-33175500D01*
X26603041Y-33175500D01*
X26746959Y-33175500D01*
X26746961Y-33175500D01*
X26885053Y-33134953D01*
X27006128Y-33057143D01*
X27047264Y-33009668D01*
X27099660Y-32978073D01*
X27122083Y-32975500D01*
X27266049Y-32975500D01*
X27324240Y-32994407D01*
X27354257Y-33029552D01*
X27396950Y-33113342D01*
X27486658Y-33203050D01*
X27599696Y-33260646D01*
X27693481Y-33275500D01*
X28306518Y-33275499D01*
X28306520Y-33275499D01*
X28306521Y-33275498D01*
X28353411Y-33268072D01*
X28400299Y-33260647D01*
X28400299Y-33260646D01*
X28400304Y-33260646D01*
X28513342Y-33203050D01*
X28603050Y-33113342D01*
X28660646Y-33000304D01*
X28663315Y-32983453D01*
X29325000Y-32983453D01*
X29340760Y-33082965D01*
X29340762Y-33082969D01*
X29401881Y-33202921D01*
X29497078Y-33298118D01*
X29617030Y-33359237D01*
X29617029Y-33359237D01*
X29716545Y-33374999D01*
X29900000Y-33374999D01*
X29900000Y-32825001D01*
X30100000Y-32825001D01*
X30100000Y-33374998D01*
X30100001Y-33374999D01*
X30283453Y-33374999D01*
X30382965Y-33359239D01*
X30382969Y-33359237D01*
X30502921Y-33298118D01*
X30598118Y-33202921D01*
X30659237Y-33082969D01*
X30675000Y-32983453D01*
X30675000Y-32825001D01*
X30674999Y-32825000D01*
X30100001Y-32825000D01*
X30100000Y-32825001D01*
X29900000Y-32825001D01*
X29899999Y-32825000D01*
X29325002Y-32825000D01*
X29325001Y-32825001D01*
X29325001Y-32983453D01*
X29325000Y-32983453D01*
X28663315Y-32983453D01*
X28675500Y-32906519D01*
X28675499Y-32466546D01*
X29325000Y-32466546D01*
X29325000Y-32624999D01*
X29325001Y-32625000D01*
X29899999Y-32625000D01*
X29900000Y-32624999D01*
X29900000Y-32075001D01*
X30100000Y-32075001D01*
X30100000Y-32624999D01*
X30100001Y-32625000D01*
X30674998Y-32625000D01*
X30674999Y-32624999D01*
X30674999Y-32466546D01*
X30659239Y-32367034D01*
X30659237Y-32367030D01*
X30598118Y-32247078D01*
X30502921Y-32151881D01*
X30382969Y-32090762D01*
X30382970Y-32090762D01*
X30283454Y-32075000D01*
X30100001Y-32075000D01*
X30100000Y-32075001D01*
X29900000Y-32075001D01*
X29899999Y-32075000D01*
X29716547Y-32075000D01*
X29716546Y-32075001D01*
X29617034Y-32090760D01*
X29617030Y-32090762D01*
X29497078Y-32151881D01*
X29401881Y-32247078D01*
X29340762Y-32367030D01*
X29325000Y-32466546D01*
X28675499Y-32466546D01*
X28675499Y-32443482D01*
X28668871Y-32401628D01*
X28660647Y-32349700D01*
X28660646Y-32349698D01*
X28660646Y-32349696D01*
X28603050Y-32236658D01*
X28513342Y-32146950D01*
X28400304Y-32089354D01*
X28400305Y-32089354D01*
X28306522Y-32074500D01*
X27693479Y-32074500D01*
X27693476Y-32074501D01*
X27599700Y-32089352D01*
X27599695Y-32089354D01*
X27486659Y-32146949D01*
X27486658Y-32146950D01*
X27396950Y-32236658D01*
X27354257Y-32320446D01*
X27310994Y-32363710D01*
X27266049Y-32374500D01*
X27122083Y-32374500D01*
X27063892Y-32355593D01*
X27047264Y-32340331D01*
X27030033Y-32320445D01*
X27006128Y-32292857D01*
X26973182Y-32271684D01*
X26885057Y-32215049D01*
X26885054Y-32215047D01*
X26885053Y-32215047D01*
X26885050Y-32215046D01*
X26746964Y-32174500D01*
X26746961Y-32174500D01*
X26603039Y-32174500D01*
X26603035Y-32174500D01*
X26464949Y-32215046D01*
X26464942Y-32215049D01*
X26343873Y-32292855D01*
X26249622Y-32401628D01*
X26189834Y-32532543D01*
X26169353Y-32674997D01*
X23705500Y-32674997D01*
X23705500Y-29925001D01*
X33325001Y-29925001D01*
X33325001Y-30056485D01*
X33339833Y-30150141D01*
X33339836Y-30150151D01*
X33397358Y-30263043D01*
X33486956Y-30352641D01*
X33599848Y-30410163D01*
X33599852Y-30410164D01*
X33693515Y-30424999D01*
X33899998Y-30424999D01*
X33900000Y-30424998D01*
X33900000Y-29925001D01*
X34100000Y-29925001D01*
X34100000Y-30424998D01*
X34100001Y-30424999D01*
X34306483Y-30424999D01*
X34306485Y-30424998D01*
X34400141Y-30410166D01*
X34400151Y-30410163D01*
X34513043Y-30352641D01*
X34602641Y-30263043D01*
X34660163Y-30150151D01*
X34660164Y-30150147D01*
X34675000Y-30056484D01*
X34675000Y-29925001D01*
X34674999Y-29925000D01*
X34100001Y-29925000D01*
X34100000Y-29925001D01*
X33900000Y-29925001D01*
X33899999Y-29925000D01*
X33325002Y-29925000D01*
X33325001Y-29925001D01*
X23705500Y-29925001D01*
X23705500Y-29175001D01*
X26200000Y-29175001D01*
X26200000Y-29419700D01*
X26211603Y-29478036D01*
X26255806Y-29544189D01*
X26255810Y-29544193D01*
X26321963Y-29588396D01*
X26380299Y-29599999D01*
X26380303Y-29600000D01*
X26824999Y-29600000D01*
X26825000Y-29599999D01*
X26825000Y-29175001D01*
X27025000Y-29175001D01*
X27025000Y-29599999D01*
X27025001Y-29600000D01*
X27469697Y-29600000D01*
X27469700Y-29599999D01*
X27528036Y-29588396D01*
X27594189Y-29544193D01*
X27594193Y-29544189D01*
X27638396Y-29478036D01*
X27649999Y-29419700D01*
X27650000Y-29419697D01*
X27650000Y-29175001D01*
X30350000Y-29175001D01*
X30350000Y-29419700D01*
X30361603Y-29478036D01*
X30405806Y-29544189D01*
X30405810Y-29544193D01*
X30471963Y-29588396D01*
X30530299Y-29599999D01*
X30530303Y-29600000D01*
X30974999Y-29600000D01*
X30975000Y-29599999D01*
X30975000Y-29175001D01*
X31175000Y-29175001D01*
X31175000Y-29599999D01*
X31175001Y-29600000D01*
X31619697Y-29600000D01*
X31619700Y-29599999D01*
X31652299Y-29593515D01*
X33325000Y-29593515D01*
X33325000Y-29724999D01*
X33325001Y-29725000D01*
X33899999Y-29725000D01*
X33900000Y-29724999D01*
X33900000Y-29225001D01*
X34100000Y-29225001D01*
X34100000Y-29724999D01*
X34100001Y-29725000D01*
X34674998Y-29725000D01*
X34674999Y-29724999D01*
X34674999Y-29593516D01*
X34674998Y-29593514D01*
X34660166Y-29499858D01*
X34660163Y-29499848D01*
X34602641Y-29386956D01*
X34513043Y-29297358D01*
X34400151Y-29239836D01*
X34400147Y-29239835D01*
X34306484Y-29225000D01*
X34100001Y-29225000D01*
X34100000Y-29225001D01*
X33900000Y-29225001D01*
X33899999Y-29225000D01*
X33693517Y-29225000D01*
X33693514Y-29225001D01*
X33599858Y-29239833D01*
X33599848Y-29239836D01*
X33486956Y-29297358D01*
X33397358Y-29386956D01*
X33339836Y-29499848D01*
X33339835Y-29499852D01*
X33325000Y-29593515D01*
X31652299Y-29593515D01*
X31678036Y-29588396D01*
X31744189Y-29544193D01*
X31744193Y-29544189D01*
X31788396Y-29478036D01*
X31799999Y-29419700D01*
X31800000Y-29419697D01*
X31800000Y-29175001D01*
X31799999Y-29175000D01*
X31175001Y-29175000D01*
X31175000Y-29175001D01*
X30975000Y-29175001D01*
X30974999Y-29175000D01*
X30350001Y-29175000D01*
X30350000Y-29175001D01*
X27650000Y-29175001D01*
X27649999Y-29175000D01*
X27025001Y-29175000D01*
X27025000Y-29175001D01*
X26825000Y-29175001D01*
X26824999Y-29175000D01*
X26200001Y-29175000D01*
X26200000Y-29175001D01*
X23705500Y-29175001D01*
X23705500Y-28730299D01*
X26200000Y-28730299D01*
X26200000Y-28974999D01*
X26200001Y-28975000D01*
X26824999Y-28975000D01*
X26825000Y-28974999D01*
X26825000Y-28550001D01*
X27025000Y-28550001D01*
X27025000Y-28974999D01*
X27025001Y-28975000D01*
X27649999Y-28975000D01*
X27650000Y-28974999D01*
X27650000Y-28730302D01*
X27649999Y-28730299D01*
X30350000Y-28730299D01*
X30350000Y-28974999D01*
X30350001Y-28975000D01*
X30974999Y-28975000D01*
X30975000Y-28974999D01*
X30975000Y-28550001D01*
X31175000Y-28550001D01*
X31175000Y-28974999D01*
X31175001Y-28975000D01*
X31799999Y-28975000D01*
X31800000Y-28974999D01*
X31800000Y-28730302D01*
X31799999Y-28730299D01*
X31788396Y-28671963D01*
X31744193Y-28605810D01*
X31744189Y-28605806D01*
X31678036Y-28561603D01*
X31619700Y-28550000D01*
X31175001Y-28550000D01*
X31175000Y-28550001D01*
X30975000Y-28550001D01*
X30974999Y-28550000D01*
X30530299Y-28550000D01*
X30471963Y-28561603D01*
X30405810Y-28605806D01*
X30405806Y-28605810D01*
X30361603Y-28671963D01*
X30350000Y-28730299D01*
X27649999Y-28730299D01*
X27638396Y-28671963D01*
X27594193Y-28605810D01*
X27594189Y-28605806D01*
X27528036Y-28561603D01*
X27469700Y-28550000D01*
X27025001Y-28550000D01*
X27025000Y-28550001D01*
X26825000Y-28550001D01*
X26824999Y-28550000D01*
X26380299Y-28550000D01*
X26321963Y-28561603D01*
X26255810Y-28605806D01*
X26255806Y-28605810D01*
X26211603Y-28671963D01*
X26200000Y-28730299D01*
X23705500Y-28730299D01*
X23705500Y-26023999D01*
X23724407Y-25965808D01*
X23773907Y-25929844D01*
X23804500Y-25924999D01*
X23899999Y-25924999D01*
X23900000Y-25924998D01*
X23900000Y-25425001D01*
X24100000Y-25425001D01*
X24100000Y-25924998D01*
X24100001Y-25924999D01*
X24306483Y-25924999D01*
X24306485Y-25924998D01*
X24400141Y-25910166D01*
X24400151Y-25910163D01*
X24513043Y-25852641D01*
X24602641Y-25763043D01*
X24660163Y-25650151D01*
X24660164Y-25650147D01*
X24675000Y-25556484D01*
X24675000Y-25425001D01*
X24674999Y-25425000D01*
X24100001Y-25425000D01*
X24100000Y-25425001D01*
X23900000Y-25425001D01*
X23900000Y-24725001D01*
X24100000Y-24725001D01*
X24100000Y-25224999D01*
X24100001Y-25225000D01*
X24674998Y-25225000D01*
X24674999Y-25224999D01*
X24674999Y-25093516D01*
X24674998Y-25093514D01*
X24660166Y-24999858D01*
X24660163Y-24999848D01*
X24602641Y-24886956D01*
X24513043Y-24797358D01*
X24400151Y-24739836D01*
X24400147Y-24739835D01*
X24306484Y-24725000D01*
X24100001Y-24725000D01*
X24100000Y-24725001D01*
X23900000Y-24725001D01*
X23899999Y-24725000D01*
X23804500Y-24725000D01*
X23746309Y-24706093D01*
X23710345Y-24656593D01*
X23705500Y-24626000D01*
X23705500Y-24374499D01*
X23724407Y-24316308D01*
X23773907Y-24280344D01*
X23804500Y-24275499D01*
X24306521Y-24275499D01*
X24306522Y-24275498D01*
X24353411Y-24268072D01*
X24400299Y-24260647D01*
X24400299Y-24260646D01*
X24400304Y-24260646D01*
X24513342Y-24203050D01*
X24603050Y-24113342D01*
X24645742Y-24029553D01*
X24689006Y-23986290D01*
X24733951Y-23975500D01*
X25328812Y-23975500D01*
X25387003Y-23994407D01*
X25398809Y-24004490D01*
X25468517Y-24074198D01*
X25509230Y-24094101D01*
X25573604Y-24125572D01*
X25573605Y-24125572D01*
X25573607Y-24125573D01*
X25641740Y-24135500D01*
X25641743Y-24135500D01*
X26958257Y-24135500D01*
X26958260Y-24135500D01*
X27026393Y-24125573D01*
X27131483Y-24074198D01*
X27214198Y-23991483D01*
X27265573Y-23886393D01*
X27275500Y-23818260D01*
X27275500Y-23451740D01*
X27265573Y-23383607D01*
X27255476Y-23362954D01*
X27214198Y-23278518D01*
X27214198Y-23278517D01*
X27131483Y-23195802D01*
X27124348Y-23192314D01*
X27026395Y-23144427D01*
X26999139Y-23140456D01*
X26958260Y-23134500D01*
X25641740Y-23134500D01*
X25607673Y-23139463D01*
X25573604Y-23144427D01*
X25468518Y-23195801D01*
X25385801Y-23278518D01*
X25366021Y-23318980D01*
X25323478Y-23362954D01*
X25277080Y-23374500D01*
X24733951Y-23374500D01*
X24675760Y-23355593D01*
X24645742Y-23320447D01*
X24603050Y-23236658D01*
X24513342Y-23146950D01*
X24400304Y-23089354D01*
X24400305Y-23089354D01*
X24306522Y-23074500D01*
X24306519Y-23074500D01*
X23804500Y-23074500D01*
X23746309Y-23055593D01*
X23710345Y-23006093D01*
X23705500Y-22975500D01*
X23705500Y-22054500D01*
X23724407Y-21996309D01*
X23773907Y-21960345D01*
X23804500Y-21955500D01*
X25253125Y-21955500D01*
X25311316Y-21974407D01*
X25347280Y-22023907D01*
X25347280Y-22085093D01*
X25342066Y-22097980D01*
X25334427Y-22113604D01*
X25329694Y-22146090D01*
X25324500Y-22181740D01*
X25324500Y-22548260D01*
X25331118Y-22593682D01*
X25334427Y-22616395D01*
X25363078Y-22675000D01*
X25385802Y-22721483D01*
X25468517Y-22804198D01*
X25522285Y-22830483D01*
X25573604Y-22855572D01*
X25573605Y-22855572D01*
X25573607Y-22855573D01*
X25641740Y-22865500D01*
X25641743Y-22865500D01*
X26958257Y-22865500D01*
X26958260Y-22865500D01*
X27026393Y-22855573D01*
X27131483Y-22804198D01*
X27214198Y-22721483D01*
X27265573Y-22616393D01*
X27275500Y-22548260D01*
X27275500Y-22181740D01*
X27265573Y-22113607D01*
X27248793Y-22079284D01*
X27240222Y-22018704D01*
X27268896Y-21964654D01*
X27298819Y-21944773D01*
X27376883Y-21911408D01*
X27426383Y-21875444D01*
X27454128Y-21851203D01*
X27501036Y-21772693D01*
X27519943Y-21714502D01*
X27530000Y-21651000D01*
X27530000Y-20854000D01*
X27548907Y-20795809D01*
X27598407Y-20759845D01*
X27629000Y-20755000D01*
X28750993Y-20755000D01*
X28751000Y-20755000D01*
X28783144Y-20752470D01*
X28813737Y-20747625D01*
X28813748Y-20747623D01*
X28813793Y-20747616D01*
X28818281Y-20746853D01*
X28818280Y-20746853D01*
X28818287Y-20746852D01*
X28902383Y-20710908D01*
X28939587Y-20683877D01*
X28997775Y-20664969D01*
X29048556Y-20678983D01*
X29048795Y-20679125D01*
X29048797Y-20679128D01*
X29127307Y-20726036D01*
X29185498Y-20744943D01*
X29197552Y-20746852D01*
X29248996Y-20755000D01*
X29249000Y-20755000D01*
X30371000Y-20755000D01*
X30429191Y-20773907D01*
X30465155Y-20823407D01*
X30470000Y-20854000D01*
X30470000Y-20919500D01*
X30470000Y-21651000D01*
X30472530Y-21683143D01*
X30477383Y-21713793D01*
X30478146Y-21718281D01*
X30478147Y-21718286D01*
X30514091Y-21802382D01*
X30514092Y-21802383D01*
X30550056Y-21851883D01*
X30574297Y-21879628D01*
X30652807Y-21926536D01*
X30652810Y-21926537D01*
X30652812Y-21926538D01*
X30675397Y-21933875D01*
X30693742Y-21939836D01*
X30743242Y-21975799D01*
X30762151Y-22033989D01*
X30752092Y-22077471D01*
X30734427Y-22113604D01*
X30729694Y-22146090D01*
X30724500Y-22181740D01*
X30724500Y-22548260D01*
X30731118Y-22593682D01*
X30734427Y-22616395D01*
X30763078Y-22675000D01*
X30785802Y-22721483D01*
X30868517Y-22804198D01*
X30922285Y-22830483D01*
X30973604Y-22855572D01*
X30973605Y-22855572D01*
X30973607Y-22855573D01*
X31041740Y-22865500D01*
X31880073Y-22865500D01*
X31938264Y-22884407D01*
X31950077Y-22894496D01*
X32021077Y-22965496D01*
X32048854Y-23020013D01*
X32039283Y-23080445D01*
X31996018Y-23123710D01*
X31951073Y-23134500D01*
X31041740Y-23134500D01*
X31007673Y-23139463D01*
X30973604Y-23144427D01*
X30868518Y-23195801D01*
X30785801Y-23278518D01*
X30734427Y-23383604D01*
X30731534Y-23403462D01*
X30724500Y-23451740D01*
X30724500Y-23818260D01*
X30731118Y-23863682D01*
X30734427Y-23886395D01*
X30777988Y-23975500D01*
X30785802Y-23991483D01*
X30868517Y-24074198D01*
X30909230Y-24094101D01*
X30973604Y-24125572D01*
X30973605Y-24125572D01*
X30973607Y-24125573D01*
X31041740Y-24135500D01*
X31041743Y-24135500D01*
X32358257Y-24135500D01*
X32358260Y-24135500D01*
X32426393Y-24125573D01*
X32531483Y-24074198D01*
X32531487Y-24074193D01*
X32538159Y-24069431D01*
X32539126Y-24070786D01*
X32585013Y-24047407D01*
X32645445Y-24056978D01*
X32688710Y-24100243D01*
X32699500Y-24145188D01*
X32699500Y-25364564D01*
X32719977Y-25440985D01*
X32719979Y-25440990D01*
X32747317Y-25488341D01*
X32747318Y-25488342D01*
X32759540Y-25509511D01*
X33295505Y-26045476D01*
X33323281Y-26099991D01*
X33324500Y-26115478D01*
X33324501Y-26525500D01*
X33305594Y-26583691D01*
X33256094Y-26619655D01*
X33225501Y-26624500D01*
X31890549Y-26624500D01*
X31832358Y-26605593D01*
X31796394Y-26556093D01*
X31793452Y-26544816D01*
X31789609Y-26525500D01*
X31788867Y-26521769D01*
X31744552Y-26455448D01*
X31744548Y-26455445D01*
X31678233Y-26411134D01*
X31678231Y-26411133D01*
X31678228Y-26411132D01*
X31678227Y-26411132D01*
X31619758Y-26399501D01*
X31619748Y-26399500D01*
X30530252Y-26399500D01*
X30530251Y-26399500D01*
X30530241Y-26399501D01*
X30471772Y-26411132D01*
X30471766Y-26411134D01*
X30405451Y-26455445D01*
X30405445Y-26455451D01*
X30361134Y-26521766D01*
X30361132Y-26521772D01*
X30356548Y-26544816D01*
X30326650Y-26598200D01*
X30271085Y-26623814D01*
X30259451Y-26624500D01*
X27740549Y-26624500D01*
X27682358Y-26605593D01*
X27646394Y-26556093D01*
X27643452Y-26544816D01*
X27639609Y-26525500D01*
X27638867Y-26521769D01*
X27594552Y-26455448D01*
X27594548Y-26455445D01*
X27528233Y-26411134D01*
X27528231Y-26411133D01*
X27528228Y-26411132D01*
X27528227Y-26411132D01*
X27469758Y-26399501D01*
X27469748Y-26399500D01*
X26380252Y-26399500D01*
X26380251Y-26399500D01*
X26380241Y-26399501D01*
X26321772Y-26411132D01*
X26321766Y-26411134D01*
X26255451Y-26455445D01*
X26255445Y-26455451D01*
X26211134Y-26521766D01*
X26211132Y-26521772D01*
X26199501Y-26580241D01*
X26199500Y-26580253D01*
X26199500Y-27269746D01*
X26199501Y-27269758D01*
X26211132Y-27328227D01*
X26211133Y-27328231D01*
X26255448Y-27394552D01*
X26321769Y-27438867D01*
X26366231Y-27447711D01*
X26380241Y-27450498D01*
X26380246Y-27450498D01*
X26380252Y-27450500D01*
X26380253Y-27450500D01*
X27469747Y-27450500D01*
X27469748Y-27450500D01*
X27528231Y-27438867D01*
X27594552Y-27394552D01*
X27638867Y-27328231D01*
X27641367Y-27315662D01*
X27643452Y-27305184D01*
X27673350Y-27251800D01*
X27728915Y-27226186D01*
X27740549Y-27225500D01*
X30259451Y-27225500D01*
X30317642Y-27244407D01*
X30353606Y-27293907D01*
X30356548Y-27305184D01*
X30361132Y-27328227D01*
X30361133Y-27328231D01*
X30405448Y-27394552D01*
X30471769Y-27438867D01*
X30516231Y-27447711D01*
X30530241Y-27450498D01*
X30530246Y-27450498D01*
X30530252Y-27450500D01*
X30530253Y-27450500D01*
X31619747Y-27450500D01*
X31619748Y-27450500D01*
X31678231Y-27438867D01*
X31744552Y-27394552D01*
X31788867Y-27328231D01*
X31791367Y-27315662D01*
X31793452Y-27305184D01*
X31823350Y-27251800D01*
X31878915Y-27226186D01*
X31890549Y-27225500D01*
X33439563Y-27225500D01*
X33439563Y-27225499D01*
X33515989Y-27205021D01*
X33550999Y-27184807D01*
X33610846Y-27172085D01*
X33666742Y-27196970D01*
X33697336Y-27249957D01*
X33699500Y-27270543D01*
X33699500Y-27488992D01*
X33680593Y-27547183D01*
X33631093Y-27583147D01*
X33615987Y-27586773D01*
X33599699Y-27589352D01*
X33599695Y-27589354D01*
X33486659Y-27646949D01*
X33396949Y-27736659D01*
X33339354Y-27849695D01*
X33324500Y-27943477D01*
X33324500Y-28406520D01*
X33324501Y-28406523D01*
X33339352Y-28500299D01*
X33339354Y-28500304D01*
X33396950Y-28613342D01*
X33486658Y-28703050D01*
X33599696Y-28760646D01*
X33693481Y-28775500D01*
X34306518Y-28775499D01*
X34306520Y-28775499D01*
X34306521Y-28775498D01*
X34353411Y-28768072D01*
X34400299Y-28760647D01*
X34400299Y-28760646D01*
X34400304Y-28760646D01*
X34513342Y-28703050D01*
X34603050Y-28613342D01*
X34660646Y-28500304D01*
X34675500Y-28406519D01*
X34675499Y-27943482D01*
X34660646Y-27849696D01*
X34603050Y-27736658D01*
X34513342Y-27646950D01*
X34400304Y-27589354D01*
X34400306Y-27589354D01*
X34384010Y-27586773D01*
X34329494Y-27558993D01*
X34301718Y-27504476D01*
X34300500Y-27488992D01*
X34300500Y-27011007D01*
X34319407Y-26952816D01*
X34368907Y-26916852D01*
X34384012Y-26913226D01*
X34400304Y-26910646D01*
X34513342Y-26853050D01*
X34603050Y-26763342D01*
X34660646Y-26650304D01*
X34675500Y-26556519D01*
X34675499Y-26093482D01*
X34660646Y-25999696D01*
X34603050Y-25886658D01*
X34513342Y-25796950D01*
X34400304Y-25739354D01*
X34400305Y-25739354D01*
X34306522Y-25724500D01*
X34306519Y-25724500D01*
X33865479Y-25724500D01*
X33807288Y-25705593D01*
X33795475Y-25695504D01*
X33531073Y-25431102D01*
X33503296Y-25376585D01*
X33512867Y-25316153D01*
X33556132Y-25272888D01*
X33616562Y-25263317D01*
X33693481Y-25275500D01*
X34306518Y-25275499D01*
X34306520Y-25275499D01*
X34337776Y-25270548D01*
X34394568Y-25261554D01*
X34454999Y-25271125D01*
X34498264Y-25314390D01*
X34508046Y-25345245D01*
X34514834Y-25392456D01*
X34568291Y-25509508D01*
X34574623Y-25523373D01*
X34589326Y-25540341D01*
X34668873Y-25632144D01*
X34789942Y-25709950D01*
X34789947Y-25709953D01*
X34890079Y-25739354D01*
X34928035Y-25750499D01*
X34928036Y-25750499D01*
X34928039Y-25750500D01*
X34928041Y-25750500D01*
X35071959Y-25750500D01*
X35071961Y-25750500D01*
X35210053Y-25709953D01*
X35331128Y-25632143D01*
X35425377Y-25523373D01*
X35485165Y-25392457D01*
X35502610Y-25271125D01*
X35505647Y-25250002D01*
X35505647Y-25249997D01*
X35485165Y-25107543D01*
X35435986Y-24999858D01*
X35425377Y-24976627D01*
X35331128Y-24867857D01*
X35331127Y-24867856D01*
X35331126Y-24867855D01*
X35210057Y-24790049D01*
X35210054Y-24790047D01*
X35210053Y-24790047D01*
X35210050Y-24790046D01*
X35071964Y-24749500D01*
X35071961Y-24749500D01*
X34965479Y-24749500D01*
X34907288Y-24730593D01*
X34895475Y-24720504D01*
X34704495Y-24529524D01*
X34676718Y-24475007D01*
X34675499Y-24459520D01*
X34675499Y-24443478D01*
X34675498Y-24443476D01*
X34660647Y-24349700D01*
X34660646Y-24349698D01*
X34660646Y-24349696D01*
X34603050Y-24236658D01*
X34513342Y-24146950D01*
X34400304Y-24089354D01*
X34400305Y-24089354D01*
X34306522Y-24074500D01*
X33693479Y-24074500D01*
X33693476Y-24074501D01*
X33599700Y-24089352D01*
X33599695Y-24089354D01*
X33486659Y-24146949D01*
X33486658Y-24146949D01*
X33486658Y-24146950D01*
X33469501Y-24164106D01*
X33414987Y-24191882D01*
X33354555Y-24182311D01*
X33311290Y-24139046D01*
X33300500Y-24094101D01*
X33300500Y-23479885D01*
X33300499Y-23479883D01*
X33280022Y-23403462D01*
X33277871Y-23398269D01*
X33273070Y-23337272D01*
X33276546Y-23331599D01*
X33237847Y-23325470D01*
X33212787Y-23307264D01*
X32938976Y-23033453D01*
X33325000Y-23033453D01*
X33340760Y-23132965D01*
X33340762Y-23132969D01*
X33371000Y-23192314D01*
X33380572Y-23252746D01*
X33374441Y-23264778D01*
X33421062Y-23275972D01*
X33439339Y-23290379D01*
X33497078Y-23348118D01*
X33617030Y-23409237D01*
X33617029Y-23409237D01*
X33716545Y-23424999D01*
X33900000Y-23424999D01*
X33900000Y-22875001D01*
X34100000Y-22875001D01*
X34100000Y-23424998D01*
X34100001Y-23424999D01*
X34283453Y-23424999D01*
X34382965Y-23409239D01*
X34382969Y-23409237D01*
X34502921Y-23348118D01*
X34598118Y-23252921D01*
X34659237Y-23132969D01*
X34675000Y-23033453D01*
X34675000Y-22875001D01*
X34674999Y-22875000D01*
X34100001Y-22875000D01*
X34100000Y-22875001D01*
X33900000Y-22875001D01*
X33899999Y-22875000D01*
X33325002Y-22875000D01*
X33325001Y-22875001D01*
X33325001Y-23033453D01*
X33325000Y-23033453D01*
X32938976Y-23033453D01*
X32668384Y-22762861D01*
X32640607Y-22708344D01*
X32649448Y-22649376D01*
X32665573Y-22616393D01*
X32675500Y-22548260D01*
X32675500Y-22516546D01*
X33325000Y-22516546D01*
X33325000Y-22674999D01*
X33325001Y-22675000D01*
X33899999Y-22675000D01*
X33900000Y-22674999D01*
X33900000Y-22125001D01*
X34100000Y-22125001D01*
X34100000Y-22674999D01*
X34100001Y-22675000D01*
X34674998Y-22675000D01*
X34674999Y-22674999D01*
X34674999Y-22516546D01*
X34659239Y-22417034D01*
X34659237Y-22417030D01*
X34598118Y-22297078D01*
X34502921Y-22201881D01*
X34382969Y-22140762D01*
X34382970Y-22140762D01*
X34283454Y-22125000D01*
X34100001Y-22125000D01*
X34100000Y-22125001D01*
X33900000Y-22125001D01*
X33899999Y-22125000D01*
X33716547Y-22125000D01*
X33716546Y-22125001D01*
X33617034Y-22140760D01*
X33617030Y-22140762D01*
X33497078Y-22201881D01*
X33401881Y-22297078D01*
X33340762Y-22417030D01*
X33325000Y-22516546D01*
X32675500Y-22516546D01*
X32675500Y-22181740D01*
X32665573Y-22113607D01*
X32665572Y-22113604D01*
X32657934Y-22097980D01*
X32649363Y-22037398D01*
X32678039Y-21983348D01*
X32733008Y-21956476D01*
X32746875Y-21955500D01*
X33264301Y-21955500D01*
X33264315Y-21955500D01*
X33280440Y-21954866D01*
X33295927Y-21953647D01*
X33373095Y-21931884D01*
X33427612Y-21904107D01*
X33458811Y-21884503D01*
X33469900Y-21871219D01*
X33521707Y-21838666D01*
X33582753Y-21842781D01*
X33590844Y-21846456D01*
X33616874Y-21859719D01*
X33675639Y-21869026D01*
X33716509Y-21875500D01*
X33716512Y-21875500D01*
X34283491Y-21875500D01*
X34319444Y-21869805D01*
X34383126Y-21859719D01*
X34407772Y-21847160D01*
X34468203Y-21837587D01*
X34522721Y-21865364D01*
X34527270Y-21870230D01*
X34535478Y-21879625D01*
X34535480Y-21879626D01*
X34535482Y-21879628D01*
X34613992Y-21926536D01*
X34672183Y-21945443D01*
X34684237Y-21947352D01*
X34735681Y-21955500D01*
X34735685Y-21955500D01*
X37195500Y-21955500D01*
X37253691Y-21974407D01*
X37289655Y-22023907D01*
X37294500Y-22054500D01*
X37294500Y-30993511D01*
X37294939Y-31006952D01*
X37295786Y-31019872D01*
X37296594Y-31028075D01*
X37297105Y-31033255D01*
X37297106Y-31033260D01*
X37311592Y-31143301D01*
X37311593Y-31143311D01*
X37316835Y-31169665D01*
X37316837Y-31169673D01*
X37317847Y-31173446D01*
X37323524Y-31194634D01*
X37323526Y-31194641D01*
X37332159Y-31220071D01*
X37332167Y-31220090D01*
X37372140Y-31316595D01*
X37372143Y-31316601D01*
X37384029Y-31340705D01*
X37396947Y-31363081D01*
X37411885Y-31385438D01*
X37475470Y-31468302D01*
X37475484Y-31468320D01*
X37475495Y-31468334D01*
X37493201Y-31488522D01*
X37511476Y-31506797D01*
X37531664Y-31524503D01*
X37531673Y-31524510D01*
X37531681Y-31524517D01*
X37614558Y-31588112D01*
X37636912Y-31603048D01*
X37659294Y-31615970D01*
X37683401Y-31627858D01*
X37779907Y-31667832D01*
X37805361Y-31676473D01*
X37830325Y-31683162D01*
X37856689Y-31688406D01*
X37856698Y-31688407D01*
X37856702Y-31688408D01*
X37892230Y-31693085D01*
X37966743Y-31702895D01*
X37980125Y-31704213D01*
X37993047Y-31705060D01*
X38006488Y-31705500D01*
X42993512Y-31705500D01*
X43006953Y-31705060D01*
X43019875Y-31704213D01*
X43031613Y-31703056D01*
X43033269Y-31702894D01*
X43088284Y-31695650D01*
X43143311Y-31688406D01*
X43169674Y-31683162D01*
X43169682Y-31683160D01*
X43172534Y-31682395D01*
X43194638Y-31676473D01*
X43220092Y-31667832D01*
X43316598Y-31627858D01*
X43340705Y-31615970D01*
X43363087Y-31603048D01*
X43385440Y-31588113D01*
X43468314Y-31524521D01*
X43488523Y-31506797D01*
X43506797Y-31488523D01*
X43524521Y-31468314D01*
X43588113Y-31385440D01*
X43603048Y-31363087D01*
X43615970Y-31340705D01*
X43627858Y-31316598D01*
X43667832Y-31220092D01*
X43676473Y-31194638D01*
X43683162Y-31169674D01*
X43688406Y-31143310D01*
X43702895Y-31033256D01*
X43704213Y-31019874D01*
X43705060Y-31006952D01*
X43705500Y-30993511D01*
X43705500Y-16599500D01*
X43724407Y-16541309D01*
X43773907Y-16505345D01*
X43804500Y-16500500D01*
X105449824Y-16500500D01*
X105508015Y-16519407D01*
G37*
G04 #@! TD.AperFunction*
M02*
