G04 #@! TF.GenerationSoftware,KiCad,Pcbnew,8.0.8*
G04 #@! TF.CreationDate,2025-10-01T20:38:25-04:00*
G04 #@! TF.ProjectId,project-hw-2-18650,70726f6a-6563-4742-9d68-772d322d3138,rev?*
G04 #@! TF.SameCoordinates,Original*
G04 #@! TF.FileFunction,Legend,Bot*
G04 #@! TF.FilePolarity,Positive*
%FSLAX46Y46*%
G04 Gerber Fmt 4.6, Leading zero omitted, Abs format (unit mm)*
G04 Created by KiCad (PCBNEW 8.0.8) date 2025-10-01 20:38:25*
%MOMM*%
%LPD*%
G01*
G04 APERTURE LIST*
%ADD10C,0.100000*%
%ADD11C,2.500000*%
G04 APERTURE END LIST*
D10*
G36*
X103197906Y-56160000D02*
G01*
X103454361Y-56160000D01*
X103971667Y-54690635D01*
X103707397Y-54690635D01*
X103313677Y-55882540D01*
X102896999Y-54690635D01*
X102632728Y-54690635D01*
X103197906Y-56160000D01*
G37*
G36*
X101883879Y-54721898D02*
G01*
X102325471Y-54721898D01*
X102325471Y-54534319D01*
X102224949Y-54520386D01*
X102125386Y-54501786D01*
X102025403Y-54474163D01*
X101951290Y-54438576D01*
X101884035Y-54363005D01*
X101837458Y-54269544D01*
X101803424Y-54172656D01*
X101799371Y-54159162D01*
X101636217Y-54159162D01*
X101636217Y-56160000D01*
X101883879Y-56160000D01*
X101883879Y-54721898D01*
G37*
G36*
X100539567Y-55878632D02*
G01*
X100539567Y-56160000D01*
X100832170Y-56160000D01*
X100832170Y-55878632D01*
X100539567Y-55878632D01*
G37*
G36*
X99629030Y-54721898D02*
G01*
X100070621Y-54721898D01*
X100070621Y-54534319D01*
X99970099Y-54520386D01*
X99870536Y-54501786D01*
X99770553Y-54474163D01*
X99696441Y-54438576D01*
X99629185Y-54363005D01*
X99582608Y-54269544D01*
X99548574Y-54172656D01*
X99544521Y-54159162D01*
X99381367Y-54159162D01*
X99381367Y-56160000D01*
X99629030Y-56160000D01*
X99629030Y-54721898D01*
G37*
G36*
X98284717Y-55878632D02*
G01*
X98284717Y-56160000D01*
X98577320Y-56160000D01*
X98577320Y-55878632D01*
X98284717Y-55878632D01*
G37*
G36*
X97408580Y-54163463D02*
G01*
X97505094Y-54181632D01*
X97595257Y-54218191D01*
X97678018Y-54271514D01*
X97705497Y-54293429D01*
X97775969Y-54365450D01*
X97832868Y-54446392D01*
X97836876Y-54453189D01*
X97881630Y-54547414D01*
X97914202Y-54643775D01*
X97939846Y-54744368D01*
X97944933Y-54768411D01*
X97962000Y-54869161D01*
X97973815Y-54977238D01*
X97979846Y-55077817D01*
X97981856Y-55184005D01*
X97981694Y-55215520D01*
X97977801Y-55336836D01*
X97968718Y-55450565D01*
X97954445Y-55556708D01*
X97934982Y-55655264D01*
X97903355Y-55767789D01*
X97863617Y-55868461D01*
X97815771Y-55957278D01*
X97794407Y-55989398D01*
X97723080Y-56073324D01*
X97640900Y-56138600D01*
X97547867Y-56185225D01*
X97443980Y-56213201D01*
X97329239Y-56222526D01*
X97290078Y-56221501D01*
X97179671Y-56206131D01*
X97079876Y-56172317D01*
X96990695Y-56120058D01*
X96912127Y-56049356D01*
X96844173Y-55960209D01*
X96833864Y-55943555D01*
X96787232Y-55853431D01*
X96748780Y-55751882D01*
X96718510Y-55638907D01*
X96700184Y-55540302D01*
X96687094Y-55434385D01*
X96679240Y-55321155D01*
X96676622Y-55200614D01*
X96677076Y-55178143D01*
X96929658Y-55178143D01*
X96931199Y-55280328D01*
X96937463Y-55398357D01*
X96948544Y-55505604D01*
X96964444Y-55602071D01*
X96989883Y-55703599D01*
X97028332Y-55802428D01*
X97069032Y-55870824D01*
X97144638Y-55946884D01*
X97237709Y-55991106D01*
X97335101Y-56003684D01*
X97448526Y-55983732D01*
X97542726Y-55923876D01*
X97604245Y-55847260D01*
X97653460Y-55745105D01*
X97682297Y-55651730D01*
X97704213Y-55543989D01*
X97719208Y-55421882D01*
X97727282Y-55285410D01*
X97728820Y-55186448D01*
X97728430Y-55136709D01*
X97722577Y-54996968D01*
X97709700Y-54871439D01*
X97689799Y-54760120D01*
X97652338Y-54633800D01*
X97602390Y-54532745D01*
X97539956Y-54456953D01*
X97444353Y-54397741D01*
X97329239Y-54378004D01*
X97280852Y-54381129D01*
X97173543Y-54416292D01*
X97085744Y-54490523D01*
X97029553Y-54578039D01*
X96985849Y-54690558D01*
X96961265Y-54791357D01*
X96943705Y-54906221D01*
X96933170Y-55035150D01*
X96929658Y-55178143D01*
X96677076Y-55178143D01*
X96679171Y-55074500D01*
X96686819Y-54956523D01*
X96699566Y-54846683D01*
X96717411Y-54744979D01*
X96753738Y-54607678D01*
X96801537Y-54488684D01*
X96860808Y-54387997D01*
X96931550Y-54305616D01*
X97013765Y-54241543D01*
X97107451Y-54195776D01*
X97212609Y-54168315D01*
X97329239Y-54159162D01*
X97408580Y-54163463D01*
G37*
%LPC*%
D11*
X111800000Y-47550000D03*
X40200000Y-47550000D03*
X111800000Y-28450000D03*
X40200000Y-28450000D03*
%LPD*%
M02*
